0
SECTION
2
HEADER
9
$INSUNITS
70
4
9
$ACADVER
1
AC1014
9
$HANDSEED
5
FFFF
0
ENDSEC
0
SECTION
2
TABLES
0
TABLE
2
VPORT
5
8
100
AcDbSymbolTable
0
ENDTAB
0
TABLE
2
LTYPE
5
5
100
AcDbSymbolTable
0
LTYPE
5
14
100
AcDbSymbolTableRecord
100
AcDbLinetypeTableRecord
2
BYBLOCK
70
0
0
LTYPE
5
15
100
AcDbSymbolTableRecord
100
AcDbLinetypeTableRecord
2
BYLAYER
70
0
0
LTYPE
5
16
100
AcDbSymbolTableRecord
100
AcDbLinetypeTableRecord
2
DASHED
70
0
3
Dashed __ __ __ __ __ __ __ __ __ __ __ __ __ _
72
65
73
2
40
0.75
49
0.5
74
0
49
-0.25
74
0
0
ENDTAB
0
TABLE
2
LAYER
5
2
100
AcDbSymbolTable
70
2
0
LAYER
5
50
100
AcDbSymbolTableRecord
100
AcDbLayerTableRecord
2
0
70
0
62
7
6
CONTINUOUS
0
ENDTAB
0
TABLE
2
STYLE
5
3
100
AcDbSymbolTable
70
1
0
STYLE
5
11
100
AcDbSymbolTableRecord
100
AcDbTextStyleTableRecord
2
STANDARD
70
0
0
ENDTAB
0
TABLE
2
VIEW
5
6
100
AcDbSymbolTable
70
0
0
ENDTAB
0
TABLE
2
UCS
5
7
100
AcDbSymbolTable
70
0
0
ENDTAB
0
TABLE
2
APPID
5
9
100
AcDbSymbolTable
70
2
0
APPID
5
12
100
AcDbSymbolTableRecord
100
AcDbRegAppTableRecord
2
ACAD
70
0
0
ENDTAB
0
TABLE
2
DIMSTYLE
5
A
100
AcDbSymbolTable
70
1
0
ENDTAB
0
TABLE
2
BLOCK_RECORD
5
1
100
AcDbSymbolTable
70
1
0
BLOCK_RECORD
5
1F
100
AcDbSymbolTableRecord
100
AcDbBlockTableRecord
2
*MODEL_SPACE
0
BLOCK_RECORD
5
1B
100
AcDbSymbolTableRecord
100
AcDbBlockTableRecord
2
*PAPER_SPACE
0
ENDTAB
0
ENDSEC
0
SECTION
2
BLOCKS
0
BLOCK
5
20
100
AcDbEntity
100
AcDbBlockBegin
2
*MODEL_SPACE
0
ENDBLK
5
21
100
AcDbEntity
100
AcDbBlockEnd
0
BLOCK
5
1C
100
AcDbEntity
100
AcDbBlockBegin
2
*PAPER_SPACE
0
ENDBLK
5
1D
100
AcDbEntity
100
AcDbBlockEnd
0
ENDSEC
0
SECTION
2
ENTITIES
0
POINT
5
100
100
AcDbEntity
8
0
100
AcDbPoint
10
127.54857228404701
20
-109.20253114224636
30
0
0
LWPOLYLINE
5
101
100
AcDbEntity
8
0
100
AcDbPolyline
90
8
70
1
43
0.0
10
171.23431228623247
20
2.537140309790864
10
83.565683136130829
20
2.537140309790864
10
82.799997711181632
20
1.7714548848408462
10
82.799997711181632
20
-221.89717426526016
10
83.565683136130929
20
-222.66285969020913
10
171.23431228623232
20
-222.6628596902091
10
171.99999771118166
20
-221.89717426526011
10
171.99999771118166
20
1.771454884840864
0
CIRCLE
5
102
100
AcDbEntity
8
0
100
AcDbCircle
10
102.40078093109634
20
-185.59460989495193
30
0
40
2.0500000000000047
210
0
220
-0
230
1
0
CIRCLE
5
103
100
AcDbEntity
8
0
100
AcDbCircle
10
152.40078093109634
20
-185.59460989495199
30
0
40
2.0500000000000047
210
0
220
-0
230
1
0
CIRCLE
5
104
100
AcDbEntity
8
0
100
AcDbCircle
10
127.54857228404701
20
-99.339478807284451
30
0
40
2.0500000000000069
210
0
220
-0
230
1
0
CIRCLE
5
105
100
AcDbEntity
8
0
100
AcDbCircle
10
152.24314346168964
20
-112.49179187834393
30
0
40
2.0500000000000047
210
0
220
-0
230
1
0
CIRCLE
5
106
100
AcDbEntity
8
0
100
AcDbCircle
10
102.40422841994267
20
-43.517028934437519
30
0
40
2.0500000000000047
210
0
220
-0
230
1
0
CIRCLE
5
107
100
AcDbEntity
8
0
100
AcDbCircle
10
152.40422841994268
20
-43.517028934437583
30
0
40
2.0499999999999874
210
0
220
-0
230
1
0
LINE
5
108
100
AcDbEntity
8
0
100
AcDbLine
10
115.69999771118164
20
-81.126360099694651
30
0
11
115.69999771118164
21
-140.12636009969475
31
0
0
ARC
5
109
100
AcDbEntity
8
0
100
AcDbCircle
10
111.76241961881985
20
-73.726360099694659
30
0
40
3.6000000000000272
210
0
220
0
230
1
100
AcDbArc
50
233.22962481412955
51
270
0
ARC
5
110
100
AcDbEntity
8
0
100
AcDbCircle
10
100.89999771118164
20
-78.126360099694651
30
0
40
6.7999999999999918
210
0
220
-0
230
1
100
AcDbArc
50
39.494641547756181
51
140.50535723684152
0
ARC
5
111
100
AcDbEntity
8
0
100
AcDbCircle
10
89.899997711181626
20
-81.126360099694651
30
0
40
3.7999999999999989
210
0
220
-0
230
1
100
AcDbArc
50
89.999999999999787
51
180
0
LINE
5
112
100
AcDbEntity
8
0
100
AcDbLine
10
86.099997711181629
20
-140.12636009969475
30
0
11
86.099997711181615
21
-81.126360099694651
31
0
0
ARC
5
113
100
AcDbEntity
8
0
100
AcDbCircle
10
89.899997711181655
20
-140.12636009969475
30
0
40
3.8000000000000256
210
0
220
0
230
1
100
AcDbArc
50
180
51
269.99999999999983
0
ARC
5
114
100
AcDbEntity
8
0
100
AcDbCircle
10
100.89999771118164
20
-143.12636009969475
30
0
40
6.8000000000000007
210
0
220
0
230
1
100
AcDbArc
50
219.49463959889394
51
320.50535919356088
0
LINE
5
115
100
AcDbEntity
8
0
100
AcDbLine
10
94.546499229233874
20
-146.40167907195141
30
0
11
92.192570003071737
21
-144.64261253792716
31
0
0
LINE
5
116
100
AcDbEntity
8
0
100
AcDbLine
10
109.60742541929166
20
-144.64261253792719
30
0
11
107.25349627919488
21
-146.40167900763549
31
0
0
ARC
5
117
100
AcDbEntity
8
0
100
AcDbCircle
10
111.89999771118161
20
-140.12636009969475
30
0
40
3.8000000000000256
210
-0
220
0
230
1
100
AcDbArc
50
-89.999999999999588
51
0
0
ARC
5
118
100
AcDbEntity
8
0
100
AcDbCircle
10
111.89999771118165
20
-81.126360099694651
30
0
40
3.7999999999999901
210
0
220
-0
230
1
100
AcDbArc
50
0
51
90
0
LINE
5
119
100
AcDbEntity
8
0
100
AcDbLine
10
111.89999771118165
20
-77.326360099694668
30
0
11
111.76241961881985
21
-77.326360099694696
31
0
0
ARC
5
120
100
AcDbEntity
8
0
100
AcDbCircle
10
142.88515919690366
20
-32.078858499238798
30
0
40
55.591723460616308
210
0
220
0
230
1
100
AcDbArc
50
228.63537983617374
51
233.22962481412952
0
LINE
5
121
100
AcDbEntity
8
0
100
AcDbLine
10
92.192570003071722
20
-76.610107661462138
30
0
11
94.546499234117718
21
-74.851041123788235
31
0
0
ARC
5
122
100
AcDbEntity
8
0
100
AcDbCircle
10
90.830279622293816
20
-69.827106295526946
30
0
40
6.2490166715989295
210
0
220
0
230
1
100
AcDbArc
50
306.49044353614477
51
320.50535723684152
0
ARC
5
123
100
AcDbEntity
8
0
100
AcDbCircle
10
90.03048201033765
20
-73.716867401818391
30
0
40
3.611850452101848
210
0
220
0
230
1
100
AcDbArc
50
267.92964106990155
51
306.77037518587014
0
ARC
5
124
100
AcDbEntity
8
0
100
AcDbCircle
10
89.899997711181626
20
-147.95350539155098
30
0
40
4.0271452918562103
210
0
220
-0
230
1
100
AcDbArc
50
55.299983744234645
51
89.999999999999801
0
ARC
5
125
100
AcDbEntity
8
0
100
AcDbCircle
10
90.650888632099225
20
-151.61466644961689
30
0
40
6.507766077864769
210
0
220
-0
230
1
100
AcDbArc
50
39.774577909818149
51
53.229624814129956
0
ARC
5
126
100
AcDbEntity
8
0
100
AcDbCircle
10
110.96971330011161
20
-151.4256112659593
30
0
40
6.2490130646989117
210
0
220
0
230
1
100
AcDbArc
50
126.49043845056823
51
140.50535919356113
0
ARC
5
127
100
AcDbEntity
8
0
100
AcDbCircle
10
111.76951341202566
20
-147.53585279757115
30
0
40
3.6118504521019714
210
0
220
-0
230
1
100
AcDbArc
50
87.929641069902104
51
126.77037518586722
0
LINE
5
128
100
AcDbEntity
8
0
100
AcDbLine
10
171.23431228623232
20
-222.6628596902091
30
0
11
83.565683136130929
21
-222.6628596902091
31
0
6
DASHED
0
LINE
5
129
100
AcDbEntity
8
0
100
AcDbLine
10
83.565683136130929
20
-222.6628596902091
30
0
11
83.565683136130929
21
-249.6323425035925
31
0
6
DASHED
0
LINE
5
130
100
AcDbEntity
8
0
100
AcDbLine
10
83.565683136130929
20
-249.6323425035925
30
0
11
171.23431228623232
21
-249.6323425035925
31
0
6
DASHED
0
LINE
5
131
100
AcDbEntity
8
0
100
AcDbLine
10
171.23431228623232
20
-249.6323425035925
30
0
11
171.23431228623232
21
-222.6628596902091
31
0
6
DASHED
0
LINE
5
132
100
AcDbEntity
8
0
100
AcDbLine
10
127.54857228404701
20
-109.20253114224636
30
0
11
229.89588461748244
21
-70.210358967332681
31
0
0
LINE
5
133
100
AcDbEntity
8
0
100
AcDbLine
10
294.83717283287905
20
-49.556248953873194
30
0
11
229.89588461748244
21
-49.556248953873194
31
0
6
DASHED
0
LINE
5
134
100
AcDbEntity
8
0
100
AcDbLine
10
229.89588461748244
20
-49.556248953873194
30
0
11
229.89588461748244
21
-70.210358967332681
31
0
6
DASHED
0
LINE
5
135
100
AcDbEntity
8
0
100
AcDbLine
10
229.89588461748244
20
-70.210358967332681
30
0
11
294.83717283287905
21
-70.210358967332681
31
0
6
DASHED
0
LINE
5
136
100
AcDbEntity
8
0
100
AcDbLine
10
294.83717283287905
20
-70.210358967332681
30
0
11
294.83717283287905
21
-49.556248953873194
31
0
6
DASHED
0
LINE
5
137
100
AcDbEntity
8
0
100
AcDbLine
10
83.565683136130929
20
-222.6628596902091
30
0
11
83.565683136130929
21
2.537140309790864
31
0
6
DASHED
0
LINE
5
138
100
AcDbEntity
8
0
100
AcDbLine
10
83.565683136130929
20
2.537140309790864
30
0
11
43.770004416684642
21
2.537140309790864
31
0
6
DASHED
0
LINE
5
139
100
AcDbEntity
8
0
100
AcDbLine
10
43.770004416684642
20
2.537140309790864
30
0
11
43.770004416684642
21
-222.6628596902091
31
0
6
DASHED
0
LINE
5
140
100
AcDbEntity
8
0
100
AcDbLine
10
43.770004416684642
20
-222.6628596902091
30
0
11
83.565683136130929
21
-222.6628596902091
31
0
6
DASHED
0
LINE
5
141
100
AcDbEntity
8
0
100
AcDbLine
10
167.57052928731284
20
-231.14760105423642
30
0
11
167.57052928731284
21
-241.14760105423642
31
0
0
LINE
5
142
100
AcDbEntity
8
0
100
AcDbLine
10
167.57052928731284
20
-241.14760105423642
30
0
11
163.7983602337583
21
-241.14760105423642
31
0
0
SPLINE
5
143
100
AcDbEntity
8
0
100
AcDbSpline
70
0
71
2
72
6
73
3
74
0
42
0.000000001
43
0.0000000001
44
0.0000000001
40
0
40
0
40
0
40
1
40
1
40
1
10
163.7983602337583
20
-241.14760105423642
30
0
10
162.80245245025
20
-241.14760105423642
30
0
10
162.27721334025702
20
-241.05210249237729
30
0
0
SPLINE
5
144
100
AcDbEntity
8
0
100
AcDbSpline
70
0
71
2
72
6
73
3
74
0
42
0.000000001
43
0.0000000001
44
0.0000000001
40
0
40
0
40
0
40
1
40
1
40
1
10
162.27721334025702
20
-241.05210249237729
30
0
10
161.54051542804083
20
-240.92931930832577
30
0
10
161.04256153628668
20
-240.58484499268246
30
0
0
SPLINE
5
145
100
AcDbEntity
8
0
100
AcDbSpline
70
0
71
2
72
6
73
3
74
0
42
0.000000001
43
0.0000000001
44
0.0000000001
40
0
40
0
40
0
40
1
40
1
40
1
10
161.04256153628668
20
-240.58484499268246
30
0
10
160.54460883662543
20
-240.24037067703915
30
0
10
160.24106145427069
20
-239.61963360123349
30
0
0
SPLINE
5
146
100
AcDbEntity
8
0
100
AcDbSpline
70
0
71
2
72
6
73
3
74
0
42
0.000000001
43
0.0000000001
44
0.0000000001
40
0
40
0
40
0
40
1
40
1
40
1
10
160.24106145427069
20
-239.61963360123349
30
0
10
159.93751407191596
20
-238.99889652542782
30
0
10
159.93751407191596
20
-238.25537745766354
30
0
0
SPLINE
5
147
100
AcDbEntity
8
0
100
AcDbSpline
70
0
71
2
72
6
73
3
74
0
42
0.000000001
43
0.0000000001
44
0.0000000001
40
0
40
0
40
0
40
1
40
1
40
1
10
159.93751407191596
20
-238.25537745766354
30
0
10
159.93751407191596
20
-236.97979752831174
30
0
10
160.74924588725409
20
-236.0964411955328
30
0
0
SPLINE
5
148
100
AcDbEntity
8
0
100
AcDbSpline
70
0
71
2
72
6
73
3
74
0
42
0.000000001
43
0.0000000001
44
0.0000000001
40
0
40
0
40
0
40
1
40
1
40
1
10
160.74924588725409
20
-236.0964411955328
30
0
10
161.56097889468512
20
-235.21308605484677
30
0
10
163.68239820525488
20
-235.21308605484677
30
0
0
LINE
5
149
100
AcDbEntity
8
0
100
AcDbLine
10
163.68239820525488
20
-235.21308605484677
30
0
11
166.24720037505469
21
-235.21308605484677
31
0
0
LINE
5
150
100
AcDbEntity
8
0
100
AcDbLine
10
166.24720037505469
20
-235.21308605484677
30
0
11
166.24720037505469
21
-231.14760105423642
31
0
0
LINE
5
151
100
AcDbEntity
8
0
100
AcDbLine
10
166.24720037505469
20
-231.14760105423642
30
0
11
167.57052928731284
21
-231.14760105423642
31
0
0
LINE
5
152
100
AcDbEntity
8
0
100
AcDbLine
10
166.24720037505469
20
-236.39316742233945
30
0
11
163.66193414256415
21
-236.39316742233945
31
0
0
SPLINE
5
153
100
AcDbEntity
8
0
100
AcDbSpline
70
0
71
2
72
6
73
3
74
0
42
0.000000001
43
0.0000000001
44
0.0000000001
40
0
40
0
40
0
40
1
40
1
40
1
10
163.66193414256415
20
-236.39316742233945
30
0
10
162.37953305766425
20
-236.39316742233945
30
0
10
161.84065223262152
20
-236.87065784744931
30
0
0
SPLINE
5
154
100
AcDbEntity
8
0
100
AcDbSpline
70
0
71
2
72
6
73
3
74
0
42
0.000000001
43
0.0000000001
44
0.0000000001
40
0
40
0
40
0
40
1
40
1
40
1
10
161.84065223262152
20
-236.87065784744931
30
0
10
161.3017702154859
20
-237.34814708046628
30
0
10
161.3017702154859
20
-238.21444933228207
30
0
0
SPLINE
5
155
100
AcDbEntity
8
0
100
AcDbSpline
70
0
71
2
72
6
73
3
74
0
42
0.000000001
43
0.0000000001
44
0.0000000001
40
0
40
0
40
0
40
1
40
1
40
1
10
161.3017702154859
20
-238.21444933228207
30
0
10
161.3017702154859
20
-238.84200756363583
30
0
10
161.61895990893683
20
-239.28880159668637
30
0
0
SPLINE
5
156
100
AcDbEntity
8
0
100
AcDbSpline
70
0
71
2
72
6
73
3
74
0
42
0.000000001
43
0.0000000001
44
0.0000000001
40
0
40
0
40
0
40
1
40
1
40
1
10
161.61895990893683
20
-239.28880159668637
30
0
10
161.93614960238776
20
-239.73559562973691
30
0
10
162.4545669607862
20
-239.87884228043271
30
0
0
SPLINE
5
157
100
AcDbEntity
8
0
100
AcDbSpline
70
0
71
2
72
6
73
3
74
0
42
0.000000001
43
0.0000000001
44
0.0000000001
40
0
40
0
40
0
40
1
40
1
40
1
10
162.4545669607862
20
-239.87884228043271
30
0
10
162.78881013915381
20
-239.96751968674374
30
0
10
163.68921995684943
20
-239.96751968674374
30
0
0
LINE
5
158
100
AcDbEntity
8
0
100
AcDbLine
10
163.68921995684943
20
-239.96751968674374
30
0
11
166.24720037505469
21
-239.96751968674374
31
0
0
LINE
5
159
100
AcDbEntity
8
0
100
AcDbLine
10
166.24720037505469
20
-239.96751968674374
30
0
11
166.24720037505469
21
-236.39316742233945
31
0
0
LINE
5
160
100
AcDbEntity
8
0
100
AcDbLine
10
155.70831895396552
20
-231.14760105423642
30
0
11
155.70831895396552
21
-239.96751968674374
31
0
0
LINE
5
161
100
AcDbEntity
8
0
100
AcDbLine
10
155.70831895396552
20
-239.96751968674374
30
0
11
159.00299907252631
21
-239.96751968674374
31
0
0
LINE
5
162
100
AcDbEntity
8
0
100
AcDbLine
10
159.00299907252631
20
-239.96751968674374
30
0
11
159.00299907252631
21
-241.14760105423642
31
0
0
LINE
5
163
100
AcDbEntity
8
0
100
AcDbLine
10
159.00299907252631
20
-241.14760105423642
30
0
11
151.07666850612006
21
-241.14760105423642
31
0
0
LINE
5
164
100
AcDbEntity
8
0
100
AcDbLine
10
151.07666850612006
20
-241.14760105423642
30
0
11
151.07666850612006
21
-239.96751968674374
31
0
0
LINE
5
165
100
AcDbEntity
8
0
100
AcDbLine
10
151.07666850612006
20
-239.96751968674374
30
0
11
154.38499093577704
21
-239.96751968674374
31
0
0
LINE
5
166
100
AcDbEntity
8
0
100
AcDbLine
10
154.38499093577704
20
-239.96751968674374
30
0
11
154.38499093577704
21
-231.14760105423642
31
0
0
LINE
5
167
100
AcDbEntity
8
0
100
AcDbLine
10
154.38499093577704
20
-231.14760105423642
30
0
11
155.70831895396552
21
-231.14760105423642
31
0
0
LINE
5
168
100
AcDbEntity
8
0
100
AcDbLine
10
149.65101838633856
20
-231.14760105423642
30
0
11
149.65101838633856
21
-241.14760105423642
31
0
0
LINE
5
169
100
AcDbEntity
8
0
100
AcDbLine
10
149.65101838633856
20
-241.14760105423642
30
0
11
142.90477157161078
21
-241.14760105423642
31
0
0
LINE
5
170
100
AcDbEntity
8
0
100
AcDbLine
10
142.90477157161078
20
-241.14760105423642
30
0
11
142.90477157161078
21
-239.96751968674374
31
0
0
LINE
5
171
100
AcDbEntity
8
0
100
AcDbLine
10
142.90477157161078
20
-239.96751968674374
30
0
11
148.32769036815009
21
-239.96751968674374
31
0
0
LINE
5
172
100
AcDbEntity
8
0
100
AcDbLine
10
148.32769036815009
20
-239.96751968674374
30
0
11
148.32769036815009
21
-236.87065784744931
31
0
0
LINE
5
173
100
AcDbEntity
8
0
100
AcDbLine
10
148.32769036815009
20
-236.87065784744931
30
0
11
143.63464952037177
21
-236.87065784744931
31
0
0
LINE
5
174
100
AcDbEntity
8
0
100
AcDbLine
10
143.63464952037177
20
-236.87065784744931
30
0
11
143.63464952037177
21
-235.69057528786374
31
0
0
LINE
5
175
100
AcDbEntity
8
0
100
AcDbLine
10
143.63464952037177
20
-235.69057528786374
30
0
11
148.32769036815009
21
-235.69057528786374
31
0
0
LINE
5
176
100
AcDbEntity
8
0
100
AcDbLine
10
148.32769036815009
20
-235.69057528786374
30
0
11
148.32769036815009
21
-231.14760105423642
31
0
0
LINE
5
177
100
AcDbEntity
8
0
100
AcDbLine
10
148.32769036815009
20
-231.14760105423642
30
0
11
149.65101838633856
21
-231.14760105423642
31
0
0
LINE
5
178
100
AcDbEntity
8
0
100
AcDbLine
10
141.15852237269721
20
-231.14760105423642
30
0
11
141.15852237269721
21
-241.14760105423642
31
0
0
LINE
5
179
100
AcDbEntity
8
0
100
AcDbLine
10
141.15852237269721
20
-241.14760105423642
30
0
11
133.92796159312567
21
-241.14760105423642
31
0
0
LINE
5
180
100
AcDbEntity
8
0
100
AcDbLine
10
133.92796159312567
20
-241.14760105423642
30
0
11
133.92796159312567
21
-239.96751968674374
31
0
0
LINE
5
181
100
AcDbEntity
8
0
100
AcDbLine
10
133.92796159312567
20
-239.96751968674374
30
0
11
139.83519435450873
21
-239.96751968674374
31
0
0
LINE
5
182
100
AcDbEntity
8
0
100
AcDbLine
10
139.83519435450873
20
-239.96751968674374
30
0
11
139.83519435450873
21
-236.90476362518979
31
0
0
LINE
5
183
100
AcDbEntity
8
0
100
AcDbLine
10
139.83519435450873
20
-236.90476362518979
30
0
11
134.30313230082831
21
-236.90476362518979
31
0
0
LINE
5
184
100
AcDbEntity
8
0
100
AcDbLine
10
134.30313230082831
20
-236.90476362518979
30
0
11
134.30313230082831
21
-235.73150341324521
31
0
0
LINE
5
185
100
AcDbEntity
8
0
100
AcDbLine
10
134.30313230082831
20
-235.73150341324521
30
0
11
139.83519435450873
21
-235.73150341324521
31
0
0
LINE
5
186
100
AcDbEntity
8
0
100
AcDbLine
10
139.83519435450873
20
-235.73150341324521
30
0
11
139.83519435450873
21
-232.32768242172909
31
0
0
LINE
5
187
100
AcDbEntity
8
0
100
AcDbLine
10
139.83519435450873
20
-232.32768242172909
30
0
11
133.69603992030463
21
-232.32768242172909
31
0
0
LINE
5
188
100
AcDbEntity
8
0
100
AcDbLine
10
133.69603992030463
20
-232.32768242172909
30
0
11
133.69603992030463
21
-231.14760105423642
31
0
0
LINE
5
189
100
AcDbEntity
8
0
100
AcDbLine
10
133.69603992030463
20
-231.14760105423642
30
0
11
141.15852237269721
21
-231.14760105423642
31
0
0
SPLINE
5
190
100
AcDbEntity
8
0
100
AcDbSpline
70
0
71
2
72
6
73
3
74
0
42
0.000000001
43
0.0000000001
44
0.0000000001
40
0
40
0
40
0
40
1
40
1
40
1
10
128.38908315226874
20
-236.01799671463681
30
0
10
128.38908315226874
20
-238.50776378922177
30
0
10
127.05211282298407
20
-239.91635982804013
30
0
0
SPLINE
5
191
100
AcDbEntity
8
0
100
AcDbSpline
70
0
71
2
72
6
73
3
74
0
42
0.000000001
43
0.0000000001
44
0.0000000001
40
0
40
0
40
0
40
1
40
1
40
1
10
127.05211282298407
20
-239.91635982804013
30
0
10
125.7151424936994
20
-241.3249534826727
30
0
10
123.6005413584455
20
-241.3249534826727
30
0
0
SPLINE
5
192
100
AcDbEntity
8
0
100
AcDbSpline
70
0
71
2
72
6
73
3
74
0
42
0.000000001
43
0.0000000001
44
0.0000000001
40
0
40
0
40
0
40
1
40
1
40
1
10
123.6005413584455
20
-241.3249534826727
30
0
10
122.21582055613837
20
-241.3249534826727
30
0
10
121.10395551249823
20
-240.66328947357846
30
0
0
SPLINE
5
193
100
AcDbEntity
8
0
100
AcDbSpline
70
0
71
2
72
6
73
3
74
0
42
0.000000001
43
0.0000000001
44
0.0000000001
40
0
40
0
40
0
40
1
40
1
40
1
10
121.10395551249823
20
-240.66328947357846
30
0
10
119.99208570048651
20
-240.00162546448422
30
0
10
119.40886617228827
20
-238.8181323271246
30
0
0
SPLINE
5
194
100
AcDbEntity
8
0
100
AcDbSpline
70
0
71
2
72
6
73
3
74
0
42
0.000000001
43
0.0000000001
44
0.0000000001
40
0
40
0
40
0
40
1
40
1
40
1
10
119.40886617228827
20
-238.8181323271246
30
0
10
118.82564664409003
20
-237.63464038185788
30
0
10
118.82564664409003
20
-236.13395755104733
30
0
0
SPLINE
5
195
100
AcDbEntity
8
0
100
AcDbSpline
70
0
71
2
72
6
73
3
74
0
42
0.000000001
43
0.0000000001
44
0.0000000001
40
0
40
0
40
0
40
1
40
1
40
1
10
118.82564664409003
20
-236.13395755104733
30
0
10
118.82564664409003
20
-234.61281244568539
30
0
10
119.43956018016181
20
-233.41226641945553
30
0
0
SPLINE
5
196
100
AcDbEntity
8
0
100
AcDbSpline
70
0
71
2
72
6
73
3
74
0
42
0.000000001
43
0.0000000001
44
0.0000000001
40
0
40
0
40
0
40
1
40
1
40
1
10
119.43956018016181
20
-233.41226641945553
30
0
10
120.05347371623358
20
-232.21172039322568
30
0
10
121.17898583934149
20
-231.59439508728696
30
0
0
SPLINE
5
197
100
AcDbEntity
8
0
100
AcDbSpline
70
0
71
2
72
6
73
3
74
0
42
0.000000001
43
0.0000000001
44
0.0000000001
40
0
40
0
40
0
40
1
40
1
40
1
10
121.17898583934149
20
-231.59439508728696
30
0
10
122.3044979624494
20
-230.97706978134823
30
0
10
123.60736489817938
20
-230.97706978134823
30
0
0
SPLINE
5
198
100
AcDbEntity
8
0
100
AcDbSpline
70
0
71
2
72
6
73
3
74
0
42
0.000000001
43
0.0000000001
44
0.0000000001
40
0
40
0
40
0
40
1
40
1
40
1
10
123.60736489817938
20
-230.97706978134823
30
0
10
125.0193703226789
20
-230.97706978134823
30
0
10
126.13124013469061
20
-231.65919725708676
30
0
0
SPLINE
5
199
100
AcDbEntity
8
0
100
AcDbSpline
70
0
71
2
72
6
73
3
74
0
42
0.000000001
43
0.0000000001
44
0.0000000001
40
0
40
0
40
0
40
1
40
1
40
1
10
126.13124013469061
20
-231.65919725708676
30
0
10
127.24310994670233
20
-232.34132592491818
30
0
10
127.81609654948554
20
-233.52140729241086
30
0
0
SPLINE
5
200
100
AcDbEntity
8
0
100
AcDbSpline
70
0
71
2
72
6
73
3
74
0
42
0.000000001
43
0.0000000001
44
0.0000000001
40
0
40
0
40
0
40
1
40
1
40
1
10
127.81609654948554
20
-233.52140729241086
30
0
10
128.38908315226874
20
-234.70148865990353
30
0
10
128.38908315226874
20
-236.01799671463681
30
0
0
SPLINE
5
201
100
AcDbEntity
8
0
100
AcDbSpline
70
0
71
2
72
6
73
3
74
0
42
0.000000001
43
0.0000000001
44
0.0000000001
40
0
40
0
40
0
40
1
40
1
40
1
10
127.02482820079169
20
-235.99753205589963
30
0
10
127.02482820079169
20
-234.18989245705319
30
0
10
126.05279565379462
20
-233.14964716248227
30
0
0
SPLINE
5
202
100
AcDbEntity
8
0
100
AcDbSpline
70
0
71
2
72
6
73
3
74
0
42
0.000000001
43
0.0000000001
44
0.0000000001
40
0
40
0
40
0
40
1
40
1
40
1
10
126.05279565379462
20
-233.14964716248227
30
0
10
125.08076310679755
20
-232.10940067581845
30
0
10
123.61418366954169
20
-232.10940067581845
30
0
0
SPLINE
5
203
100
AcDbEntity
8
0
100
AcDbSpline
70
0
71
2
72
6
73
3
74
0
42
0.000000001
43
0.0000000001
44
0.0000000001
40
0
40
0
40
0
40
1
40
1
40
1
10
123.61418366954169
20
-232.10940067581845
30
0
10
122.12032437846503
20
-232.10940067581845
30
0
10
121.15511060283026
20
-233.15987889580441
30
0
0
SPLINE
5
204
100
AcDbEntity
8
0
100
AcDbSpline
70
0
71
2
72
6
73
3
74
0
42
0.000000001
43
0.0000000001
44
0.0000000001
40
0
40
0
40
0
40
1
40
1
40
1
10
121.15511060283026
20
-233.15987889580441
30
0
10
120.18990159556708
20
-234.21035711579037
30
0
10
120.18990159556708
20
-236.14077870659543
30
0
0
SPLINE
5
205
100
AcDbEntity
8
0
100
AcDbSpline
70
0
71
2
72
6
73
3
74
0
42
0.000000001
43
0.0000000001
44
0.0000000001
40
0
40
0
40
0
40
1
40
1
40
1
10
120.18990159556708
20
-236.14077870659543
30
0
10
120.18990159556708
20
-237.36178819946957
30
0
10
120.60258985087714
20
-238.27243034653378
30
0
0
SPLINE
5
206
100
AcDbEntity
8
0
100
AcDbSpline
70
0
71
2
72
6
73
3
74
0
42
0.000000001
43
0.0000000001
44
0.0000000001
40
0
40
0
40
0
40
1
40
1
40
1
10
120.60258985087714
20
-238.27243034653378
30
0
10
121.0152781061872
20
-239.18307130150509
30
0
10
121.8099558405622
20
-239.68443577103329
30
0
0
SPLINE
5
207
100
AcDbEntity
8
0
100
AcDbSpline
70
0
71
2
72
6
73
3
74
0
42
0.000000001
43
0.0000000001
44
0.0000000001
40
0
40
0
40
0
40
1
40
1
40
1
10
121.8099558405622
20
-239.68443577103329
30
0
10
122.6046335749372
20
-240.1857990484686
30
0
10
123.59372258708319
20
-240.1857990484686
30
0
0
SPLINE
5
208
100
AcDbEntity
8
0
100
AcDbSpline
70
0
71
2
72
6
73
3
74
0
42
0.000000001
43
0.0000000001
44
0.0000000001
40
0
40
0
40
0
40
1
40
1
40
1
10
123.59372258708319
20
-240.1857990484686
30
0
10
124.99890447184882
20
-240.1857990484686
30
0
10
126.01186395213446
20
-239.22058765701962
30
0
0
SPLINE
5
209
100
AcDbEntity
8
0
100
AcDbSpline
70
0
71
2
72
6
73
3
74
0
42
0.000000001
43
0.0000000001
44
0.0000000001
40
0
40
0
40
0
40
1
40
1
40
1
10
126.01186395213446
20
-239.22058765701962
30
0
10
127.02482820079169
20
-238.25537626557065
30
0
10
127.02482820079169
20
-235.99753205589963
30
0
0
LINE
5
210
100
AcDbEntity
8
0
100
AcDbLine
10
112.52959847972235
20
-231.14760105423642
30
0
11
112.52959847972235
21
-232.21172039322568
31
0
0
SPLINE
5
211
100
AcDbEntity
8
0
100
AcDbSpline
70
0
71
2
72
6
73
3
74
0
42
0.000000001
43
0.0000000001
44
0.0000000001
40
0
40
0
40
0
40
1
40
1
40
1
10
112.52959847972235
20
-232.21172039322568
30
0
10
113.37544084117255
20
-230.98389093689633
30
0
10
114.82837319896063
20
-230.98389093689633
30
0
0
SPLINE
5
212
100
AcDbEntity
8
0
100
AcDbSpline
70
0
71
2
72
6
73
3
74
0
42
0.000000001
43
0.0000000001
44
0.0000000001
40
0
40
0
40
0
40
1
40
1
40
1
10
114.82837319896063
20
-230.98389093689633
30
0
10
115.46957135722479
20
-230.98389093689633
30
0
10
116.02550626323065
20
-231.22945730499936
30
0
0
SPLINE
5
213
100
AcDbEntity
8
0
100
AcDbSpline
70
0
71
2
72
6
73
3
74
0
42
0.000000001
43
0.0000000001
44
0.0000000001
40
0
40
0
40
0
40
1
40
1
40
1
10
116.02550626323065
20
-231.22945730499936
30
0
10
116.58144116923651
20
-231.47502367310238
30
0
10
116.85088277385077
20
-231.84678261093808
30
0
0
SPLINE
5
214
100
AcDbEntity
8
0
100
AcDbSpline
70
0
71
2
72
6
73
3
74
0
42
0.000000001
43
0.0000000001
44
0.0000000001
40
0
40
0
40
0
40
1
40
1
40
1
10
116.85088277385077
20
-231.84678261093808
30
0
10
117.12032437846503
20
-232.21854154877377
30
0
10
117.22946286723456
20
-232.75742356590939
30
0
0
SPLINE
5
215
100
AcDbEntity
8
0
100
AcDbSpline
70
0
71
2
72
6
73
3
74
0
42
0.000000001
43
0.0000000001
44
0.0000000001
40
0
40
0
40
0
40
1
40
1
40
1
10
117.22946286723456
20
-232.75742356590939
30
0
10
117.3044979624494
20
-233.11895196251584
30
0
10
117.3044979624494
20
-233.90339915566159
30
0
0
LINE
5
216
100
AcDbEntity
8
0
100
AcDbLine
10
117.3044979624494
20
-233.90339915566159
30
0
11
117.3044979624494
21
-238.39180295281125
31
0
0
LINE
5
217
100
AcDbEntity
8
0
100
AcDbLine
10
117.3044979624494
20
-238.39180295281125
30
0
11
116.07666612193427
21
-238.39180295281125
31
0
0
LINE
5
218
100
AcDbEntity
8
0
100
AcDbLine
10
116.07666612193427
20
-238.39180295281125
30
0
11
116.07666612193427
21
-234.37406723313046
31
0
0
SPLINE
5
219
100
AcDbEntity
8
0
100
AcDbSpline
70
0
71
2
72
6
73
3
74
0
42
0.000000001
43
0.0000000001
44
0.0000000001
40
0
40
0
40
0
40
1
40
1
40
1
10
116.07666612193427
20
-234.37406723313046
30
0
10
116.07666612193427
20
-233.41226641945553
30
0
10
116.00163102671942
20
-233.07802383713437
30
0
0
SPLINE
5
220
100
AcDbEntity
8
0
100
AcDbSpline
70
0
71
2
72
6
73
3
74
0
42
0.000000001
43
0.0000000001
44
0.0000000001
40
0
40
0
40
0
40
1
40
1
40
1
10
116.00163102671942
20
-233.07802383713437
30
0
10
115.885668998216
20
-232.59371225647641
30
0
10
115.51050305888495
20
-232.31745068840695
30
0
0
SPLINE
5
221
100
AcDbEntity
8
0
100
AcDbSpline
70
0
71
2
72
6
73
3
74
0
42
0.000000001
43
0.0000000001
44
0.0000000001
40
0
40
0
40
0
40
1
40
1
40
1
10
115.51050305888495
20
-232.31745068840695
30
0
10
115.13533235118231
20
-232.04118912033749
30
0
10
114.58280683085761
20
-232.04118912033749
30
0
0
SPLINE
5
222
100
AcDbEntity
8
0
100
AcDbSpline
70
0
71
2
72
6
73
3
74
0
42
0.000000001
43
0.0000000001
44
0.0000000001
40
0
40
0
40
0
40
1
40
1
40
1
10
114.58280683085761
20
-232.04118912033749
30
0
10
114.0302813105329
20
-232.04118912033749
30
0
10
113.54597211406073
20
-232.32427184395505
30
0
0
SPLINE
5
223
100
AcDbEntity
8
0
100
AcDbSpline
70
0
71
2
72
6
73
3
74
0
42
0.000000001
43
0.0000000001
44
0.0000000001
40
0
40
0
40
0
40
1
40
1
40
1
10
113.54597211406073
20
-232.32427184395505
30
0
10
113.06165814921698
20
-232.6073557596655
30
0
10
112.86043286845526
20
-233.0950779180975
30
0
0
SPLINE
5
224
100
AcDbEntity
8
0
100
AcDbSpline
70
0
71
2
72
6
73
3
74
0
42
0.000000001
43
0.0000000001
44
0.0000000001
40
0
40
0
40
0
40
1
40
1
40
1
10
112.86043286845526
20
-233.0950779180975
30
0
10
112.65920281932196
20
-233.58279888443661
30
0
10
112.65920281932196
20
-234.51049272827817
30
0
0
LINE
5
225
100
AcDbEntity
8
0
100
AcDbLine
10
112.65920281932196
20
-234.51049272827817
30
0
11
112.65920281932196
21
-238.39180295281125
31
0
0
LINE
5
226
100
AcDbEntity
8
0
100
AcDbLine
10
112.65920281932196
20
-238.39180295281125
30
0
11
111.43137574717841
21
-238.39180295281125
31
0
0
LINE
5
227
100
AcDbEntity
8
0
100
AcDbLine
10
111.43137574717841
20
-238.39180295281125
30
0
11
111.43137574717841
21
-231.14760105423642
31
0
0
LINE
5
228
100
AcDbEntity
8
0
100
AcDbLine
10
111.43137574717841
20
-231.14760105423642
30
0
11
112.52959847972235
21
-231.14760105423642
31
0
0
LINE
5
229
100
AcDbEntity
8
0
100
AcDbLine
10
106.82700753733954
20
-232.24582855515195
30
0
11
106.64965272471747
21
-231.16124336533261
31
0
0
SPLINE
5
230
100
AcDbEntity
8
0
100
AcDbSpline
70
0
71
2
72
6
73
3
74
0
42
0.000000001
43
0.0000000001
44
0.0000000001
40
0
40
0
40
0
40
1
40
1
40
1
10
106.64965272471747
20
-231.16124336533261
30
0
10
107.16807008311591
20
-231.05210249237729
30
0
10
107.57734895274481
20
-231.05210249237729
30
0
0
SPLINE
5
231
100
AcDbEntity
8
0
100
AcDbSpline
70
0
71
2
72
6
73
3
74
0
42
0.000000001
43
0.0000000001
44
0.0000000001
40
0
40
0
40
0
40
1
40
1
40
1
10
107.57734895274481
20
-231.05210249237729
30
0
10
108.24583173320136
20
-231.05210249237729
30
0
10
108.61418366954169
20
-231.26356308273984
30
0
0
SPLINE
5
232
100
AcDbEntity
8
0
100
AcDbSpline
70
0
71
2
72
6
73
3
74
0
42
0.000000001
43
0.0000000001
44
0.0000000001
40
0
40
0
40
0
40
1
40
1
40
1
10
108.61418366954169
20
-231.26356308273984
30
0
10
108.98253083751044
20
-231.47502367310238
30
0
10
109.13260102794013
20
-231.8194979887457
30
0
0
SPLINE
5
233
100
AcDbEntity
8
0
100
AcDbSpline
70
0
71
2
72
6
73
3
74
0
42
0.000000001
43
0.0000000001
44
0.0000000001
40
0
40
0
40
0
40
1
40
1
40
1
10
109.13260102794013
20
-231.8194979887457
30
0
10
109.28266644999823
20
-232.16397230438901
30
0
10
109.28266644999823
20
-233.26901976875973
30
0
0
LINE
5
234
100
AcDbEntity
8
0
100
AcDbLine
10
109.28266644999823
20
-233.26901976875973
30
0
11
109.28266644999823
21
-237.43682329468442
31
0
0
LINE
5
235
100
AcDbEntity
8
0
100
AcDbLine
10
109.28266644999823
20
-237.43682329468442
30
0
11
110.18307805583319
21
-237.43682329468442
31
0
0
LINE
5
236
100
AcDbEntity
8
0
100
AcDbLine
10
110.18307805583319
20
-237.43682329468442
30
0
11
110.18307805583319
21
-238.39180295281125
31
0
0
LINE
5
237
100
AcDbEntity
8
0
100
AcDbLine
10
110.18307805583319
20
-238.39180295281125
30
0
11
109.28266644999823
21
-238.39180295281125
31
0
0
LINE
5
238
100
AcDbEntity
8
0
100
AcDbLine
10
109.28266644999823
20
-238.39180295281125
30
0
11
109.28266644999823
21
-240.18580024056149
31
0
0
LINE
5
239
100
AcDbEntity
8
0
100
AcDbLine
10
109.28266644999823
20
-240.18580024056149
30
0
11
108.06165814921698
21
-240.92249815277768
31
0
0
LINE
5
240
100
AcDbEntity
8
0
100
AcDbLine
10
108.06165814921698
20
-240.92249815277768
30
0
11
108.06165814921698
21
-238.39180295281125
31
0
0
LINE
5
241
100
AcDbEntity
8
0
100
AcDbLine
10
108.06165814921698
20
-238.39180295281125
30
0
11
106.82700753733954
21
-238.39180295281125
31
0
0
LINE
5
242
100
AcDbEntity
8
0
100
AcDbLine
10
106.82700753733954
20
-238.39180295281125
30
0
11
106.82700753733954
21
-237.43682329468442
31
0
0
LINE
5
243
100
AcDbEntity
8
0
100
AcDbLine
10
106.82700753733954
20
-237.43682329468442
30
0
11
108.06165814921698
21
-237.43682329468442
31
0
0
LINE
5
244
100
AcDbEntity
8
0
100
AcDbLine
10
108.06165814921698
20
-237.43682329468442
30
0
11
108.06165814921698
21
-233.20080702118588
31
0
0
SPLINE
5
245
100
AcDbEntity
8
0
100
AcDbSpline
70
0
71
2
72
6
73
3
74
0
42
0.000000001
43
0.0000000001
44
0.0000000001
40
0
40
0
40
0
40
1
40
1
40
1
10
108.06165814921698
20
-233.20080702118588
30
0
10
108.06165814921698
20
-232.67556850723935
30
0
10
107.99685597941718
20
-232.52550070099545
30
0
0
SPLINE
5
246
100
AcDbEntity
8
0
100
AcDbSpline
70
0
71
2
72
6
73
3
74
0
42
0.000000001
43
0.0000000001
44
0.0000000001
40
0
40
0
40
0
40
1
40
1
40
1
10
107.99685597941718
20
-232.52550070099545
30
0
10
107.93205380961737
20
-232.37543170265866
30
0
10
107.78539777324042
20
-232.28675548844052
30
0
0
SPLINE
5
247
100
AcDbEntity
8
0
100
AcDbSpline
70
0
71
2
72
6
73
3
74
0
42
0.000000001
43
0.0000000001
44
0.0000000001
40
0
40
0
40
0
40
1
40
1
40
1
10
107.78539777324042
20
-232.28675548844052
30
0
10
107.63874173686347
20
-232.19807808212948
30
0
10
107.36588597819647
20
-232.19807808212948
30
0
0
SPLINE
5
248
100
AcDbEntity
8
0
100
AcDbSpline
70
0
71
2
72
6
73
3
74
0
42
0.000000001
43
0.0000000001
44
0.0000000001
40
0
40
0
40
0
40
1
40
1
40
1
10
107.36588597819647
20
-232.19807808212948
30
0
10
107.1612513117536
20
-232.19807808212948
30
0
10
106.82700753733954
20
-232.24582855515195
30
0
0
LINE
5
249
100
AcDbEntity
8
0
100
AcDbLine
10
105.62646508738837
20
-228.37133829407406
30
0
11
105.62646508738837
21
-238.39180295281125
31
0
0
LINE
5
250
100
AcDbEntity
8
0
100
AcDbLine
10
105.62646508738837
20
-238.39180295281125
30
0
11
104.50777650401434
21
-238.39180295281125
31
0
0
LINE
5
251
100
AcDbEntity
8
0
100
AcDbLine
10
104.50777650401434
20
-238.39180295281125
30
0
11
104.50777650401434
21
-237.45046560578061
31
0
0
SPLINE
5
252
100
AcDbEntity
8
0
100
AcDbSpline
70
0
71
2
72
6
73
3
74
0
42
0.000000001
43
0.0000000001
44
0.0000000001
40
0
40
0
40
0
40
1
40
1
40
1
10
104.50777650401434
20
-237.45046560578061
30
0
10
104.11213994548163
20
-238.00298993401242
30
0
10
103.61418843791327
20
-238.27925150208188
30
0
0
SPLINE
5
253
100
AcDbEntity
8
0
100
AcDbSpline
70
0
71
2
72
6
73
3
74
0
42
0.000000001
43
0.0000000001
44
0.0000000001
40
0
40
0
40
0
40
1
40
1
40
1
10
103.61418843791327
20
-238.27925150208188
30
0
10
103.11623216197333
20
-238.55551426224423
30
0
10
102.40681767985663
20
-238.55551426224423
30
0
0
SPLINE
5
254
100
AcDbEntity
8
0
100
AcDbSpline
70
0
71
2
72
6
73
3
74
0
42
0.000000001
43
0.0000000001
44
0.0000000001
40
0
40
0
40
0
40
1
40
1
40
1
10
102.40681767985663
20
-238.55551426224423
30
0
10
101.47912622020087
20
-238.55551426224423
30
0
10
100.76971173808417
20
-238.07802383713437
30
0
0
SPLINE
5
255
100
AcDbEntity
8
0
100
AcDbSpline
70
0
71
2
72
6
73
3
74
0
42
0.000000001
43
0.0000000001
44
0.0000000001
40
0
40
0
40
0
40
1
40
1
40
1
10
100.76971173808417
20
-238.07802383713437
30
0
10
100.06029725596747
20
-237.6005346041174
30
0
10
99.698768859361024
20
-236.73082058243466
30
0
0
SPLINE
5
256
100
AcDbEntity
8
0
100
AcDbSpline
70
0
71
2
72
6
73
3
74
0
42
0.000000001
43
0.0000000001
44
0.0000000001
40
0
40
0
40
0
40
1
40
1
40
1
10
99.698768859361024
20
-236.73082058243466
30
0
10
99.337245231126161
20
-235.86110775284482
30
0
10
99.337245231126161
20
-234.82427184395505
30
0
0
SPLINE
5
257
100
AcDbEntity
8
0
100
AcDbSpline
70
0
71
2
72
6
73
3
74
0
42
0.000000001
43
0.0000000001
44
0.0000000001
40
0
40
0
40
0
40
1
40
1
40
1
10
99.337245231126161
20
-234.82427184395505
30
0
10
99.337245231126161
20
-233.71240322403622
30
0
10
99.736286406968446
20
-232.8222257357092
30
0
0
SPLINE
5
258
100
AcDbEntity
8
0
100
AcDbSpline
70
0
71
2
72
6
73
3
74
0
42
0.000000001
43
0.0000000001
44
0.0000000001
40
0
40
0
40
0
40
1
40
1
40
1
10
99.736286406968446
20
-232.8222257357092
30
0
10
100.13533235118231
20
-231.93204824738217
30
0
10
100.89590669200263
20
-231.45796959213925
30
0
0
SPLINE
5
259
100
AcDbEntity
8
0
100
AcDbSpline
70
0
71
2
72
6
73
3
74
0
42
0.000000001
43
0.0000000001
44
0.0000000001
40
0
40
0
40
0
40
1
40
1
40
1
10
100.89590669200263
20
-231.45796959213925
30
0
10
101.65647626445136
20
-230.98389093689633
30
0
10
102.49549508616767
20
-230.98389093689633
30
0
0
SPLINE
5
260
100
AcDbEntity
8
0
100
AcDbSpline
70
0
71
2
72
6
73
3
74
0
42
0.000000001
43
0.0000000001
44
0.0000000001
40
0
40
0
40
0
40
1
40
1
40
1
10
102.49549508616767
20
-230.98389093689633
30
0
10
103.10941339061102
20
-230.98389093689633
30
0
10
103.59713197276434
20
-231.24309961609555
30
0
0
SPLINE
5
261
100
AcDbEntity
8
0
100
AcDbSpline
70
0
71
2
72
6
73
3
74
0
42
0.000000001
43
0.0000000001
44
0.0000000001
40
0
40
0
40
0
40
1
40
1
40
1
10
103.59713197276434
20
-231.24309961609555
30
0
10
104.08485532328925
20
-231.50230829529477
30
0
10
104.39863324687323
20
-231.89794246964169
30
0
0
LINE
5
262
100
AcDbEntity
8
0
100
AcDbLine
10
104.39863324687323
20
-231.89794246964169
30
0
11
104.39863324687323
21
-228.37133829407406
31
0
0
LINE
5
263
100
AcDbEntity
8
0
100
AcDbLine
10
104.39863324687323
20
-228.37133829407406
30
0
11
105.62646508738837
21
-228.37133829407406
31
0
0
SPLINE
5
264
100
AcDbEntity
8
0
100
AcDbSpline
70
0
71
2
72
6
73
3
74
0
42
0.000000001
43
0.0000000001
44
0.0000000001
40
0
40
0
40
0
40
1
40
1
40
1
10
104.51459527537665
20
-234.72877447418881
30
0
10
104.51459527537665
20
-233.33041136078549
30
0
10
103.94842744395575
20
-232.66192619614316
30
0
0
SPLINE
5
265
100
AcDbEntity
8
0
100
AcDbSpline
70
0
71
2
72
6
73
3
74
0
42
0.000000001
43
0.0000000001
44
0.0000000001
40
0
40
0
40
0
40
1
40
1
40
1
10
103.94842744395575
20
-232.66192619614316
30
0
10
103.38226438090643
20
-231.99344103150082
30
0
10
102.5773537211164
20
-231.99344103150082
30
0
0
SPLINE
5
266
100
AcDbEntity
8
0
100
AcDbSpline
70
0
71
2
72
6
73
3
74
0
42
0.000000001
43
0.0000000001
44
0.0000000001
40
0
40
0
40
0
40
1
40
1
40
1
10
102.5773537211164
20
-231.99344103150082
30
0
10
101.75879598185858
20
-231.99344103150082
30
0
10
101.17557645366034
20
-232.68580024056149
30
0
0
SPLINE
5
267
100
AcDbEntity
8
0
100
AcDbSpline
70
0
71
2
72
6
73
3
74
0
42
0.000000001
43
0.0000000001
44
0.0000000001
40
0
40
0
40
0
40
1
40
1
40
1
10
101.17557645366034
20
-232.68580024056149
30
0
10
100.5923569254621
20
-233.37816064171506
30
0
10
100.5923569254621
20
-234.83109419159604
30
0
0
SPLINE
5
268
100
AcDbEntity
8
0
100
AcDbSpline
70
0
71
2
72
6
73
3
74
0
42
0.000000001
43
0.0000000001
44
0.0000000001
40
0
40
0
40
0
40
1
40
1
40
1
10
100.5923569254621
20
-234.83109419159604
30
0
10
100.5923569254621
20
-236.21581380181027
30
0
10
101.16193414256415
20
-236.90476362518979
30
0
0
SPLINE
5
269
100
AcDbEntity
8
0
100
AcDbSpline
70
0
71
2
72
6
73
3
74
0
42
0.000000001
43
0.0000000001
44
0.0000000001
40
0
40
0
40
0
40
1
40
1
40
1
10
101.16193414256415
20
-236.90476362518979
30
0
10
101.7315113596662
20
-237.5937134485693
30
0
10
102.52277970836005
20
-237.5937134485693
30
0
0
SPLINE
5
270
100
AcDbEntity
8
0
100
AcDbSpline
70
0
71
2
72
6
73
3
74
0
42
0.000000001
43
0.0000000001
44
0.0000000001
40
0
40
0
40
0
40
1
40
1
40
1
10
102.52277970836005
20
-237.5937134485693
30
0
10
103.30722928569159
20
-237.5937134485693
30
0
10
103.91091466471991
20
-236.86042492203427
30
0
0
SPLINE
5
271
100
AcDbEntity
8
0
100
AcDbSpline
70
0
71
2
72
6
73
3
74
0
42
0.000000001
43
0.0000000001
44
0.0000000001
40
0
40
0
40
0
40
1
40
1
40
1
10
103.91091466471991
20
-236.86042492203427
30
0
10
104.51459527537665
20
-236.12713758759213
30
0
10
104.51459527537665
20
-234.72877447418881
30
0
0
LINE
5
272
100
AcDbEntity
8
0
100
AcDbLine
10
93.109408622239442
20
-231.14760105423642
30
0
11
93.109408622239442
21
-232.21172039322568
31
0
0
SPLINE
5
273
100
AcDbEntity
8
0
100
AcDbSpline
70
0
71
2
72
6
73
3
74
0
42
0.000000001
43
0.0000000001
44
0.0000000001
40
0
40
0
40
0
40
1
40
1
40
1
10
93.109408622239442
20
-232.21172039322568
30
0
10
93.955250983689638
20
-230.98389093689633
30
0
10
95.408183341477724
20
-230.98389093689633
30
0
0
SPLINE
5
274
100
AcDbEntity
8
0
100
AcDbSpline
70
0
71
2
72
6
73
3
74
0
42
0.000000001
43
0.0000000001
44
0.0000000001
40
0
40
0
40
0
40
1
40
1
40
1
10
95.408183341477724
20
-230.98389093689633
30
0
10
96.049381499741884
20
-230.98389093689633
30
0
10
96.605316405747743
20
-231.22945730499936
30
0
0
SPLINE
5
275
100
AcDbEntity
8
0
100
AcDbSpline
70
0
71
2
72
6
73
3
74
0
42
0.000000001
43
0.0000000001
44
0.0000000001
40
0
40
0
40
0
40
1
40
1
40
1
10
96.605316405747743
20
-231.22945730499936
30
0
10
97.161251311753603
20
-231.47502367310238
30
0
10
97.43069291636786
20
-231.84678261093808
30
0
0
SPLINE
5
276
100
AcDbEntity
8
0
100
AcDbSpline
70
0
71
2
72
6
73
3
74
0
42
0.000000001
43
0.0000000001
44
0.0000000001
40
0
40
0
40
0
40
1
40
1
40
1
10
97.43069291636786
20
-231.84678261093808
30
0
10
97.700134520982118
20
-232.21854154877377
30
0
10
97.809273009751649
20
-232.75742356590939
30
0
0
SPLINE
5
277
100
AcDbEntity
8
0
100
AcDbSpline
70
0
71
2
72
6
73
3
74
0
42
0.000000001
43
0.0000000001
44
0.0000000001
40
0
40
0
40
0
40
1
40
1
40
1
10
97.809273009751649
20
-232.75742356590939
30
0
10
97.884308104966493
20
-233.11895196251584
30
0
10
97.884308104966493
20
-233.90339915566159
30
0
0
LINE
5
278
100
AcDbEntity
8
0
100
AcDbLine
10
97.884308104966493
20
-233.90339915566159
30
0
11
97.884308104966493
21
-238.39180295281125
31
0
0
LINE
5
279
100
AcDbEntity
8
0
100
AcDbLine
10
97.884308104966493
20
-238.39180295281125
30
0
11
96.656476264451356
21
-238.39180295281125
31
0
0
LINE
5
280
100
AcDbEntity
8
0
100
AcDbLine
10
96.656476264451356
20
-238.39180295281125
30
0
11
96.656476264451356
21
-234.37406723313046
31
0
0
SPLINE
5
281
100
AcDbEntity
8
0
100
AcDbSpline
70
0
71
2
72
6
73
3
74
0
42
0.000000001
43
0.0000000001
44
0.0000000001
40
0
40
0
40
0
40
1
40
1
40
1
10
96.656476264451356
20
-234.37406723313046
30
0
10
96.656476264451356
20
-233.41226641945553
30
0
10
96.581441169236513
20
-233.07802383713437
30
0
0
SPLINE
5
282
100
AcDbEntity
8
0
100
AcDbSpline
70
0
71
2
72
6
73
3
74
0
42
0.000000001
43
0.0000000001
44
0.0000000001
40
0
40
0
40
0
40
1
40
1
40
1
10
96.581441169236513
20
-233.07802383713437
30
0
10
96.465479140733095
20
-232.59371225647641
30
0
10
96.090308433030458
20
-232.31745068840695
30
0
0
SPLINE
5
283
100
AcDbEntity
8
0
100
AcDbSpline
70
0
71
2
72
6
73
3
74
0
42
0.000000001
43
0.0000000001
44
0.0000000001
40
0
40
0
40
0
40
1
40
1
40
1
10
96.090308433030458
20
-232.31745068840695
30
0
10
95.715142493699403
20
-232.04118912033749
30
0
10
95.162616973374696
20
-232.04118912033749
30
0
0
SPLINE
5
284
100
AcDbEntity
8
0
100
AcDbSpline
70
0
71
2
72
6
73
3
74
0
42
0.000000001
43
0.0000000001
44
0.0000000001
40
0
40
0
40
0
40
1
40
1
40
1
10
95.162616973374696
20
-232.04118912033749
30
0
10
94.610091453049989
20
-232.04118912033749
30
0
10
94.125782256577821
20
-232.32427184395505
30
0
0
SPLINE
5
285
100
AcDbEntity
8
0
100
AcDbSpline
70
0
71
2
72
6
73
3
74
0
42
0.000000001
43
0.0000000001
44
0.0000000001
40
0
40
0
40
0
40
1
40
1
40
1
10
94.125782256577821
20
-232.32427184395505
30
0
10
93.641468291734071
20
-232.6073557596655
30
0
10
93.440243010972353
20
-233.0950779180975
30
0
0
SPLINE
5
286
100
AcDbEntity
8
0
100
AcDbSpline
70
0
71
2
72
6
73
3
74
0
42
0.000000001
43
0.0000000001
44
0.0000000001
40
0
40
0
40
0
40
1
40
1
40
1
10
93.440243010972353
20
-233.0950779180975
30
0
10
93.239012961839052
20
-233.58279888443661
30
0
10
93.239012961839052
20
-234.51049272827817
30
0
0
LINE
5
287
100
AcDbEntity
8
0
100
AcDbLine
10
93.239012961839052
20
-234.51049272827817
30
0
11
93.239012961839052
21
-238.39180295281125
31
0
0
LINE
5
288
100
AcDbEntity
8
0
100
AcDbLine
10
93.239012961839052
20
-238.39180295281125
30
0
11
92.011190658067079
21
-238.39180295281125
31
0
0
LINE
5
289
100
AcDbEntity
8
0
100
AcDbLine
10
92.011190658067079
20
-238.39180295281125
30
0
11
92.011190658067079
21
-231.14760105423642
31
0
0
LINE
5
290
100
AcDbEntity
8
0
100
AcDbLine
10
92.011190658067079
20
-231.14760105423642
30
0
11
93.109408622239442
21
-231.14760105423642
31
0
0
LINE
5
291
100
AcDbEntity
8
0
100
AcDbLine
10
87.406812911485048
20
-232.24582855515195
30
0
11
87.229467635606142
21
-231.16124336533261
31
0
0
SPLINE
5
292
100
AcDbEntity
8
0
100
AcDbSpline
70
0
71
2
72
6
73
3
74
0
42
0.000000001
43
0.0000000001
44
0.0000000001
40
0
40
0
40
0
40
1
40
1
40
1
10
87.229467635606142
20
-231.16124336533261
30
0
10
87.747884994004579
20
-231.05210249237729
30
0
10
88.157163863633485
20
-231.05210249237729
30
0
0
SPLINE
5
293
100
AcDbEntity
8
0
100
AcDbSpline
70
0
71
2
72
6
73
3
74
0
42
0.000000001
43
0.0000000001
44
0.0000000001
40
0
40
0
40
0
40
1
40
1
40
1
10
88.157163863633485
20
-231.05210249237729
30
0
10
88.825641875718446
20
-231.05210249237729
30
0
10
89.19399858043036
20
-231.26356308273984
30
0
0
SPLINE
5
294
100
AcDbEntity
8
0
100
AcDbSpline
70
0
71
2
72
6
73
3
74
0
42
0.000000001
43
0.0000000001
44
0.0000000001
40
0
40
0
40
0
40
1
40
1
40
1
10
89.19399858043036
20
-231.26356308273984
30
0
10
89.56234574839911
20
-231.47502367310238
30
0
10
89.712415938828798
20
-231.8194979887457
30
0
0
SPLINE
5
295
100
AcDbEntity
8
0
100
AcDbSpline
70
0
71
2
72
6
73
3
74
0
42
0.000000001
43
0.0000000001
44
0.0000000001
40
0
40
0
40
0
40
1
40
1
40
1
10
89.712415938828798
20
-231.8194979887457
30
0
10
89.862476592515321
20
-232.16397230438901
30
0
10
89.862476592515321
20
-233.26901976875973
30
0
0
LINE
5
296
100
AcDbEntity
8
0
100
AcDbLine
10
89.862476592515321
20
-233.26901976875973
30
0
11
89.862476592515321
21
-237.43682329468442
31
0
0
LINE
5
297
100
AcDbEntity
8
0
100
AcDbLine
10
89.862476592515321
20
-237.43682329468442
30
0
11
90.762888198350282
21
-237.43682329468442
31
0
0
LINE
5
298
100
AcDbEntity
8
0
100
AcDbLine
10
90.762888198350282
20
-237.43682329468442
30
0
11
90.762888198350282
21
-238.39180295281125
31
0
0
LINE
5
299
100
AcDbEntity
8
0
100
AcDbLine
10
90.762888198350282
20
-238.39180295281125
30
0
11
89.862476592515321
21
-238.39180295281125
31
0
0
LINE
5
300
100
AcDbEntity
8
0
100
AcDbLine
10
89.862476592515321
20
-238.39180295281125
30
0
11
89.862476592515321
21
-240.18580024056149
31
0
0
LINE
5
301
100
AcDbEntity
8
0
100
AcDbLine
10
89.862476592515321
20
-240.18580024056149
30
0
11
88.641477828477235
21
-240.92249815277768
31
0
0
LINE
5
302
100
AcDbEntity
8
0
100
AcDbLine
10
88.641477828477235
20
-240.92249815277768
30
0
11
88.641477828477235
21
-238.39180295281125
31
0
0
LINE
5
303
100
AcDbEntity
8
0
100
AcDbLine
10
88.641477828477235
20
-238.39180295281125
30
0
11
87.406812911485048
21
-238.39180295281125
31
0
0
LINE
5
304
100
AcDbEntity
8
0
100
AcDbLine
10
87.406812911485048
20
-238.39180295281125
30
0
11
87.406812911485048
21
-237.43682329468442
31
0
0
LINE
5
305
100
AcDbEntity
8
0
100
AcDbLine
10
87.406812911485048
20
-237.43682329468442
30
0
11
88.641477828477235
21
-237.43682329468442
31
0
0
LINE
5
306
100
AcDbEntity
8
0
100
AcDbLine
10
88.641477828477235
20
-237.43682329468442
30
0
11
88.641477828477235
21
-233.20080702118588
31
0
0
SPLINE
5
307
100
AcDbEntity
8
0
100
AcDbSpline
70
0
71
2
72
6
73
3
74
0
42
0.000000001
43
0.0000000001
44
0.0000000001
40
0
40
0
40
0
40
1
40
1
40
1
10
88.641477828477235
20
-233.20080702118588
30
0
10
88.641477828477235
20
-232.67556850723935
30
0
10
88.576666121934267
20
-232.52550070099545
30
0
0
SPLINE
5
308
100
AcDbEntity
8
0
100
AcDbSpline
70
0
71
2
72
6
73
3
74
0
42
0.000000001
43
0.0000000001
44
0.0000000001
40
0
40
0
40
0
40
1
40
1
40
1
10
88.576666121934267
20
-232.52550070099545
30
0
10
88.511873488877626
20
-232.37543170265866
30
0
10
88.365198379014345
20
-232.28675548844052
30
0
0
SPLINE
5
309
100
AcDbEntity
8
0
100
AcDbSpline
70
0
71
2
72
6
73
3
74
0
42
0.000000001
43
0.0000000001
44
0.0000000001
40
0
40
0
40
0
40
1
40
1
40
1
10
88.365198379014345
20
-232.28675548844052
30
0
10
88.218542342637392
20
-232.19807808212948
30
0
10
87.945696120713563
20
-232.19807808212948
30
0
0
SPLINE
5
310
100
AcDbEntity
8
0
100
AcDbSpline
70
0
71
2
72
6
73
3
74
0
42
0.000000001
43
0.0000000001
44
0.0000000001
40
0
40
0
40
0
40
1
40
1
40
1
10
87.945696120713563
20
-232.19807808212948
30
0
10
87.74105668589911
20
-232.19807808212948
30
0
10
87.406812911485048
20
-232.24582855515195
30
0
0
LINE
5
311
100
AcDbEntity
8
0
100
AcDbLine
10
283.47498839774988
20
-66.192989220170816
30
0
11
282.15165918746851
21
-65.858746637849649
31
0
0
SPLINE
5
312
100
AcDbEntity
8
0
100
AcDbSpline
70
0
71
2
72
6
73
3
74
0
42
0.000000001
43
0.0000000001
44
0.0000000001
40
0
40
0
40
0
40
1
40
1
40
1
10
282.15165918746851
20
-65.858746637849649
30
0
10
282.56775802055262
20
-64.228460659532388
30
0
10
283.64893144050501
20
-63.372389544992281
30
0
0
SPLINE
5
313
100
AcDbEntity
8
0
100
AcDbSpline
70
0
71
2
72
6
73
3
74
0
42
0.000000001
43
0.0000000001
44
0.0000000001
40
0
40
0
40
0
40
1
40
1
40
1
10
283.64893144050501
20
-63.372389544992281
30
0
10
284.7301048604574
20
-62.516318430452181
30
0
10
286.29217809120081
20
-62.516318430452181
30
0
0
SPLINE
5
314
100
AcDbEntity
8
0
100
AcDbSpline
70
0
71
2
72
6
73
3
74
0
42
0.000000001
43
0.0000000001
44
0.0000000001
40
0
40
0
40
0
40
1
40
1
40
1
10
286.29217809120081
20
-62.516318430452181
30
0
10
287.90882175842188
20
-62.516318430452181
30
0
10
288.92178243080042
20
-63.174572457818819
30
0
0
SPLINE
5
315
100
AcDbEntity
8
0
100
AcDbSpline
70
0
71
2
72
6
73
3
74
0
42
0.000000001
43
0.0000000001
44
0.0000000001
40
0
40
0
40
0
40
1
40
1
40
1
10
288.92178243080042
20
-63.174572457818819
30
0
10
289.93474250713251
20
-63.832826485185457
30
0
10
290.46339219489954
20
-65.081120600251992
30
0
0
SPLINE
5
316
100
AcDbEntity
8
0
100
AcDbSpline
70
0
71
2
72
6
73
3
74
0
42
0.000000001
43
0.0000000001
44
0.0000000001
40
0
40
0
40
0
40
1
40
1
40
1
10
290.46339219489954
20
-65.081120600251992
30
0
10
290.99204128662012
20
-66.329415311364968
30
0
10
290.99204128662012
20
-67.761884798555215
30
0
0
SPLINE
5
317
100
AcDbEntity
8
0
100
AcDbSpline
70
0
71
2
72
6
73
3
74
0
42
0.000000001
43
0.0000000001
44
0.0000000001
40
0
40
0
40
0
40
1
40
1
40
1
10
290.99204128662012
20
-67.761884798555215
30
0
10
290.99204128662012
20
-69.323958029298623
30
0
10
290.39517944732569
20
-70.486987103967508
30
0
0
SPLINE
5
318
100
AcDbEntity
8
0
100
AcDbSpline
70
0
71
2
72
6
73
3
74
0
42
0.000000001
43
0.0000000001
44
0.0000000001
40
0
40
0
40
0
40
1
40
1
40
1
10
290.39517944732569
20
-70.486987103967508
30
0
10
289.79831701198481
20
-71.650015582589944
30
0
10
288.69667952934168
20
-72.253699173478921
30
0
0
SPLINE
5
319
100
AcDbEntity
8
0
100
AcDbSpline
70
0
71
2
72
6
73
3
74
0
42
0.000000001
43
0.0000000001
44
0.0000000001
40
0
40
0
40
0
40
1
40
1
40
1
10
288.69667952934168
20
-72.253699173478921
30
0
10
287.595042642745
20
-72.85738216832145
30
0
10
286.27171402851008
20
-72.85738216832145
30
0
0
SPLINE
5
320
100
AcDbEntity
8
0
100
AcDbSpline
70
0
71
2
72
6
73
3
74
0
42
0.000000001
43
0.0000000001
44
0.0000000001
40
0
40
0
40
0
40
1
40
1
40
1
10
286.27171402851008
20
-72.85738216832145
30
0
10
284.77103179374598
20
-72.85738216832145
30
0
10
283.74783938804529
20
-72.093399037866433
30
0
0
SPLINE
5
321
100
AcDbEntity
8
0
100
AcDbSpline
70
0
71
2
72
6
73
3
74
0
42
0.000000001
43
0.0000000001
44
0.0000000001
40
0
40
0
40
0
40
1
40
1
40
1
10
283.74783938804529
20
-72.093399037866433
30
0
10
282.72464698234461
20
-71.329415311364968
30
0
10
282.32219165244959
20
-69.944695105104287
30
0
0
LINE
5
322
100
AcDbEntity
8
0
100
AcDbLine
10
282.32219165244959
20
-69.944695105104287
30
0
11
283.62505620399378
21
-69.637737144975503
31
0
0
SPLINE
5
323
100
AcDbEntity
8
0
100
AcDbSpline
70
0
71
2
72
6
73
3
74
0
42
0.000000001
43
0.0000000001
44
0.0000000001
40
0
40
0
40
0
40
1
40
1
40
1
10
283.62505620399378
20
-69.637737144975503
30
0
10
283.97294228950403
20
-70.729142298250039
30
0
10
284.63460629859827
20
-71.22709619000419
30
0
0
SPLINE
5
324
100
AcDbEntity
8
0
100
AcDbSpline
70
0
71
2
72
6
73
3
74
0
42
0.000000001
43
0.0000000001
44
0.0000000001
40
0
40
0
40
0
40
1
40
1
40
1
10
284.63460629859827
20
-71.22709619000419
30
0
10
285.29627030769251
20
-71.725049485711892
30
0
10
286.29899924674891
20
-71.725049485711892
30
0
0
SPLINE
5
325
100
AcDbEntity
8
0
100
AcDbSpline
70
0
71
2
72
6
73
3
74
0
42
0.000000001
43
0.0000000001
44
0.0000000001
40
0
40
0
40
0
40
1
40
1
40
1
10
286.29899924674891
20
-71.725049485711892
30
0
10
287.4517959920492
20
-71.725049485711892
30
0
10
288.22601145187281
20
-71.172525753526529
30
0
0
SPLINE
5
326
100
AcDbEntity
8
0
100
AcDbSpline
70
0
71
2
72
6
73
3
74
0
42
0.000000001
43
0.0000000001
44
0.0000000001
40
0
40
0
40
0
40
1
40
1
40
1
10
288.22601145187281
20
-71.172525753526529
30
0
10
289.00022691169642
20
-70.620002021341165
30
0
10
289.3140060273733
20
-69.688897003679116
30
0
0
SPLINE
5
327
100
AcDbEntity
8
0
100
AcDbSpline
70
0
71
2
72
6
73
3
74
0
42
0.000000001
43
0.0000000001
44
0.0000000001
40
0
40
0
40
0
40
1
40
1
40
1
10
289.3140060273733
20
-69.688897003679116
30
0
10
289.62778514305018
20
-68.757791986017068
30
0
10
289.62778514305018
20
-67.768705954103311
30
0
0
SPLINE
5
328
100
AcDbEntity
8
0
100
AcDbSpline
70
0
71
2
72
6
73
3
74
0
42
0.000000001
43
0.0000000001
44
0.0000000001
40
0
40
0
40
0
40
1
40
1
40
1
10
289.62778514305018
20
-67.768705954103311
30
0
10
289.62778514305018
20
-66.493126024751504
30
0
10
289.25602501312159
20
-65.541556944398721
30
0
0
SPLINE
5
329
100
AcDbEntity
8
0
100
AcDbSpline
70
0
71
2
72
6
73
3
74
0
42
0.000000001
43
0.0000000001
44
0.0000000001
40
0
40
0
40
0
40
1
40
1
40
1
10
289.25602501312159
20
-65.541556944398721
30
0
10
288.884264883193
20
-64.589988460092385
30
0
10
288.09981769004725
20
-64.119319786577066
30
0
0
SPLINE
5
330
100
AcDbEntity
8
0
100
AcDbSpline
70
0
71
2
72
6
73
3
74
0
42
0.000000001
43
0.0000000001
44
0.0000000001
40
0
40
0
40
0
40
1
40
1
40
1
10
288.09981769004725
20
-64.119319786577066
30
0
10
287.31537049690149
20
-63.648651709108186
30
0
10
286.40131836810968
20
-63.648651709108186
30
0
0
SPLINE
5
331
100
AcDbEntity
8
0
100
AcDbSpline
70
0
71
2
72
6
73
3
74
0
42
0.000000001
43
0.0000000001
44
0.0000000001
40
0
40
0
40
0
40
1
40
1
40
1
10
286.40131836810968
20
-63.648651709108186
30
0
10
285.28944915214441
20
-63.648651709108186
30
0
10
284.51864427009485
20
-64.289852251558145
30
0
0
SPLINE
5
332
100
AcDbEntity
8
0
100
AcDbSpline
70
0
71
2
72
6
73
3
74
0
42
0.000000001
43
0.0000000001
44
0.0000000001
40
0
40
0
40
0
40
1
40
1
40
1
10
284.51864427009485
20
-64.289852251558145
30
0
10
283.74783938804529
20
-64.931052794008096
30
0
10
283.47498839774988
20
-66.192989220170816
30
0
0
LINE
5
333
100
AcDbEntity
8
0
100
AcDbLine
10
275.71919029632471
20
-65.019729604272683
30
0
11
274.4504327146139
21
-64.862840046434243
31
0
0
SPLINE
5
334
100
AcDbEntity
8
0
100
AcDbSpline
70
0
71
2
72
6
73
3
74
0
42
0.000000001
43
0.0000000001
44
0.0000000001
40
0
40
0
40
0
40
1
40
1
40
1
10
274.4504327146139
20
-64.862840046434243
30
0
10
274.75056832710169
20
-63.750970830468965
30
0
10
275.56230133453272
20
-63.137055506257845
30
0
0
SPLINE
5
335
100
AcDbEntity
8
0
100
AcDbSpline
70
0
71
2
72
6
73
3
74
0
42
0.000000001
43
0.0000000001
44
0.0000000001
40
0
40
0
40
0
40
1
40
1
40
1
10
275.56230133453272
20
-63.137055506257845
30
0
10
276.37403434196375
20
-62.523139586000276
30
0
10
277.63597076812647
20
-62.523139586000276
30
0
0
SPLINE
5
336
100
AcDbEntity
8
0
100
AcDbSpline
70
0
71
2
72
6
73
3
74
0
42
0.000000001
43
0.0000000001
44
0.0000000001
40
0
40
0
40
0
40
1
40
1
40
1
10
277.63597076812647
20
-62.523139586000276
30
0
10
279.22532981315516
20
-62.523139586000276
30
0
10
280.15643542686365
20
-63.50199388459189
30
0
0
SPLINE
5
337
100
AcDbEntity
8
0
100
AcDbSpline
70
0
71
2
72
6
73
3
74
0
42
0.000000001
43
0.0000000001
44
0.0000000001
40
0
40
0
40
0
40
1
40
1
40
1
10
280.15643542686365
20
-63.50199388459189
30
0
10
281.08753984847925
20
-64.480848183183511
30
0
10
281.08753984847925
20
-66.247560252694925
30
0
0
SPLINE
5
338
100
AcDbEntity
8
0
100
AcDbSpline
70
0
71
2
72
6
73
3
74
0
42
0.000000001
43
0.0000000001
44
0.0000000001
40
0
40
0
40
0
40
1
40
1
40
1
10
281.08753984847925
20
-66.247560252694925
30
0
10
281.08753984847925
20
-68.075663914232095
30
0
10
280.14620250144861
20
-69.085214008836587
30
0
0
SPLINE
5
339
100
AcDbEntity
8
0
100
AcDbSpline
70
0
71
2
72
6
73
3
74
0
42
0.000000001
43
0.0000000001
44
0.0000000001
40
0
40
0
40
0
40
1
40
1
40
1
10
280.14620250144861
20
-69.085214008836587
30
0
10
279.20486634651087
20
-70.094763507394632
30
0
10
277.70418351570032
20
-70.094763507394632
30
0
0
SPLINE
5
340
100
AcDbEntity
8
0
100
AcDbSpline
70
0
71
2
72
6
73
3
74
0
42
0.000000001
43
0.0000000001
44
0.0000000001
40
0
40
0
40
0
40
1
40
1
40
1
10
277.70418351570032
20
-70.094763507394632
30
0
10
276.25125115791224
20
-70.094763507394632
30
0
10
275.33037846961878
20
-69.105677475480874
30
0
0
SPLINE
5
341
100
AcDbEntity
8
0
100
AcDbSpline
70
0
71
2
72
6
73
3
74
0
42
0.000000001
43
0.0000000001
44
0.0000000001
40
0
40
0
40
0
40
1
40
1
40
1
10
275.33037846961878
20
-69.105677475480874
30
0
10
274.40950578132532
20
-68.116592039613565
30
0
10
274.40950578132532
20
-66.322594751863321
30
0
0
SPLINE
5
342
100
AcDbEntity
8
0
100
AcDbSpline
70
0
71
2
72
6
73
3
74
0
42
0.000000001
43
0.0000000001
44
0.0000000001
40
0
40
0
40
0
40
1
40
1
40
1
10
274.40950578132532
20
-66.322594751863321
30
0
10
274.40950578132532
20
-66.213453878907998
30
0
10
274.41632455268763
20
-65.995173325090249
30
0
0
LINE
5
343
100
AcDbEntity
8
0
100
AcDbLine
10
274.41632455268763
20
-65.995173325090249
30
0
11
279.81878107467554
21
-65.995173325090249
31
0
0
SPLINE
5
344
100
AcDbEntity
8
0
100
AcDbSpline
70
0
71
2
72
6
73
3
74
0
42
0.000000001
43
0.0000000001
44
0.0000000001
40
0
40
0
40
0
40
1
40
1
40
1
10
279.81878107467554
20
-65.995173325090249
30
0
10
279.75056832710169
20
-64.801448454408487
30
0
10
279.14347475448511
20
-64.167069067506631
30
0
0
SPLINE
5
345
100
AcDbEntity
8
0
100
AcDbSpline
70
0
71
2
72
6
73
3
74
0
42
0.000000001
43
0.0000000001
44
0.0000000001
40
0
40
0
40
0
40
1
40
1
40
1
10
279.14347475448511
20
-64.167069067506631
30
0
10
278.53637998977564
20
-63.532689680604769
30
0
10
277.62914961257837
20
-63.532689680604769
30
0
0
SPLINE
5
346
100
AcDbEntity
8
0
100
AcDbSpline
70
0
71
2
72
6
73
3
74
0
42
0.000000001
43
0.0000000001
44
0.0000000001
40
0
40
0
40
0
40
1
40
1
40
1
10
277.62914961257837
20
-63.532689680604769
30
0
10
276.95384210029505
20
-63.532689680604769
30
0
10
276.47635286727808
20
-63.88739632561667
30
0
0
SPLINE
5
347
100
AcDbEntity
8
0
100
AcDbSpline
70
0
71
2
72
6
73
3
74
0
42
0.000000001
43
0.0000000001
44
0.0000000001
40
0
40
0
40
0
40
1
40
1
40
1
10
276.47635286727808
20
-63.88739632561667
30
0
10
275.99886363426111
20
-64.242102970628579
30
0
10
275.71919029632471
20
-65.019729604272683
30
0
0
LINE
5
348
100
AcDbEntity
8
0
100
AcDbLine
10
279.75056832710169
20
-67.004722823648294
30
0
11
275.70554798522852
21
-67.004722823648294
31
0
0
SPLINE
5
349
100
AcDbEntity
8
0
100
AcDbSpline
70
0
71
2
72
6
73
3
74
0
42
0.000000001
43
0.0000000001
44
0.0000000001
40
0
40
0
40
0
40
1
40
1
40
1
10
275.70554798522852
20
-67.004722823648294
30
0
10
275.78740304389856
20
-67.918774356393655
30
0
10
276.1693949071493
20
-68.375800718812783
30
0
0
SPLINE
5
350
100
AcDbEntity
8
0
100
AcDbSpline
70
0
71
2
72
6
73
3
74
0
42
0.000000001
43
0.0000000001
44
0.0000000001
40
0
40
0
40
0
40
1
40
1
40
1
10
276.1693949071493
20
-68.375800718812783
30
0
10
276.75602620521448
20
-69.085214008836587
30
0
10
277.69054120460413
20
-69.085214008836587
30
0
0
SPLINE
5
351
100
AcDbEntity
8
0
100
AcDbSpline
70
0
71
2
72
6
73
3
74
0
42
0.000000001
43
0.0000000001
44
0.0000000001
40
0
40
0
40
0
40
1
40
1
40
1
10
277.69054120460413
20
-69.085214008836587
30
0
10
278.53637998977564
20
-69.085214008836587
30
0
10
279.11277836242579
20
-68.519047369508584
30
0
0
SPLINE
5
352
100
AcDbEntity
8
0
100
AcDbSpline
70
0
71
2
72
6
73
3
74
0
42
0.000000001
43
0.0000000001
44
0.0000000001
40
0
40
0
40
0
40
1
40
1
40
1
10
279.11277836242579
20
-68.519047369508584
30
0
10
279.68917673507593
20
-67.952880730180581
30
0
10
279.75056832710169
20
-67.004722823648294
30
0
0
LINE
5
353
100
AcDbEntity
8
0
100
AcDbLine
10
272.90882295051478
20
-62.68685089543326
30
0
11
272.90882295051478
21
-69.931052794008096
31
0
0
LINE
5
354
100
AcDbEntity
8
0
100
AcDbLine
10
272.90882295051478
20
-69.931052794008096
30
0
11
271.80377429405115
21
-69.931052794008096
31
0
0
LINE
5
355
100
AcDbEntity
8
0
100
AcDbLine
10
271.80377429405115
20
-69.931052794008096
30
0
11
271.80377429405115
21
-68.901039232759317
31
0
0
SPLINE
5
356
100
AcDbEntity
8
0
100
AcDbSpline
70
0
71
2
72
6
73
3
74
0
42
0.000000001
43
0.0000000001
44
0.0000000001
40
0
40
0
40
0
40
1
40
1
40
1
10
271.80377429405115
20
-68.901039232759317
30
0
10
271.00568478980921
20
-70.094763507394632
30
0
10
269.49818080345057
20
-70.094763507394632
30
0
0
SPLINE
5
357
100
AcDbEntity
8
0
100
AcDbSpline
70
0
71
2
72
6
73
3
74
0
42
0.000000001
43
0.0000000001
44
0.0000000001
40
0
40
0
40
0
40
1
40
1
40
1
10
269.49818080345057
20
-70.094763507394632
30
0
10
268.84333794990442
20
-70.094763507394632
30
0
10
268.29422419944666
20
-69.859429468660196
30
0
0
SPLINE
5
358
100
AcDbEntity
8
0
100
AcDbSpline
70
0
71
2
72
6
73
3
74
0
42
0.000000001
43
0.0000000001
44
0.0000000001
40
0
40
0
40
0
40
1
40
1
40
1
10
268.29422419944666
20
-69.859429468660196
30
0
10
267.7451104489889
20
-69.62409542992576
30
0
10
267.47225945869349
20
-69.242103566675027
30
0
0
SPLINE
5
359
100
AcDbEntity
8
0
100
AcDbSpline
70
0
71
2
72
6
73
3
74
0
42
0.000000001
43
0.0000000001
44
0.0000000001
40
0
40
0
40
0
40
1
40
1
40
1
10
267.47225945869349
20
-69.242103566675027
30
0
10
267.19940846839808
20
-68.860111703424295
30
0
10
267.09026759544275
20
-68.334872593431314
30
0
0
SPLINE
5
360
100
AcDbEntity
8
0
100
AcDbSpline
70
0
71
2
72
6
73
3
74
0
42
0.000000001
43
0.0000000001
44
0.0000000001
40
0
40
0
40
0
40
1
40
1
40
1
10
267.09026759544275
20
-68.334872593431314
30
0
10
267.0220560399618
20
-67.993808855562051
30
0
10
267.0220560399618
20
-67.141148318795999
30
0
0
LINE
5
361
100
AcDbEntity
8
0
100
AcDbLine
10
267.0220560399618
20
-67.141148318795999
30
0
11
267.0220560399618
21
-62.68685089543326
31
0
0
LINE
5
362
100
AcDbEntity
8
0
100
AcDbLine
10
267.0220560399618
20
-62.68685089543326
30
0
11
268.24988549629114
21
-62.68685089543326
31
0
0
LINE
5
363
100
AcDbEntity
8
0
100
AcDbLine
10
268.24988549629114
20
-62.68685089543326
30
0
11
268.24988549629114
21
-67.093399633912881
31
0
0
SPLINE
5
364
100
AcDbEntity
8
0
100
AcDbSpline
70
0
71
2
72
6
73
3
74
0
42
0.000000001
43
0.0000000001
44
0.0000000001
40
0
40
0
40
0
40
1
40
1
40
1
10
268.24988549629114
20
-67.093399633912881
30
0
10
268.24988549629114
20
-67.843740453271707
30
0
10
268.39313214698694
20
-68.215500583200296
30
0
0
SPLINE
5
365
100
AcDbEntity
8
0
100
AcDbSpline
70
0
71
2
72
6
73
3
74
0
42
0.000000001
43
0.0000000001
44
0.0000000001
40
0
40
0
40
0
40
1
40
1
40
1
10
268.39313214698694
20
-68.215500583200296
30
0
10
268.53637879768274
20
-68.587260117082437
30
0
10
268.90131896415613
20
-68.808951844720681
30
0
0
SPLINE
5
366
100
AcDbEntity
8
0
100
AcDbSpline
70
0
71
2
72
6
73
3
74
0
42
0.000000001
43
0.0000000001
44
0.0000000001
40
0
40
0
40
0
40
1
40
1
40
1
10
268.90131896415613
20
-68.808951844720681
30
0
10
269.26625674644373
20
-69.030643572358926
30
0
10
269.75738948264978
20
-69.030643572358926
30
0
0
SPLINE
5
367
100
AcDbEntity
8
0
100
AcDbSpline
70
0
71
2
72
6
73
3
74
0
42
0.000000001
43
0.0000000001
44
0.0000000001
40
0
40
0
40
0
40
1
40
1
40
1
10
269.75738948264978
20
-69.030643572358926
30
0
10
270.54183667579554
20
-69.030643572358926
30
0
10
271.11141389289759
20
-68.532689680604776
30
0
0
SPLINE
5
368
100
AcDbEntity
8
0
100
AcDbSpline
70
0
71
2
72
6
73
3
74
0
42
0.000000001
43
0.0000000001
44
0.0000000001
40
0
40
0
40
0
40
1
40
1
40
1
10
271.11141389289759
20
-68.532689680604776
30
0
10
271.68099110999964
20
-68.034736384897073
30
0
10
271.68099110999964
20
-66.643195023088296
30
0
0
LINE
5
369
100
AcDbEntity
8
0
100
AcDbLine
10
271.68099110999964
20
-66.643195023088296
30
0
11
271.68099110999964
21
-62.68685089543326
31
0
0
LINE
5
370
100
AcDbEntity
8
0
100
AcDbLine
10
271.68099110999964
20
-62.68685089543326
30
0
11
272.90882295051478
21
-62.68685089543326
31
0
0
LINE
5
371
100
AcDbEntity
8
0
100
AcDbLine
10
262.45861714759729
20
-63.785077204255892
30
0
11
262.28126233497522
21
-62.700493206529451
31
0
0
SPLINE
5
372
100
AcDbEntity
8
0
100
AcDbSpline
70
0
71
2
72
6
73
3
74
0
42
0.000000001
43
0.0000000001
44
0.0000000001
40
0
40
0
40
0
40
1
40
1
40
1
10
262.28126233497522
20
-62.700493206529451
30
0
10
262.79968207755945
20
-62.591353525667024
30
0
10
263.20895856300257
20
-62.591353525667024
30
0
0
SPLINE
5
373
100
AcDbEntity
8
0
100
AcDbSpline
70
0
71
2
72
6
73
3
74
0
42
0.000000001
43
0.0000000001
44
0.0000000001
40
0
40
0
40
0
40
1
40
1
40
1
10
263.20895856300257
20
-62.591353525667024
30
0
10
263.8774437276449
20
-62.591353525667024
30
0
10
264.24579327979944
20
-62.802812923936678
30
0
0
SPLINE
5
374
100
AcDbEntity
8
0
100
AcDbSpline
70
0
71
2
72
6
73
3
74
0
42
0.000000001
43
0.0000000001
44
0.0000000001
40
0
40
0
40
0
40
1
40
1
40
1
10
264.24579327979944
20
-62.802812923936678
30
0
10
264.61414283195398
20
-63.014272322206331
30
0
10
264.76421063819788
20
-63.358747233896089
30
0
0
SPLINE
5
375
100
AcDbEntity
8
0
100
AcDbSpline
70
0
71
2
72
6
73
3
74
0
42
0.000000001
43
0.0000000001
44
0.0000000001
40
0
40
0
40
0
40
1
40
1
40
1
10
264.76421063819788
20
-63.358747233896089
30
0
10
264.91427844444178
20
-63.703222145585848
30
0
10
264.91427844444178
20
-64.808269609956582
30
0
0
LINE
5
376
100
AcDbEntity
8
0
100
AcDbLine
10
264.91427844444178
20
-64.808269609956582
30
0
11
264.91427844444178
21
-68.976073135881265
31
0
0
LINE
5
377
100
AcDbEntity
8
0
100
AcDbLine
10
264.91427844444178
20
-68.976073135881265
30
0
11
265.81468766609095
21
-68.976073135881265
31
0
0
LINE
5
378
100
AcDbEntity
8
0
100
AcDbLine
10
265.81468766609095
20
-68.976073135881265
30
0
11
265.81468766609095
21
-69.931052794008096
31
0
0
LINE
5
379
100
AcDbEntity
8
0
100
AcDbLine
10
265.81468766609095
20
-69.931052794008096
30
0
11
264.91427844444178
21
-69.931052794008096
31
0
0
LINE
5
380
100
AcDbEntity
8
0
100
AcDbLine
10
264.91427844444178
20
-69.931052794008096
30
0
11
264.91427844444178
21
-71.72505008175834
31
0
0
LINE
5
381
100
AcDbEntity
8
0
100
AcDbLine
10
264.91427844444178
20
-71.72505008175834
30
0
11
263.69326775947474
21
-72.461748590020974
31
0
0
LINE
5
382
100
AcDbEntity
8
0
100
AcDbLine
10
263.69326775947474
20
-72.461748590020974
30
0
11
263.69326775947474
21
-69.931052794008096
31
0
0
LINE
5
383
100
AcDbEntity
8
0
100
AcDbLine
10
263.69326775947474
20
-69.931052794008096
30
0
11
262.45861714759729
21
-69.931052794008096
31
0
0
LINE
5
384
100
AcDbEntity
8
0
100
AcDbLine
10
262.45861714759729
20
-69.931052794008096
30
0
11
262.45861714759729
21
-68.976073135881265
31
0
0
LINE
5
385
100
AcDbEntity
8
0
100
AcDbLine
10
262.45861714759729
20
-68.976073135881265
30
0
11
263.69326775947474
21
-68.976073135881265
31
0
0
LINE
5
386
100
AcDbEntity
8
0
100
AcDbLine
10
263.69326775947474
20
-68.976073135881265
30
0
11
263.69326775947474
21
-64.74005686238273
31
0
0
SPLINE
5
387
100
AcDbEntity
8
0
100
AcDbSpline
70
0
71
2
72
6
73
3
74
0
42
0.000000001
43
0.0000000001
44
0.0000000001
40
0
40
0
40
0
40
1
40
1
40
1
10
263.69326775947474
20
-64.74005686238273
30
0
10
263.69326775947474
20
-64.214818348436197
30
0
10
263.62846558967493
20
-64.064749946145852
30
0
0
SPLINE
5
388
100
AcDbEntity
8
0
100
AcDbSpline
70
0
71
2
72
6
73
3
74
0
42
0.000000001
43
0.0000000001
44
0.0000000001
40
0
40
0
40
0
40
1
40
1
40
1
10
263.62846558967493
20
-64.064749946145852
30
0
10
263.56366341987513
20
-63.914681543855501
30
0
10
263.41700738349817
20
-63.826005329637361
30
0
0
SPLINE
5
389
100
AcDbEntity
8
0
100
AcDbSpline
70
0
71
2
72
6
73
3
74
0
42
0.000000001
43
0.0000000001
44
0.0000000001
40
0
40
0
40
0
40
1
40
1
40
1
10
263.41700738349817
20
-63.826005329637361
30
0
10
263.27034896293543
20
-63.737328519372774
30
0
10
262.99749797264002
20
-63.737328519372774
30
0
0
SPLINE
5
390
100
AcDbEntity
8
0
100
AcDbSpline
70
0
71
2
72
6
73
3
74
0
42
0.000000001
43
0.0000000001
44
0.0000000001
40
0
40
0
40
0
40
1
40
1
40
1
10
262.99749797264002
20
-63.737328519372774
30
0
10
262.79285853782557
20
-63.737328519372774
30
0
10
262.45861714759729
20
-63.785077204255892
30
0
0
LINE
5
391
100
AcDbEntity
8
0
100
AcDbLine
10
256.29899924674891
20
-65.019729604272683
30
0
11
255.03024285713099
21
-64.862840046434243
31
0
0
SPLINE
5
392
100
AcDbEntity
8
0
100
AcDbSpline
70
0
71
2
72
6
73
3
74
0
42
0.000000001
43
0.0000000001
44
0.0000000001
40
0
40
0
40
0
40
1
40
1
40
1
10
255.03024285713099
20
-64.862840046434243
30
0
10
255.3303737012472
20
-63.750970830468965
30
0
10
256.14211028495691
20
-63.137055506257845
30
0
0
SPLINE
5
393
100
AcDbEntity
8
0
100
AcDbSpline
70
0
71
2
72
6
73
3
74
0
42
0.000000001
43
0.0000000001
44
0.0000000001
40
0
40
0
40
0
40
1
40
1
40
1
10
256.14211028495691
20
-63.137055506257845
30
0
10
256.95384210029505
20
-62.523139586000276
30
0
10
258.21577971855066
20
-62.523139586000276
30
0
0
SPLINE
5
394
100
AcDbEntity
8
0
100
AcDbSpline
70
0
71
2
72
6
73
3
74
0
42
0.000000001
43
0.0000000001
44
0.0000000001
40
0
40
0
40
0
40
1
40
1
40
1
10
258.21577971855066
20
-62.523139586000276
30
0
10
259.80513995567225
20
-62.523139586000276
30
0
10
260.73624318519495
20
-63.50199388459189
30
0
0
SPLINE
5
395
100
AcDbEntity
8
0
100
AcDbSpline
70
0
71
2
72
6
73
3
74
0
42
0.000000001
43
0.0000000001
44
0.0000000001
40
0
40
0
40
0
40
1
40
1
40
1
10
260.73624318519495
20
-63.50199388459189
30
0
10
261.66734879890345
20
-64.480848183183511
30
0
10
261.66734879890345
20
-66.247560252694925
30
0
0
SPLINE
5
396
100
AcDbEntity
8
0
100
AcDbSpline
70
0
71
2
72
6
73
3
74
0
42
0.000000001
43
0.0000000001
44
0.0000000001
40
0
40
0
40
0
40
1
40
1
40
1
10
261.66734879890345
20
-66.247560252694925
30
0
10
261.66734879890345
20
-68.075663914232095
30
0
10
260.7260126439657
20
-69.085214008836587
30
0
0
SPLINE
5
397
100
AcDbEntity
8
0
100
AcDbSpline
70
0
71
2
72
6
73
3
74
0
42
0.000000001
43
0.0000000001
44
0.0000000001
40
0
40
0
40
0
40
1
40
1
40
1
10
260.7260126439657
20
-69.085214008836587
30
0
10
259.78467410484217
20
-70.094763507394632
30
0
10
258.28399365821741
20
-70.094763507394632
30
0
0
SPLINE
5
398
100
AcDbEntity
8
0
100
AcDbSpline
70
0
71
2
72
6
73
3
74
0
42
0.000000001
43
0.0000000001
44
0.0000000001
40
0
40
0
40
0
40
1
40
1
40
1
10
258.28399365821741
20
-70.094763507394632
30
0
10
256.83105891624353
20
-70.094763507394632
30
0
10
255.91018622795008
20
-69.105677475480874
30
0
0
SPLINE
5
399
100
AcDbEntity
8
0
100
AcDbSpline
70
0
71
2
72
6
73
3
74
0
42
0.000000001
43
0.0000000001
44
0.0000000001
40
0
40
0
40
0
40
1
40
1
40
1
10
255.91018622795008
20
-69.105677475480874
30
0
10
254.98931115547083
20
-68.116592039613565
30
0
10
254.98931115547083
20
-66.322594751863321
30
0
0
SPLINE
5
400
100
AcDbEntity
8
0
100
AcDbSpline
70
0
71
2
72
6
73
3
74
0
42
0.000000001
43
0.0000000001
44
0.0000000001
40
0
40
0
40
0
40
1
40
1
40
1
10
254.98931115547083
20
-66.322594751863321
30
0
10
254.98931115547083
20
-66.213453878907998
30
0
10
254.99613469520472
20
-65.995173325090249
30
0
0
LINE
5
401
100
AcDbEntity
8
0
100
AcDbLine
10
254.99613469520472
20
-65.995173325090249
30
0
11
260.39859002509974
21
-65.995173325090249
31
0
0
SPLINE
5
402
100
AcDbEntity
8
0
100
AcDbSpline
70
0
71
2
72
6
73
3
74
0
42
0.000000001
43
0.0000000001
44
0.0000000001
40
0
40
0
40
0
40
1
40
1
40
1
10
260.39859002509974
20
-65.995173325090249
30
0
10
260.33037846961878
20
-64.801448454408487
30
0
10
259.72328370490931
20
-64.167069067506631
30
0
0
SPLINE
5
403
100
AcDbEntity
8
0
100
AcDbSpline
70
0
71
2
72
6
73
3
74
0
42
0.000000001
43
0.0000000001
44
0.0000000001
40
0
40
0
40
0
40
1
40
1
40
1
10
259.72328370490931
20
-64.167069067506631
30
0
10
259.11618894019983
20
-63.532689680604769
30
0
10
258.20895856300257
20
-63.532689680604769
30
0
0
SPLINE
5
404
100
AcDbEntity
8
0
100
AcDbSpline
70
0
71
2
72
6
73
3
74
0
42
0.000000001
43
0.0000000001
44
0.0000000001
40
0
40
0
40
0
40
1
40
1
40
1
10
258.20895856300257
20
-63.532689680604769
30
0
10
257.53365224281214
20
-63.532689680604769
30
0
10
257.05616181770228
20
-63.88739632561667
30
0
0
SPLINE
5
405
100
AcDbEntity
8
0
100
AcDbSpline
70
0
71
2
72
6
73
3
74
0
42
0.000000001
43
0.0000000001
44
0.0000000001
40
0
40
0
40
0
40
1
40
1
40
1
10
257.05616181770228
20
-63.88739632561667
30
0
10
256.57867139259241
20
-64.242102970628579
30
0
10
256.29899924674891
20
-65.019729604272683
30
0
0
LINE
5
406
100
AcDbEntity
8
0
100
AcDbLine
10
260.33037846961878
20
-67.004722823648294
30
0
11
256.28535693565271
21
-67.004722823648294
31
0
0
SPLINE
5
407
100
AcDbEntity
8
0
100
AcDbSpline
70
0
71
2
72
6
73
3
74
0
42
0.000000001
43
0.0000000001
44
0.0000000001
40
0
40
0
40
0
40
1
40
1
40
1
10
256.28535693565271
20
-67.004722823648294
30
0
10
256.36721318641565
20
-67.918774356393655
30
0
10
256.74920504966639
20
-68.375800718812783
30
0
0
SPLINE
5
408
100
AcDbEntity
8
0
100
AcDbSpline
70
0
71
2
72
6
73
3
74
0
42
0.000000001
43
0.0000000001
44
0.0000000001
40
0
40
0
40
0
40
1
40
1
40
1
10
256.74920504966639
20
-68.375800718812783
30
0
10
257.33583396354578
20
-69.085214008836587
30
0
10
258.27034896293543
20
-69.085214008836587
30
0
0
SPLINE
5
409
100
AcDbEntity
8
0
100
AcDbSpline
70
0
71
2
72
6
73
3
74
0
42
0.000000001
43
0.0000000001
44
0.0000000001
40
0
40
0
40
0
40
1
40
1
40
1
10
258.27034896293543
20
-69.085214008836587
30
0
10
259.11618894019983
20
-69.085214008836587
30
0
10
259.69258731284998
20
-68.519047369508584
30
0
0
SPLINE
5
410
100
AcDbEntity
8
0
100
AcDbSpline
70
0
71
2
72
6
73
3
74
0
42
0.000000001
43
0.0000000001
44
0.0000000001
40
0
40
0
40
0
40
1
40
1
40
1
10
259.69258731284998
20
-68.519047369508584
30
0
10
260.26898568550013
20
-67.952880730180581
30
0
10
260.33037846961878
20
-67.004722823648294
30
0
0
LINE
5
411
100
AcDbEntity
8
0
100
AcDbLine
10
253.50227540412806
20
-62.68685089543326
30
0
11
253.50227540412806
21
-69.931052794008096
31
0
0
LINE
5
412
100
AcDbEntity
8
0
100
AcDbLine
10
253.50227540412806
20
-69.931052794008096
30
0
11
252.39722436347864
21
-69.931052794008096
31
0
0
LINE
5
413
100
AcDbEntity
8
0
100
AcDbLine
10
252.39722436347864
20
-69.931052794008096
30
0
11
252.39722436347864
21
-68.832826485185464
31
0
0
SPLINE
5
414
100
AcDbEntity
8
0
100
AcDbSpline
70
0
71
2
72
6
73
3
74
0
42
0.000000001
43
0.0000000001
44
0.0000000001
40
0
40
0
40
0
40
1
40
1
40
1
10
252.39722436347864
20
-68.832826485185464
30
0
10
251.97430795112513
20
-69.603631367235025
30
0
10
251.61618417182825
20
-69.849197735338052
30
0
0
SPLINE
5
415
100
AcDbEntity
8
0
100
AcDbSpline
70
0
71
2
72
6
73
3
74
0
42
0.000000001
43
0.0000000001
44
0.0000000001
40
0
40
0
40
0
40
1
40
1
40
1
10
251.61618417182825
20
-69.849197735338052
30
0
10
251.25806992927454
20
-70.094763507394632
30
0
10
250.82833474555872
20
-70.094763507394632
30
0
0
SPLINE
5
416
100
AcDbEntity
8
0
100
AcDbSpline
70
0
71
2
72
6
73
3
74
0
42
0.000000001
43
0.0000000001
44
0.0000000001
40
0
40
0
40
0
40
1
40
1
40
1
10
250.82833474555872
20
-70.094763507394632
30
0
10
250.20759766975306
20
-70.094763507394632
30
0
10
249.56639474311731
20
-69.699129333047708
30
0
0
LINE
5
417
100
AcDbEntity
8
0
100
AcDbLine
10
249.56639474311731
20
-69.699129333047708
30
0
11
249.98931115547083
21
-68.559974898843606
31
0
0
SPLINE
5
418
100
AcDbEntity
8
0
100
AcDbSpline
70
0
71
2
72
6
73
3
74
0
42
0.000000001
43
0.0000000001
44
0.0000000001
40
0
40
0
40
0
40
1
40
1
40
1
10
249.98931115547083
20
-68.559974898843606
30
0
10
250.43952172675989
20
-68.826005329637368
30
0
10
250.88972276130579
20
-68.826005329637368
30
0
0
SPLINE
5
419
100
AcDbEntity
8
0
100
AcDbSpline
70
0
71
2
72
6
73
3
74
0
42
0.000000001
43
0.0000000001
44
0.0000000001
40
0
40
0
40
0
40
1
40
1
40
1
10
250.88972276130579
20
-68.826005329637368
30
0
10
251.29217332282923
20
-68.826005329637368
30
0
10
251.61277955451868
20
-68.583849539308389
30
0
0
SPLINE
5
420
100
AcDbEntity
8
0
100
AcDbSpline
70
0
71
2
72
6
73
3
74
0
42
0.000000001
43
0.0000000001
44
0.0000000001
40
0
40
0
40
0
40
1
40
1
40
1
10
251.61277955451868
20
-68.583849539308389
30
0
10
251.93337624946497
20
-68.341693748979409
30
0
10
252.06980412879847
20
-67.911953200845559
30
0
0
SPLINE
5
421
100
AcDbEntity
8
0
100
AcDbSpline
70
0
71
2
72
6
73
3
74
0
42
0.000000001
43
0.0000000001
44
0.0000000001
40
0
40
0
40
0
40
1
40
1
40
1
10
252.06980412879847
20
-67.911953200845559
30
0
10
252.27443879524134
20
-67.257109751252969
30
0
10
252.27443879524134
20
-66.479483713655313
30
0
0
LINE
5
422
100
AcDbEntity
8
0
100
AcDbLine
10
252.27443879524134
20
-66.479483713655313
30
0
11
252.27443879524134
21
-62.68685089543326
31
0
0
LINE
5
423
100
AcDbEntity
8
0
100
AcDbLine
10
252.27443879524134
20
-62.68685089543326
30
0
11
253.50227540412806
21
-62.68685089543326
31
0
0
SPLINE
5
424
100
AcDbEntity
8
0
100
AcDbSpline
70
0
71
2
72
6
73
3
74
0
42
0.000000001
43
0.0000000001
44
0.0000000001
40
0
40
0
40
0
40
1
40
1
40
1
10
245.41222756782435
20
-66.308951844720681
30
0
10
245.41222756782435
20
-68.321230282335122
30
0
10
244.29353898445032
20
-69.289852251558145
30
0
0
SPLINE
5
425
100
AcDbEntity
8
0
100
AcDbSpline
70
0
71
2
72
6
73
3
74
0
42
0.000000001
43
0.0000000001
44
0.0000000001
40
0
40
0
40
0
40
1
40
1
40
1
10
244.29353898445032
20
-69.289852251558145
30
0
10
243.35902398506067
20
-70.094763507394632
30
0
10
242.01523011604212
20
-70.094763507394632
30
0
0
SPLINE
5
426
100
AcDbEntity
8
0
100
AcDbSpline
70
0
71
2
72
6
73
3
74
0
42
0.000000001
43
0.0000000001
44
0.0000000001
40
0
40
0
40
0
40
1
40
1
40
1
10
242.01523011604212
20
-70.094763507394632
30
0
10
240.52136605659388
20
-70.094763507394632
30
0
10
239.57321351447962
20
-69.115909804849466
30
0
0
SPLINE
5
427
100
AcDbEntity
8
0
100
AcDbSpline
70
0
71
2
72
6
73
3
74
0
42
0.000000001
43
0.0000000001
44
0.0000000001
40
0
40
0
40
0
40
1
40
1
40
1
10
239.57321351447962
20
-69.115909804849466
30
0
10
238.6250514356222
20
-68.137055506257852
30
0
10
238.6250514356222
20
-66.41127096608146
30
0
0
SPLINE
5
428
100
AcDbEntity
8
0
100
AcDbSpline
70
0
71
2
72
6
73
3
74
0
42
0.000000001
43
0.0000000001
44
0.0000000001
40
0
40
0
40
0
40
1
40
1
40
1
10
238.6250514356222
20
-66.41127096608146
30
0
10
238.6250514356222
20
-65.01290785267814
30
0
10
239.04456323066614
20
-64.211407770662149
30
0
0
SPLINE
5
429
100
AcDbEntity
8
0
100
AcDbSpline
70
0
71
2
72
6
73
3
74
0
42
0.000000001
43
0.0000000001
44
0.0000000001
40
0
40
0
40
0
40
1
40
1
40
1
10
239.04456323066614
20
-64.211407770662149
30
0
10
239.46407502571009
20
-63.409906496553255
30
0
10
240.26557153144739
20
-62.966523637323213
30
0
0
SPLINE
5
430
100
AcDbEntity
8
0
100
AcDbSpline
70
0
71
2
72
6
73
3
74
0
42
0.000000001
43
0.0000000001
44
0.0000000001
40
0
40
0
40
0
40
1
40
1
40
1
10
240.26557153144739
20
-62.966523637323213
30
0
10
241.06707757392786
20
-62.523139586000276
30
0
10
242.01523011604212
20
-62.523139586000276
30
0
0
SPLINE
5
431
100
AcDbEntity
8
0
100
AcDbSpline
70
0
71
2
72
6
73
3
74
0
42
0.000000001
43
0.0000000001
44
0.0000000001
40
0
40
0
40
0
40
1
40
1
40
1
10
242.01523011604212
20
-62.523139586000276
30
0
10
243.53637879768274
20
-62.523139586000276
30
0
10
244.47430795112513
20
-63.498583306817842
30
0
0
SPLINE
5
432
100
AcDbEntity
8
0
100
AcDbSpline
70
0
71
2
72
6
73
3
74
0
42
0.000000001
43
0.0000000001
44
0.0000000001
40
0
40
0
40
0
40
1
40
1
40
1
10
244.47430795112513
20
-63.498583306817842
30
0
10
245.41222756782435
20
-64.474027027635415
30
0
10
245.41222756782435
20
-66.308951844720681
30
0
0
SPLINE
5
433
100
AcDbEntity
8
0
100
AcDbSpline
70
0
71
2
72
6
73
3
74
0
42
0.000000001
43
0.0000000001
44
0.0000000001
40
0
40
0
40
0
40
1
40
1
40
1
10
244.1502971021261
20
-66.308951844720681
30
0
10
244.1502971021261
20
-64.917410482911905
30
0
10
243.54319756904505
20
-64.22505008175834
30
0
0
SPLINE
5
434
100
AcDbEntity
8
0
100
AcDbSpline
70
0
71
2
72
6
73
3
74
0
42
0.000000001
43
0.0000000001
44
0.0000000001
40
0
40
0
40
0
40
1
40
1
40
1
10
243.54319756904505
20
-64.22505008175834
30
0
10
242.93610757270716
20
-63.532689680604769
30
0
10
242.01523011604212
20
-63.532689680604769
30
0
0
SPLINE
5
435
100
AcDbEntity
8
0
100
AcDbSpline
70
0
71
2
72
6
73
3
74
0
42
0.000000001
43
0.0000000001
44
0.0000000001
40
0
40
0
40
0
40
1
40
1
40
1
10
242.01523011604212
20
-63.532689680604769
30
0
10
241.10118096748255
20
-63.532689680604769
30
0
10
240.49408143440149
20
-64.228460659532388
30
0
0
SPLINE
5
436
100
AcDbEntity
8
0
100
AcDbSpline
70
0
71
2
72
6
73
3
74
0
42
0.000000001
43
0.0000000001
44
0.0000000001
40
0
40
0
40
0
40
1
40
1
40
1
10
240.49408143440149
20
-64.228460659532388
30
0
10
239.8869914380636
20
-64.92423163846
30
0
10
239.8869914380636
20
-66.349879374055703
30
0
0
SPLINE
5
437
100
AcDbEntity
8
0
100
AcDbSpline
70
0
71
2
72
6
73
3
74
0
42
0.000000001
43
0.0000000001
44
0.0000000001
40
0
40
0
40
0
40
1
40
1
40
1
10
239.8869914380636
20
-66.349879374055703
30
0
10
239.8869914380636
20
-67.693672050981363
30
0
10
240.49749558845423
20
-68.386032452134927
30
0
0
SPLINE
5
438
100
AcDbEntity
8
0
100
AcDbSpline
70
0
71
2
72
6
73
3
74
0
42
0.000000001
43
0.0000000001
44
0.0000000001
40
0
40
0
40
0
40
1
40
1
40
1
10
240.49749558845423
20
-68.386032452134927
30
0
10
241.10799973884485
20
-69.078392853288491
30
0
10
242.01523011604212
20
-69.078392853288491
30
0
0
SPLINE
5
439
100
AcDbEntity
8
0
100
AcDbSpline
70
0
71
2
72
6
73
3
74
0
42
0.000000001
43
0.0000000001
44
0.0000000001
40
0
40
0
40
0
40
1
40
1
40
1
10
242.01523011604212
20
-69.078392853288491
30
0
10
242.93610757270716
20
-69.078392853288491
30
0
10
243.54319756904505
20
-68.389443029908975
30
0
0
SPLINE
5
440
100
AcDbEntity
8
0
100
AcDbSpline
70
0
71
2
72
6
73
3
74
0
42
0.000000001
43
0.0000000001
44
0.0000000001
40
0
40
0
40
0
40
1
40
1
40
1
10
243.54319756904505
20
-68.389443029908975
30
0
10
244.1502971021261
20
-67.700493802575906
30
0
10
244.1502971021261
20
-66.308951844720681
30
0
0
LINE
5
441
100
AcDbEntity
8
0
100
AcDbLine
10
236.89244454780481
20
-62.68685089543326
30
0
11
236.89244454780481
21
-68.976073135881265
31
0
0
LINE
5
442
100
AcDbEntity
8
0
100
AcDbLine
10
236.89244454780481
20
-68.976073135881265
30
0
11
237.97702973762415
21
-68.976073135881265
31
0
0
LINE
5
443
100
AcDbEntity
8
0
100
AcDbLine
10
237.97702973762415
20
-68.976073135881265
30
0
11
237.97702973762415
21
-69.931052794008096
31
0
0
LINE
5
444
100
AcDbEntity
8
0
100
AcDbLine
10
237.97702973762415
20
-69.931052794008096
30
0
11
236.89244454780481
21
-69.931052794008096
31
0
0
LINE
5
445
100
AcDbEntity
8
0
100
AcDbLine
10
236.89244454780481
20
-69.931052794008096
30
0
11
236.89244454780481
21
-70.701857676057656
31
0
0
SPLINE
5
446
100
AcDbEntity
8
0
100
AcDbSpline
70
0
71
2
72
6
73
3
74
0
42
0.000000001
43
0.0000000001
44
0.0000000001
40
0
40
0
40
0
40
1
40
1
40
1
10
236.89244454780481
20
-70.701857676057656
30
0
10
236.89244454780481
20
-71.431735028772195
30
0
10
236.7628402082052
20
-71.786441673784097
30
0
0
SPLINE
5
447
100
AcDbEntity
8
0
100
AcDbSpline
70
0
71
2
72
6
73
3
74
0
42
0.000000001
43
0.0000000001
44
0.0000000001
40
0
40
0
40
0
40
1
40
1
40
1
10
236.7628402082052
20
-71.786441673784097
30
0
10
236.5854949323263
20
-72.263931502847512
30
0
10
236.13869851508997
20
-72.560657133607705
30
0
0
SPLINE
5
448
100
AcDbEntity
8
0
100
AcDbSpline
70
0
71
2
72
6
73
3
74
0
42
0.000000001
43
0.0000000001
44
0.0000000001
40
0
40
0
40
0
40
1
40
1
40
1
10
236.13869851508997
20
-72.560657133607705
30
0
10
235.69190209785364
20
-72.857383360414346
30
0
10
234.8869914380636
20
-72.857383360414346
30
0
0
SPLINE
5
449
100
AcDbEntity
8
0
100
AcDbSpline
70
0
71
2
72
6
73
3
74
0
42
0.000000001
43
0.0000000001
44
0.0000000001
40
0
40
0
40
0
40
1
40
1
40
1
10
234.8869914380636
20
-72.857383360414346
30
0
10
234.36857407966517
20
-72.857383360414346
30
0
10
233.7410182324972
20
-72.734600176362832
30
0
0
LINE
5
450
100
AcDbEntity
8
0
100
AcDbLine
10
233.7410182324972
20
-72.734600176362832
30
0
11
233.92519181648157
21
-71.663658489732583
31
0
0
SPLINE
5
451
100
AcDbEntity
8
0
100
AcDbSpline
70
0
71
2
72
6
73
3
74
0
42
0.000000001
43
0.0000000001
44
0.0000000001
40
0
40
0
40
0
40
1
40
1
40
1
10
233.92519181648157
20
-71.663658489732583
30
0
10
234.3071860639181
20
-71.731871237306436
30
0
10
234.64824860969446
20
-71.731871237306436
30
0
0
SPLINE
5
452
100
AcDbEntity
8
0
100
AcDbSpline
70
0
71
2
72
6
73
3
74
0
42
0.000000001
43
0.0000000001
44
0.0000000001
40
0
40
0
40
0
40
1
40
1
40
1
10
234.64824860969446
20
-71.731871237306436
30
0
10
235.20758813300989
20
-71.731871237306436
30
0
10
235.43951219001673
20
-71.493126620797952
30
0
0
SPLINE
5
453
100
AcDbEntity
8
0
100
AcDbSpline
70
0
71
2
72
6
73
3
74
0
42
0.000000001
43
0.0000000001
44
0.0000000001
40
0
40
0
40
0
40
1
40
1
40
1
10
235.43951219001673
20
-71.493126620797952
30
0
10
235.67143624702356
20
-71.25438140824302
30
0
10
235.67143624702356
20
-70.599538554696878
30
0
0
LINE
5
454
100
AcDbEntity
8
0
100
AcDbLine
10
235.67143624702356
20
-70.599538554696878
30
0
11
235.67143624702356
21
-69.931052794008096
31
0
0
LINE
5
455
100
AcDbEntity
8
0
100
AcDbLine
10
235.67143624702356
20
-69.931052794008096
30
0
11
234.25943559089563
21
-69.931052794008096
31
0
0
LINE
5
456
100
AcDbEntity
8
0
100
AcDbLine
10
234.25943559089563
20
-69.931052794008096
30
0
11
234.25943559089563
21
-68.976073135881265
31
0
0
LINE
5
457
100
AcDbEntity
8
0
100
AcDbLine
10
234.25943559089563
20
-68.976073135881265
30
0
11
235.67143624702356
21
-68.976073135881265
31
0
0
LINE
5
458
100
AcDbEntity
8
0
100
AcDbLine
10
235.67143624702356
20
-68.976073135881265
30
0
11
235.67143624702356
21
-62.68685089543326
31
0
0
LINE
5
459
100
AcDbEntity
8
0
100
AcDbLine
10
235.67143624702356
20
-62.68685089543326
30
0
11
236.89244454780481
21
-62.68685089543326
31
0
0
LINE
5
460
100
AcDbEntity
8
0
100
AcDbLine
10
278.60800212303064
20
-47.079757322816683
30
0
11
278.60800212303064
21
-57.079757322816683
31
0
0
LINE
5
461
100
AcDbEntity
8
0
100
AcDbLine
10
278.60800212303064
20
-57.079757322816683
30
0
11
276.61618774810694
21
-57.079757322816683
31
0
0
LINE
5
462
100
AcDbEntity
8
0
100
AcDbLine
10
276.61618774810694
20
-57.079757322816683
30
0
11
274.2492026654806
21
-49.999266733674837
31
0
0
SPLINE
5
463
100
AcDbEntity
8
0
100
AcDbSpline
70
0
71
2
72
6
73
3
74
0
42
0.000000001
43
0.0000000001
44
0.0000000001
40
0
40
0
40
0
40
1
40
1
40
1
10
274.2492026654806
20
-49.999266733674837
30
0
10
273.92178004661463
20
-49.010180105714632
30
0
10
273.77171224037073
20
-48.519047369508577
30
0
0
SPLINE
5
464
100
AcDbEntity
8
0
100
AcDbSpline
70
0
71
2
72
6
73
3
74
0
42
0.000000001
43
0.0000000001
44
0.0000000001
40
0
40
0
40
0
40
1
40
1
40
1
10
273.77171224037073
20
-48.519047369508577
30
0
10
273.60118096748255
20
-49.064749350099397
30
0
10
273.2396525708761
20
-50.122049917726351
30
0
0
LINE
5
465
100
AcDbEntity
8
0
100
AcDbLine
10
273.2396525708761
20
-50.122049917726351
30
0
11
270.84538167396448
21
-57.079757322816683
31
0
0
LINE
5
466
100
AcDbEntity
8
0
100
AcDbLine
10
270.84538167396448
20
-57.079757322816683
30
0
11
269.06502908149622
21
-57.079757322816683
31
0
0
LINE
5
467
100
AcDbEntity
8
0
100
AcDbLine
10
269.06502908149622
20
-57.079757322816683
30
0
11
269.06502908149622
21
-47.079757322816683
31
0
0
LINE
5
468
100
AcDbEntity
8
0
100
AcDbLine
10
269.06502908149622
20
-47.079757322816683
30
0
11
270.34060662666224
21
-47.079757322816683
31
0
0
LINE
5
469
100
AcDbEntity
8
0
100
AcDbLine
10
270.34060662666224
20
-47.079757322816683
30
0
11
270.34060662666224
21
-55.449470152406526
31
0
0
LINE
5
470
100
AcDbEntity
8
0
100
AcDbLine
10
270.34060662666224
20
-55.449470152406526
30
0
11
273.2464737264242
21
-47.079757322816683
31
0
0
LINE
5
471
100
AcDbEntity
8
0
100
AcDbLine
10
273.2464737264242
20
-47.079757322816683
30
0
11
274.44019978919886
21
-47.079757322816683
31
0
0
LINE
5
472
100
AcDbEntity
8
0
100
AcDbLine
10
274.44019978919886
20
-47.079757322816683
30
0
11
277.33242219367884
21
-55.592717995195223
31
0
0
LINE
5
473
100
AcDbEntity
8
0
100
AcDbLine
10
277.33242219367884
20
-55.592717995195223
30
0
11
277.33242219367884
21
-47.079757322816683
31
0
0
LINE
5
474
100
AcDbEntity
8
0
100
AcDbLine
10
277.33242219367884
20
-47.079757322816683
30
0
11
278.60800212303064
21
-47.079757322816683
31
0
0
SPLINE
5
475
100
AcDbEntity
8
0
100
AcDbSpline
70
0
71
2
72
6
73
3
74
0
42
0.000000001
43
0.0000000001
44
0.0000000001
40
0
40
0
40
0
40
1
40
1
40
1
10
262.35970681587122
20
-47.973345388917757
30
0
10
263.04183429160975
20
-47.393535246400667
30
0
10
263.67280190864466
20
-47.154792418031526
30
0
0
SPLINE
5
476
100
AcDbEntity
8
0
100
AcDbSpline
70
0
71
2
72
6
73
3
74
0
42
0.000000001
43
0.0000000001
44
0.0000000001
40
0
40
0
40
0
40
1
40
1
40
1
10
263.67280190864466
20
-47.154792418031526
30
0
10
264.30377190986536
20
-46.916047205476595
30
0
10
265.02682870307825
20
-46.916047205476595
30
0
0
SPLINE
5
477
100
AcDbEntity
8
0
100
AcDbSpline
70
0
71
2
72
6
73
3
74
0
42
0.000000001
43
0.0000000001
44
0.0000000001
40
0
40
0
40
0
40
1
40
1
40
1
10
265.02682870307825
20
-46.916047205476595
30
0
10
266.22055238166712
20
-46.916047205476595
30
0
10
266.86175292411707
20
-47.499266733674837
30
0
0
SPLINE
5
478
100
AcDbEntity
8
0
100
AcDbSpline
70
0
71
2
72
6
73
3
74
0
42
0.000000001
43
0.0000000001
44
0.0000000001
40
0
40
0
40
0
40
1
40
1
40
1
10
266.86175292411707
20
-47.499266733674837
30
0
10
267.50295346656702
20
-48.082486261873079
30
0
10
267.50295346656702
20
-48.989716639070345
30
0
0
SPLINE
5
479
100
AcDbEntity
8
0
100
AcDbSpline
70
0
71
2
72
6
73
3
74
0
42
0.000000001
43
0.0000000001
44
0.0000000001
40
0
40
0
40
0
40
1
40
1
40
1
10
267.50295346656702
20
-48.989716639070345
30
0
10
267.50295346656702
20
-49.521776308564974
30
0
10
267.26079648414515
20
-49.961749186067415
30
0
0
SPLINE
5
480
100
AcDbEntity
8
0
100
AcDbSpline
70
0
71
2
72
6
73
3
74
0
42
0.000000001
43
0.0000000001
44
0.0000000001
40
0
40
0
40
0
40
1
40
1
40
1
10
267.26079648414515
20
-49.961749186067415
30
0
10
267.01864188590906
20
-50.401722063569856
30
0
10
266.62641709724329
20
-50.667751898317171
30
0
0
SPLINE
5
481
100
AcDbEntity
8
0
100
AcDbSpline
70
0
71
2
72
6
73
3
74
0
42
0.000000001
43
0.0000000001
44
0.0000000001
40
0
40
0
40
0
40
1
40
1
40
1
10
266.62641709724329
20
-50.667751898317171
30
0
10
266.23419469276331
20
-50.933781733064485
30
0
10
265.74306195655726
20
-51.07020722821219
30
0
0
SPLINE
5
482
100
AcDbEntity
8
0
100
AcDbSpline
70
0
71
2
72
6
73
3
74
0
42
0.000000001
43
0.0000000001
44
0.0000000001
40
0
40
0
40
0
40
1
40
1
40
1
10
265.74306195655726
20
-51.07020722821219
30
0
10
265.38153355995081
20
-51.165705790071321
30
0
10
264.65165799537561
20
-51.254383196382356
30
0
0
SPLINE
5
483
100
AcDbEntity
8
0
100
AcDbSpline
70
0
71
2
72
6
73
3
74
0
42
0.000000001
43
0.0000000001
44
0.0000000001
40
0
40
0
40
0
40
1
40
1
40
1
10
264.65165799537561
20
-51.254383196382356
30
0
10
263.16461747566126
20
-51.431735624818636
30
0
10
262.46202653327845
20
-51.677301992921663
30
0
0
SPLINE
5
484
100
AcDbEntity
8
0
100
AcDbSpline
70
0
71
2
72
6
73
3
74
0
42
0.000000001
43
0.0000000001
44
0.0000000001
40
0
40
0
40
0
40
1
40
1
40
1
10
262.46202653327845
20
-51.677301992921663
30
0
10
262.45520299354456
20
-51.929689516572786
30
0
10
262.45520299354456
20
-51.997903456239534
30
0
0
SPLINE
5
485
100
AcDbEntity
8
0
100
AcDbSpline
70
0
71
2
72
6
73
3
74
0
42
0.000000001
43
0.0000000001
44
0.0000000001
40
0
40
0
40
0
40
1
40
1
40
1
10
262.45520299354456
20
-51.997903456239534
30
0
10
262.45520299354456
20
-52.748242487459017
30
0
10
262.80308907905481
20
-53.055201639680696
30
0
0
SPLINE
5
486
100
AcDbEntity
8
0
100
AcDbSpline
70
0
71
2
72
6
73
3
74
0
42
0.000000001
43
0.0000000001
44
0.0000000001
40
0
40
0
40
0
40
1
40
1
40
1
10
262.80308907905481
20
-53.055201639680696
30
0
10
263.27375834861658
20
-53.471299280671907
30
0
10
264.20145219245813
20
-53.471299280671907
30
0
0
SPLINE
5
487
100
AcDbEntity
8
0
100
AcDbSpline
70
0
71
2
72
6
73
3
74
0
42
0.000000001
43
0.0000000001
44
0.0000000001
40
0
40
0
40
0
40
1
40
1
40
1
10
264.20145219245813
20
-53.471299280671907
30
0
10
265.06775563636683
20
-53.471299280671907
30
0
10
265.48044389167688
20
-53.167751898317171
30
0
0
SPLINE
5
488
100
AcDbEntity
8
0
100
AcDbSpline
70
0
71
2
72
6
73
3
74
0
42
0.000000001
43
0.0000000001
44
0.0000000001
40
0
40
0
40
0
40
1
40
1
40
1
10
265.48044389167688
20
-53.167751898317171
30
0
10
265.89313214698694
20
-52.864204515962435
30
0
10
266.09094804206751
20
-52.093399633912874
30
0
0
LINE
5
489
100
AcDbEntity
8
0
100
AcDbLine
10
266.09094804206751
20
-52.093399633912874
30
0
11
267.29149526039026
21
-52.257112135438753
31
0
0
SPLINE
5
490
100
AcDbEntity
8
0
100
AcDbSpline
70
0
71
2
72
6
73
3
74
0
42
0.000000001
43
0.0000000001
44
0.0000000001
40
0
40
0
40
0
40
1
40
1
40
1
10
267.29149526039026
20
-52.257112135438753
30
0
10
267.12778275886438
20
-53.027915825395418
30
0
10
266.75261205116175
20
-53.501995672731233
30
0
0
SPLINE
5
491
100
AcDbEntity
8
0
100
AcDbSpline
70
0
71
2
72
6
73
3
74
0
42
0.000000001
43
0.0000000001
44
0.0000000001
40
0
40
0
40
0
40
1
40
1
40
1
10
266.75261205116175
20
-53.501995672731233
30
0
10
266.37744134345911
20
-53.976074327974153
30
0
10
265.66802686134241
20
-54.231871237306429
30
0
0
SPLINE
5
492
100
AcDbEntity
8
0
100
AcDbSpline
70
0
71
2
72
6
73
3
74
0
42
0.000000001
43
0.0000000001
44
0.0000000001
40
0
40
0
40
0
40
1
40
1
40
1
10
265.66802686134241
20
-54.231871237306429
30
0
10
264.9586147634115
20
-54.487670530824495
30
0
10
264.02409976402186
20
-54.487670530824495
30
0
0
SPLINE
5
493
100
AcDbEntity
8
0
100
AcDbSpline
70
0
71
2
72
6
73
3
74
0
42
0.000000001
43
0.0000000001
44
0.0000000001
40
0
40
0
40
0
40
1
40
1
40
1
10
264.02409976402186
20
-54.487670530824495
30
0
10
263.0964059201803
20
-54.487670530824495
30
0
10
262.51659577766321
20
-54.269388784913851
30
0
0
SPLINE
5
494
100
AcDbEntity
8
0
100
AcDbSpline
70
0
71
2
72
6
73
3
74
0
42
0.000000001
43
0.0000000001
44
0.0000000001
40
0
40
0
40
0
40
1
40
1
40
1
10
262.51659577766321
20
-54.269388784913851
30
0
10
261.93678563514612
20
-54.051108231096102
30
0
10
261.66393464485071
20
-53.720275034456087
30
0
0
SPLINE
5
495
100
AcDbEntity
8
0
100
AcDbSpline
70
0
71
2
72
6
73
3
74
0
42
0.000000001
43
0.0000000001
44
0.0000000001
40
0
40
0
40
0
40
1
40
1
40
1
10
261.66393464485071
20
-53.720275034456087
30
0
10
261.3910836545553
20
-53.389443029908968
30
0
10
261.28194516578577
20
-52.884667982606722
30
0
0
SPLINE
5
496
100
AcDbEntity
8
0
100
AcDbSpline
70
0
71
2
72
6
73
3
74
0
42
0.000000001
43
0.0000000001
44
0.0000000001
40
0
40
0
40
0
40
1
40
1
40
1
10
261.28194516578577
20
-52.884667982606722
30
0
10
261.22055238166712
20
-52.570890059022737
30
0
10
261.22055238166712
20
-51.752337088136507
30
0
0
LINE
5
497
100
AcDbEntity
8
0
100
AcDbLine
10
261.22055238166712
20
-51.752337088136507
30
0
11
261.22055238166712
21
-50.115228762178255
31
0
0
SPLINE
5
498
100
AcDbEntity
8
0
100
AcDbSpline
70
0
71
2
72
6
73
3
74
0
42
0.000000001
43
0.0000000001
44
0.0000000001
40
0
40
0
40
0
40
1
40
1
40
1
10
261.22055238166712
20
-50.115228762178255
30
0
10
261.22055238166712
20
-48.403085341005159
30
0
10
261.14210790077112
20
-47.949470152406526
30
0
0
SPLINE
5
499
100
AcDbEntity
8
0
100
AcDbSpline
70
0
71
2
72
6
73
3
74
0
42
0.000000001
43
0.0000000001
44
0.0000000001
40
0
40
0
40
0
40
1
40
1
40
1
10
261.14210790077112
20
-47.949470152406526
30
0
10
261.06366341987513
20
-47.495854963807894
30
0
10
260.83173936286829
20
-47.079757322816683
30
0
0
LINE
5
500
100
AcDbEntity
8
0
100
AcDbLine
10
260.83173936286829
20
-47.079757322816683
30
0
11
262.11414044776819
21
-47.079757322816683
31
0
0
SPLINE
5
501
100
AcDbEntity
8
0
100
AcDbSpline
70
0
71
2
72
6
73
3
74
0
42
0.000000001
43
0.0000000001
44
0.0000000001
40
0
40
0
40
0
40
1
40
1
40
1
10
262.11414044776819
20
-47.079757322816683
30
0
10
262.30513757148645
20
-47.461749186067415
30
0
10
262.35970681587122
20
-47.973345388917757
30
0
0
SPLINE
5
502
100
AcDbEntity
8
0
100
AcDbSpline
70
0
71
2
72
6
73
3
74
0
42
0.000000001
43
0.0000000001
44
0.0000000001
40
0
40
0
40
0
40
1
40
1
40
1
10
262.46202653327845
20
-50.715499987153841
30
0
10
263.13051169792078
20
-50.442648996858431
30
0
10
264.46748441139124
20
-50.25165425732596
30
0
0
SPLINE
5
503
100
AcDbEntity
8
0
100
AcDbSpline
70
0
71
2
72
6
73
3
74
0
42
0.000000001
43
0.0000000001
44
0.0000000001
40
0
40
0
40
0
40
1
40
1
40
1
10
264.46748441139124
20
-50.25165425732596
30
0
10
265.22464459815882
20
-50.142513384370638
30
0
10
265.5384225217428
20
-50.006087889222933
30
0
0
SPLINE
5
504
100
AcDbEntity
8
0
100
AcDbSpline
70
0
71
2
72
6
73
3
74
0
42
0.000000001
43
0.0000000001
44
0.0000000001
40
0
40
0
40
0
40
1
40
1
40
1
10
265.5384225217428
20
-50.006087889222933
30
0
10
265.85220282951258
20
-49.869662394075227
30
0
10
266.02273648658655
20
-49.607041945009065
30
0
0
SPLINE
5
505
100
AcDbEntity
8
0
100
AcDbSpline
70
0
71
2
72
6
73
3
74
0
42
0.000000001
43
0.0000000001
44
0.0000000001
40
0
40
0
40
0
40
1
40
1
40
1
10
266.02273648658655
20
-49.607041945009065
30
0
10
266.19326775947474
20
-49.344423880128694
30
0
10
266.19326775947474
20
-49.023822416810823
30
0
0
SPLINE
5
506
100
AcDbEntity
8
0
100
AcDbSpline
70
0
71
2
72
6
73
3
74
0
42
0.000000001
43
0.0000000001
44
0.0000000001
40
0
40
0
40
0
40
1
40
1
40
1
10
266.19326775947474
20
-49.023822416810823
30
0
10
266.19326775947474
20
-48.532689680604769
30
0
10
265.82150643745325
20
-48.205269445924593
30
0
0
SPLINE
5
507
100
AcDbEntity
8
0
100
AcDbSpline
70
0
71
2
72
6
73
3
74
0
42
0.000000001
43
0.0000000001
44
0.0000000001
40
0
40
0
40
0
40
1
40
1
40
1
10
265.82150643745325
20
-48.205269445924593
30
0
10
265.44974749961756
20
-47.877846827058626
30
0
10
264.73351186195276
20
-47.877846827058626
30
0
0
SPLINE
5
508
100
AcDbEntity
8
0
100
AcDbSpline
70
0
71
2
72
6
73
3
74
0
42
0.000000001
43
0.0000000001
44
0.0000000001
40
0
40
0
40
0
40
1
40
1
40
1
10
264.73351186195276
20
-47.877846827058626
30
0
10
264.02409976402186
20
-47.877846827058626
30
0
10
263.47157662788294
20
-48.188215364961458
30
0
0
SPLINE
5
509
100
AcDbEntity
8
0
100
AcDbSpline
70
0
71
2
72
6
73
3
74
0
42
0.000000001
43
0.0000000001
44
0.0000000001
40
0
40
0
40
0
40
1
40
1
40
1
10
263.47157662788294
20
-48.188215364961458
30
0
10
262.91905110755823
20
-48.49858390286429
30
0
10
262.65984242835901
20
-49.037464727907015
30
0
0
SPLINE
5
510
100
AcDbEntity
8
0
100
AcDbSpline
70
0
71
2
72
6
73
3
74
0
42
0.000000001
43
0.0000000001
44
0.0000000001
40
0
40
0
40
0
40
1
40
1
40
1
10
262.65984242835901
20
-49.037464727907015
30
0
10
262.46202653327845
20
-49.453562368898226
30
0
10
262.46202653327845
20
-50.265296568422151
30
0
0
LINE
5
511
100
AcDbEntity
8
0
100
AcDbLine
10
262.46202653327845
20
-50.265296568422151
30
0
11
262.46202653327845
21
-50.715499987153841
31
0
0
LINE
5
512
100
AcDbEntity
8
0
100
AcDbLine
10
259.80854695716761
20
-49.242104162721468
30
0
11
258.59435981193445
21
-49.433098902253938
31
0
0
SPLINE
5
513
100
AcDbEntity
8
0
100
AcDbSpline
70
0
71
2
72
6
73
3
74
0
42
0.000000001
43
0.0000000001
44
0.0000000001
40
0
40
0
40
0
40
1
40
1
40
1
10
258.59435981193445
20
-49.433098902253938
30
0
10
258.49204009452723
20
-48.703223337678743
30
0
10
258.0247825948324
20
-48.314410318879915
30
0
0
SPLINE
5
514
100
AcDbEntity
8
0
100
AcDbSpline
70
0
71
2
72
6
73
3
74
0
42
0.000000001
43
0.0000000001
44
0.0000000001
40
0
40
0
40
0
40
1
40
1
40
1
10
258.0247825948324
20
-48.314410318879915
30
0
10
257.55752271095179
20
-47.925597300081087
30
0
10
256.71850627342127
20
-47.925597300081087
30
0
0
SPLINE
5
515
100
AcDbEntity
8
0
100
AcDbSpline
70
0
71
2
72
6
73
3
74
0
42
0.000000001
43
0.0000000001
44
0.0000000001
40
0
40
0
40
0
40
1
40
1
40
1
10
256.71850627342127
20
-47.925597300081087
30
0
10
255.87266629615686
20
-47.925597300081087
30
0
10
255.46339219489954
20
-48.270071615724397
30
0
0
SPLINE
5
516
100
AcDbEntity
8
0
100
AcDbSpline
70
0
71
2
72
6
73
3
74
0
42
0.000000001
43
0.0000000001
44
0.0000000001
40
0
40
0
40
0
40
1
40
1
40
1
10
255.46339219489954
20
-48.270071615724397
30
0
10
255.05411332527063
20
-48.614545931367708
30
0
10
255.05411332527063
20
-49.07839404538138
30
0
0
SPLINE
5
517
100
AcDbEntity
8
0
100
AcDbSpline
70
0
71
2
72
6
73
3
74
0
42
0.000000001
43
0.0000000001
44
0.0000000001
40
0
40
0
40
0
40
1
40
1
40
1
10
255.05411332527063
20
-49.07839404538138
30
0
10
255.05411332527063
20
-49.494491686372591
30
0
10
255.41564172187708
20
-49.733236898927522
30
0
0
SPLINE
5
518
100
AcDbEntity
8
0
100
AcDbSpline
70
0
71
2
72
6
73
3
74
0
42
0.000000001
43
0.0000000001
44
0.0000000001
40
0
40
0
40
0
40
1
40
1
40
1
10
255.41564172187708
20
-49.733236898927522
30
0
10
255.6680292455282
20
-49.89694701626761
30
0
10
256.67075580039881
20
-50.149334539918733
30
0
0
SPLINE
5
519
100
AcDbEntity
8
0
100
AcDbSpline
70
0
71
2
72
6
73
3
74
0
42
0.000000001
43
0.0000000001
44
0.0000000001
40
0
40
0
40
0
40
1
40
1
40
1
10
256.67075580039881
20
-50.149334539918733
30
0
10
258.02137082496546
20
-50.490399469880892
30
0
10
258.54319995323084
20
-50.739375223665071
30
0
0
SPLINE
5
520
100
AcDbEntity
8
0
100
AcDbSpline
70
0
71
2
72
6
73
3
74
0
42
0.000000001
43
0.0000000001
44
0.0000000001
40
0
40
0
40
0
40
1
40
1
40
1
10
258.54319995323084
20
-50.739375223665071
30
0
10
259.06502669731043
20
-50.988353361635042
30
0
10
259.33446830192469
20
-51.428326239137483
30
0
0
SPLINE
5
521
100
AcDbEntity
8
0
100
AcDbSpline
70
0
71
2
72
6
73
3
74
0
42
0.000000001
43
0.0000000001
44
0.0000000001
40
0
40
0
40
0
40
1
40
1
40
1
10
259.33446830192469
20
-51.428326239137483
30
0
10
259.60390752235315
20
-51.868296732454134
30
0
10
259.60390752235315
20
-52.400358786134554
30
0
0
SPLINE
5
522
100
AcDbEntity
8
0
100
AcDbSpline
70
0
71
2
72
6
73
3
74
0
42
0.000000001
43
0.0000000001
44
0.0000000001
40
0
40
0
40
0
40
1
40
1
40
1
10
259.60390752235315
20
-52.400358786134554
30
0
10
259.60390752235315
20
-52.884667982606722
30
0
10
259.38221639076136
20
-53.29735623791678
30
0
0
SPLINE
5
523
100
AcDbEntity
8
0
100
AcDbSpline
70
0
71
2
72
6
73
3
74
0
42
0.000000001
43
0.0000000001
44
0.0000000001
40
0
40
0
40
0
40
1
40
1
40
1
10
259.38221639076136
20
-53.29735623791678
30
0
10
259.16052525916956
20
-53.710044493226839
30
0
10
258.77853339591883
20
-53.982895483522249
30
0
0
SPLINE
5
524
100
AcDbEntity
8
0
100
AcDbSpline
70
0
71
2
72
6
73
3
74
0
42
0.000000001
43
0.0000000001
44
0.0000000001
40
0
40
0
40
0
40
1
40
1
40
1
10
258.77853339591883
20
-53.982895483522249
30
0
10
258.49204009452723
20
-54.194354881791902
30
0
10
257.99749558845423
20
-54.341012110261751
30
0
0
SPLINE
5
525
100
AcDbEntity
8
0
100
AcDbSpline
70
0
71
2
72
6
73
3
74
0
42
0.000000001
43
0.0000000001
44
0.0000000001
40
0
40
0
40
0
40
1
40
1
40
1
10
257.99749558845423
20
-54.341012110261751
30
0
10
257.50295346656702
20
-54.487670530824495
30
0
10
256.93678801933191
20
-54.487670530824495
30
0
0
SPLINE
5
526
100
AcDbEntity
8
0
100
AcDbSpline
70
0
71
2
72
6
73
3
74
0
42
0.000000001
43
0.0000000001
44
0.0000000001
40
0
40
0
40
0
40
1
40
1
40
1
10
256.93678801933191
20
-54.487670530824495
30
0
10
256.08412688651941
20
-54.487670530824495
30
0
10
255.43951219001673
20
-54.242104162721468
30
0
0
SPLINE
5
527
100
AcDbEntity
8
0
100
AcDbSpline
70
0
71
2
72
6
73
3
74
0
42
0.000000001
43
0.0000000001
44
0.0000000001
40
0
40
0
40
0
40
1
40
1
40
1
10
255.43951219001673
20
-54.242104162721468
30
0
10
254.79490464607142
20
-53.99653779461844
30
0
10
254.48794549384974
20
-53.577028383760286
30
0
0
SPLINE
5
528
100
AcDbEntity
8
0
100
AcDbSpline
70
0
71
2
72
6
73
3
74
0
42
0.000000001
43
0.0000000001
44
0.0000000001
40
0
40
0
40
0
40
1
40
1
40
1
10
254.48794549384974
20
-53.577028383760286
30
0
10
254.18098634162806
20
-53.157520164995027
30
0
10
254.06502908149622
20
-52.454928030519319
30
0
0
LINE
5
529
100
AcDbEntity
8
0
100
AcDbLine
10
254.06502908149622
20
-52.454928030519319
30
0
11
255.26557153144739
21
-52.291217913179231
31
0
0
SPLINE
5
530
100
AcDbEntity
8
0
100
AcDbSpline
70
0
71
2
72
6
73
3
74
0
42
0.000000001
43
0.0000000001
44
0.0000000001
40
0
40
0
40
0
40
1
40
1
40
1
10
255.26557153144739
20
-52.291217913179231
30
0
10
255.34742539802454
20
-52.850562204866243
30
0
10
255.7396525708761
20
-53.164341320543123
30
0
0
SPLINE
5
531
100
AcDbEntity
8
0
100
AcDbSpline
70
0
71
2
72
6
73
3
74
0
42
0.000000001
43
0.0000000001
44
0.0000000001
40
0
40
0
40
0
40
1
40
1
40
1
10
255.7396525708761
20
-53.164341320543123
30
0
10
256.13187497535608
20
-53.478120436220003
30
0
10
256.84811061302088
20
-53.478120436220003
30
0
0
SPLINE
5
532
100
AcDbEntity
8
0
100
AcDbSpline
70
0
71
2
72
6
73
3
74
0
42
0.000000001
43
0.0000000001
44
0.0000000001
40
0
40
0
40
0
40
1
40
1
40
1
10
256.84811061302088
20
-53.478120436220003
30
0
10
257.69394820609949
20
-53.478120436220003
30
0
10
258.05547660270594
20
-53.198448290376497
30
0
0
SPLINE
5
533
100
AcDbEntity
8
0
100
AcDbSpline
70
0
71
2
72
6
73
3
74
0
42
0.000000001
43
0.0000000001
44
0.0000000001
40
0
40
0
40
0
40
1
40
1
40
1
10
258.05547660270594
20
-53.198448290376497
30
0
10
258.41700499931238
20
-52.918774952440096
30
0
10
258.41700499931238
20
-52.543605436830354
30
0
0
SPLINE
5
534
100
AcDbEntity
8
0
100
AcDbSpline
70
0
71
2
72
6
73
3
74
0
42
0.000000001
43
0.0000000001
44
0.0000000001
40
0
40
0
40
0
40
1
40
1
40
1
10
258.41700499931238
20
-52.543605436830354
30
0
10
258.41700499931238
20
-52.304860224275423
30
0
10
258.26693719306849
20
-52.113863100557161
30
0
0
SPLINE
5
535
100
AcDbEntity
8
0
100
AcDbSpline
70
0
71
2
72
6
73
3
74
0
42
0.000000001
43
0.0000000001
44
0.0000000001
40
0
40
0
40
0
40
1
40
1
40
1
10
258.26693719306849
20
-52.113863100557161
30
0
10
258.11686938682459
20
-51.916047205476595
30
0
10
257.79626792350672
20
-51.786442865876985
30
0
0
SPLINE
5
536
100
AcDbEntity
8
0
100
AcDbSpline
70
0
71
2
72
6
73
3
74
0
42
0.000000001
43
0.0000000001
44
0.0000000001
40
0
40
0
40
0
40
1
40
1
40
1
10
257.79626792350672
20
-51.786442865876985
30
0
10
257.61209433952234
20
-51.718228926210237
30
0
10
256.71168511787317
20
-51.47266255810721
30
0
0
SPLINE
5
537
100
AcDbEntity
8
0
100
AcDbSpline
70
0
71
2
72
6
73
3
74
0
42
0.000000001
43
0.0000000001
44
0.0000000001
40
0
40
0
40
0
40
1
40
1
40
1
10
256.71168511787317
20
-51.47266255810721
30
0
10
255.40882295051478
20
-51.124778856782747
30
0
10
254.89381020942591
20
-50.903085341005159
30
0
0
SPLINE
5
538
100
AcDbEntity
8
0
100
AcDbSpline
70
0
71
2
72
6
73
3
74
0
42
0.000000001
43
0.0000000001
44
0.0000000001
40
0
40
0
40
0
40
1
40
1
40
1
10
254.89381020942591
20
-50.903085341005159
30
0
10
254.3788070050802
20
-50.681394209413362
30
0
10
254.08549016395472
20
-50.258475412874056
30
0
0
SPLINE
5
539
100
AcDbEntity
8
0
100
AcDbSpline
70
0
71
2
72
6
73
3
74
0
42
0.000000001
43
0.0000000001
44
0.0000000001
40
0
40
0
40
0
40
1
40
1
40
1
10
254.08549016395472
20
-50.258475412874056
30
0
10
253.79217332282923
20
-49.835556616334749
30
0
10
253.79217332282923
20
-49.207998384980989
30
0
0
SPLINE
5
540
100
AcDbEntity
8
0
100
AcDbSpline
70
0
71
2
72
6
73
3
74
0
42
0.000000001
43
0.0000000001
44
0.0000000001
40
0
40
0
40
0
40
1
40
1
40
1
10
253.79217332282923
20
-49.207998384980989
30
0
10
253.79217332282923
20
-48.594082464723421
30
0
10
254.15029233375452
20
-48.051789869813753
30
0
0
SPLINE
5
541
100
AcDbEntity
8
0
100
AcDbSpline
70
0
71
2
72
6
73
3
74
0
42
0.000000001
43
0.0000000001
44
0.0000000001
40
0
40
0
40
0
40
1
40
1
40
1
10
254.15029233375452
20
-48.051789869813753
30
0
10
254.50841134467981
20
-47.509497274904085
30
0
10
255.18371766487024
20
-47.212773432283235
30
0
0
SPLINE
5
542
100
AcDbEntity
8
0
100
AcDbSpline
70
0
71
2
72
6
73
3
74
0
42
0.000000001
43
0.0000000001
44
0.0000000001
40
0
40
0
40
0
40
1
40
1
40
1
10
255.18371766487024
20
-47.212773432283235
30
0
10
255.85902398506067
20
-46.916047205476595
30
0
10
256.71168511787317
20
-46.916047205476595
30
0
0
SPLINE
5
543
100
AcDbEntity
8
0
100
AcDbSpline
70
0
71
2
72
6
73
3
74
0
42
0.000000001
43
0.0000000001
44
0.0000000001
40
0
40
0
40
0
40
1
40
1
40
1
10
256.71168511787317
20
-46.916047205476595
30
0
10
258.12369054237269
20
-46.916047205476595
30
0
10
258.86379903236292
20
-47.502676119355989
30
0
0
SPLINE
5
544
100
AcDbEntity
8
0
100
AcDbSpline
70
0
71
2
72
6
73
3
74
0
42
0.000000001
43
0.0000000001
44
0.0000000001
40
0
40
0
40
0
40
1
40
1
40
1
10
258.86379903236292
20
-47.502676119355989
30
0
10
259.60390752235315
20
-48.089307417421175
30
0
10
259.80854695716761
20
-49.242104162721468
30
0
0
LINE
5
545
100
AcDbEntity
8
0
100
AcDbLine
10
252.82355492988489
20
-49.242104162721468
30
0
11
251.60936540046595
21
-49.433098902253938
31
0
0
SPLINE
5
546
100
AcDbEntity
8
0
100
AcDbSpline
70
0
71
2
72
6
73
3
74
0
42
0.000000001
43
0.0000000001
44
0.0000000001
40
0
40
0
40
0
40
1
40
1
40
1
10
251.60936540046595
20
-49.433098902253938
30
0
10
251.50704568305872
20
-48.703223337678743
30
0
10
251.03979295173548
20
-48.314410318879915
30
0
0
SPLINE
5
547
100
AcDbEntity
8
0
100
AcDbSpline
70
0
71
2
72
6
73
3
74
0
42
0.000000001
43
0.0000000001
44
0.0000000001
40
0
40
0
40
0
40
1
40
1
40
1
10
251.03979295173548
20
-48.314410318879915
30
0
10
250.57253068366907
20
-47.925597300081087
30
0
10
249.73351663032435
20
-47.925597300081087
30
0
0
SPLINE
5
548
100
AcDbEntity
8
0
100
AcDbSpline
70
0
71
2
72
6
73
3
74
0
42
0.000000001
43
0.0000000001
44
0.0000000001
40
0
40
0
40
0
40
1
40
1
40
1
10
249.73351663032435
20
-47.925597300081087
30
0
10
248.88767426887415
20
-47.925597300081087
30
0
10
248.47839539924524
20
-48.270071615724397
30
0
0
SPLINE
5
549
100
AcDbEntity
8
0
100
AcDbSpline
70
0
71
2
72
6
73
3
74
0
42
0.000000001
43
0.0000000001
44
0.0000000001
40
0
40
0
40
0
40
1
40
1
40
1
10
248.47839539924524
20
-48.270071615724397
30
0
10
248.06912129798792
20
-48.614545931367708
30
0
10
248.06912129798792
20
-49.07839404538138
30
0
0
SPLINE
5
550
100
AcDbEntity
8
0
100
AcDbSpline
70
0
71
2
72
6
73
3
74
0
42
0.000000001
43
0.0000000001
44
0.0000000001
40
0
40
0
40
0
40
1
40
1
40
1
10
248.06912129798792
20
-49.07839404538138
30
0
10
248.06912129798792
20
-49.494491686372591
30
0
10
248.43064969459436
20
-49.733236898927522
30
0
0
SPLINE
5
551
100
AcDbEntity
8
0
100
AcDbSpline
70
0
71
2
72
6
73
3
74
0
42
0.000000001
43
0.0000000001
44
0.0000000001
40
0
40
0
40
0
40
1
40
1
40
1
10
248.43064969459436
20
-49.733236898927522
30
0
10
248.6830348340597
20
-49.89694701626761
30
0
10
249.68576615730188
20
-50.149334539918733
30
0
0
SPLINE
5
552
100
AcDbEntity
8
0
100
AcDbSpline
70
0
71
2
72
6
73
3
74
0
42
0.000000001
43
0.0000000001
44
0.0000000001
40
0
40
0
40
0
40
1
40
1
40
1
10
249.68576615730188
20
-50.149334539918733
30
0
10
251.03637879768274
20
-50.490399469880892
30
0
10
251.55821031013392
20
-50.739375223665071
30
0
0
SPLINE
5
553
100
AcDbEntity
8
0
100
AcDbSpline
70
0
71
2
72
6
73
3
74
0
42
0.000000001
43
0.0000000001
44
0.0000000001
40
0
40
0
40
0
40
1
40
1
40
1
10
251.55821031013392
20
-50.739375223665071
30
0
10
252.08003228584192
20
-50.988353361635042
30
0
10
252.34947389045618
20
-51.428326239137483
30
0
0
SPLINE
5
554
100
AcDbEntity
8
0
100
AcDbSpline
70
0
71
2
72
6
73
3
74
0
42
0.000000001
43
0.0000000001
44
0.0000000001
40
0
40
0
40
0
40
1
40
1
40
1
10
252.34947389045618
20
-51.428326239137483
30
0
10
252.61891549507044
20
-51.868296732454134
30
0
10
252.61891549507044
20
-52.400358786134554
30
0
0
SPLINE
5
555
100
AcDbEntity
8
0
100
AcDbSpline
70
0
71
2
72
6
73
3
74
0
42
0.000000001
43
0.0000000001
44
0.0000000001
40
0
40
0
40
0
40
1
40
1
40
1
10
252.61891549507044
20
-52.400358786134554
30
0
10
252.61891549507044
20
-52.884667982606722
30
0
10
252.39722436347864
20
-53.29735623791678
30
0
0
SPLINE
5
556
100
AcDbEntity
8
0
100
AcDbSpline
70
0
71
2
72
6
73
3
74
0
42
0.000000001
43
0.0000000001
44
0.0000000001
40
0
40
0
40
0
40
1
40
1
40
1
10
252.39722436347864
20
-53.29735623791678
30
0
10
252.17553323188685
20
-53.710044493226839
30
0
10
251.79353898445032
20
-53.982895483522249
30
0
0
SPLINE
5
557
100
AcDbEntity
8
0
100
AcDbSpline
70
0
71
2
72
6
73
3
74
0
42
0.000000001
43
0.0000000001
44
0.0000000001
40
0
40
0
40
0
40
1
40
1
40
1
10
251.79353898445032
20
-53.982895483522249
30
0
10
251.50704568305872
20
-54.194354881791902
30
0
10
251.01250356117151
20
-54.341012110261751
30
0
0
SPLINE
5
558
100
AcDbEntity
8
0
100
AcDbSpline
70
0
71
2
72
6
73
3
74
0
42
0.000000001
43
0.0000000001
44
0.0000000001
40
0
40
0
40
0
40
1
40
1
40
1
10
251.01250356117151
20
-54.341012110261751
30
0
10
250.51796143928431
20
-54.487670530824495
30
0
10
249.95179360786341
20
-54.487670530824495
30
0
0
SPLINE
5
559
100
AcDbEntity
8
0
100
AcDbSpline
70
0
71
2
72
6
73
3
74
0
42
0.000000001
43
0.0000000001
44
0.0000000001
40
0
40
0
40
0
40
1
40
1
40
1
10
249.95179360786341
20
-54.487670530824495
30
0
10
249.09913247505091
20
-54.487670530824495
30
0
10
248.4545249311056
20
-54.242104162721468
30
0
0
SPLINE
5
560
100
AcDbEntity
8
0
100
AcDbSpline
70
0
71
2
72
6
73
3
74
0
42
0.000000001
43
0.0000000001
44
0.0000000001
40
0
40
0
40
0
40
1
40
1
40
1
10
248.4545249311056
20
-54.242104162721468
30
0
10
247.8099126187887
20
-53.99653779461844
30
0
10
247.5029582349386
20
-53.577028383760286
30
0
0
SPLINE
5
561
100
AcDbEntity
8
0
100
AcDbSpline
70
0
71
2
72
6
73
3
74
0
42
0.000000001
43
0.0000000001
44
0.0000000001
40
0
40
0
40
0
40
1
40
1
40
1
10
247.5029582349386
20
-53.577028383760286
30
0
10
247.19599908271692
20
-53.157520164995027
30
0
10
247.08003228584192
20
-52.454928030519319
30
0
0
LINE
5
562
100
AcDbEntity
8
0
100
AcDbLine
10
247.08003228584192
20
-52.454928030519319
30
0
11
248.28058427253626
21
-52.291217913179231
31
0
0
SPLINE
5
563
100
AcDbEntity
8
0
100
AcDbSpline
70
0
71
2
72
6
73
3
74
0
42
0.000000001
43
0.0000000001
44
0.0000000001
40
0
40
0
40
0
40
1
40
1
40
1
10
248.28058427253626
20
-52.291217913179231
30
0
10
248.36243813911341
20
-52.850562204866243
30
0
10
248.75466054359339
20
-53.164341320543123
30
0
0
SPLINE
5
564
100
AcDbEntity
8
0
100
AcDbSpline
70
0
71
2
72
6
73
3
74
0
42
0.000000001
43
0.0000000001
44
0.0000000001
40
0
40
0
40
0
40
1
40
1
40
1
10
248.75466054359339
20
-53.164341320543123
30
0
10
249.14688294807337
20
-53.478120436220003
30
0
10
249.86312096992395
20
-53.478120436220003
30
0
0
SPLINE
5
565
100
AcDbEntity
8
0
100
AcDbSpline
70
0
71
2
72
6
73
3
74
0
42
0.000000001
43
0.0000000001
44
0.0000000001
40
0
40
0
40
0
40
1
40
1
40
1
10
249.86312096992395
20
-53.478120436220003
30
0
10
250.70895379463099
20
-53.478120436220003
30
0
10
251.07048219123743
20
-53.198448290376497
30
0
0
SPLINE
5
566
100
AcDbEntity
8
0
100
AcDbSpline
70
0
71
2
72
6
73
3
74
0
42
0.000000001
43
0.0000000001
44
0.0000000001
40
0
40
0
40
0
40
1
40
1
40
1
10
251.07048219123743
20
-53.198448290376497
30
0
10
251.43201058784388
20
-52.918774952440096
30
0
10
251.43201058784388
20
-52.543605436830354
30
0
0
SPLINE
5
567
100
AcDbEntity
8
0
100
AcDbSpline
70
0
71
2
72
6
73
3
74
0
42
0.000000001
43
0.0000000001
44
0.0000000001
40
0
40
0
40
0
40
1
40
1
40
1
10
251.43201058784388
20
-52.543605436830354
30
0
10
251.43201058784388
20
-52.304860224275423
30
0
10
251.28194516578577
20
-52.113863100557161
30
0
0
SPLINE
5
568
100
AcDbEntity
8
0
100
AcDbSpline
70
0
71
2
72
6
73
3
74
0
42
0.000000001
43
0.0000000001
44
0.0000000001
40
0
40
0
40
0
40
1
40
1
40
1
10
251.28194516578577
20
-52.113863100557161
30
0
10
251.13187974372767
20
-51.916047205476595
30
0
10
250.81127351203821
20
-51.786442865876985
30
0
0
SPLINE
5
569
100
AcDbEntity
8
0
100
AcDbSpline
70
0
71
2
72
6
73
3
74
0
42
0.000000001
43
0.0000000001
44
0.0000000001
40
0
40
0
40
0
40
1
40
1
40
1
10
250.81127351203821
20
-51.786442865876985
30
0
10
250.62709992805384
20
-51.718228926210237
30
0
10
249.72669309059046
20
-51.47266255810721
30
0
0
SPLINE
5
570
100
AcDbEntity
8
0
100
AcDbSpline
70
0
71
2
72
6
73
3
74
0
42
0.000000001
43
0.0000000001
44
0.0000000001
40
0
40
0
40
0
40
1
40
1
40
1
10
249.72669309059046
20
-51.47266255810721
30
0
10
248.42382615486048
20
-51.124778856782747
30
0
10
247.90882295051478
20
-50.903085341005159
30
0
0
SPLINE
5
571
100
AcDbEntity
8
0
100
AcDbSpline
70
0
71
2
72
6
73
3
74
0
42
0.000000001
43
0.0000000001
44
0.0000000001
40
0
40
0
40
0
40
1
40
1
40
1
10
247.90882295051478
20
-50.903085341005159
30
0
10
247.39381497779749
20
-50.681394209413362
30
0
10
247.100498136672
20
-50.258475412874056
30
0
0
SPLINE
5
572
100
AcDbEntity
8
0
100
AcDbSpline
70
0
71
2
72
6
73
3
74
0
42
0.000000001
43
0.0000000001
44
0.0000000001
40
0
40
0
40
0
40
1
40
1
40
1
10
247.100498136672
20
-50.258475412874056
30
0
10
246.8071860639181
20
-49.835556616334749
30
0
10
246.8071860639181
20
-49.207998384980989
30
0
0
SPLINE
5
573
100
AcDbEntity
8
0
100
AcDbSpline
70
0
71
2
72
6
73
3
74
0
42
0.000000001
43
0.0000000001
44
0.0000000001
40
0
40
0
40
0
40
1
40
1
40
1
10
246.8071860639181
20
-49.207998384980989
30
0
10
246.8071860639181
20
-48.594082464723421
30
0
10
247.16530030647181
20
-48.051789869813753
30
0
0
SPLINE
5
574
100
AcDbEntity
8
0
100
AcDbSpline
70
0
71
2
72
6
73
3
74
0
42
0.000000001
43
0.0000000001
44
0.0000000001
40
0
40
0
40
0
40
1
40
1
40
1
10
247.16530030647181
20
-48.051789869813753
30
0
10
247.5234193173971
20
-47.509497274904085
30
0
10
248.19872563758753
20
-47.212773432283235
30
0
0
SPLINE
5
575
100
AcDbEntity
8
0
100
AcDbSpline
70
0
71
2
72
6
73
3
74
0
42
0.000000001
43
0.0000000001
44
0.0000000001
40
0
40
0
40
0
40
1
40
1
40
1
10
248.19872563758753
20
-47.212773432283235
30
0
10
248.87403195777796
20
-46.916047205476595
30
0
10
249.72669309059046
20
-46.916047205476595
30
0
0
SPLINE
5
576
100
AcDbEntity
8
0
100
AcDbSpline
70
0
71
2
72
6
73
3
74
0
42
0.000000001
43
0.0000000001
44
0.0000000001
40
0
40
0
40
0
40
1
40
1
40
1
10
249.72669309059046
20
-46.916047205476595
30
0
10
251.13869851508997
20
-46.916047205476595
30
0
10
251.8788070050802
20
-47.502676119355989
30
0
0
SPLINE
5
577
100
AcDbEntity
8
0
100
AcDbSpline
70
0
71
2
72
6
73
3
74
0
42
0.000000001
43
0.0000000001
44
0.0000000001
40
0
40
0
40
0
40
1
40
1
40
1
10
251.8788070050802
20
-47.502676119355989
30
0
10
252.61891549507044
20
-48.089307417421175
30
0
10
252.82355492988489
20
-49.242104162721468
30
0
0
LINE
5
578
100
AcDbEntity
8
0
100
AcDbLine
10
68.667845631818309
20
-129.37050206663199
30
0
11
68.667845631818309
21
-130.50965650083609
31
0
0
LINE
5
579
100
AcDbEntity
8
0
100
AcDbLine
10
68.667845631818309
20
-130.50965650083609
30
0
11
58.667845631818309
21
-130.50965650083609
31
0
0
LINE
5
580
100
AcDbEntity
8
0
100
AcDbLine
10
58.667845631818317
20
-130.50965650083609
30
0
11
58.667845631818317
21
-129.28181989194937
31
0
0
LINE
5
581
100
AcDbEntity
8
0
100
AcDbLine
10
58.667845631818317
20
-129.28181989194937
30
0
11
62.235374356488727
21
-129.28181989194937
31
0
0
SPLINE
5
582
100
AcDbEntity
8
0
100
AcDbSpline
70
0
71
2
72
6
73
3
74
0
42
0.000000001
43
0.0000000001
44
0.0000000001
40
0
40
0
40
0
40
1
40
1
40
1
10
62.23537435648872
20
-129.28181989194937
30
0
10
61.259932423810497
20
-128.50419385435171
30
0
10
61.259932423810497
20
-127.29683263303824
30
0
0
SPLINE
5
583
100
AcDbEntity
8
0
100
AcDbSpline
70
0
71
2
72
6
73
3
74
0
42
0.000000001
43
0.0000000001
44
0.0000000001
40
0
40
0
40
0
40
1
40
1
40
1
10
61.259932423810497
20
-127.29683263303824
30
0
10
61.259932423810497
20
-126.62834508421011
30
0
10
61.529374028424755
20
-126.03147847654409
30
0
0
SPLINE
5
584
100
AcDbEntity
8
0
100
AcDbSpline
70
0
71
2
72
6
73
3
74
0
42
0.000000001
43
0.0000000001
44
0.0000000001
40
0
40
0
40
0
40
1
40
1
40
1
10
61.529374028424755
20
-126.03147847654409
30
0
10
61.798813248853222
20
-125.43462140562124
30
0
10
62.286534215192333
20
-125.04921300413199
30
0
0
SPLINE
5
585
100
AcDbEntity
8
0
100
AcDbSpline
70
0
71
2
72
6
73
3
74
0
42
0.000000001
43
0.0000000001
44
0.0000000001
40
0
40
0
40
0
40
1
40
1
40
1
10
62.286534215192333
20
-125.04921300413199
30
0
10
62.774257565717235
20
-124.66381413938589
30
0
10
63.463206197003856
20
-124.44553716184683
30
0
0
SPLINE
5
586
100
AcDbEntity
8
0
100
AcDbSpline
70
0
71
2
72
6
73
3
74
0
42
0.000000001
43
0.0000000001
44
0.0000000001
40
0
40
0
40
0
40
1
40
1
40
1
10
63.463206197003856
20
-124.44553716184683
30
0
10
64.152157212476268
20
-124.2272506475646
30
0
10
64.93660440562202
20
-124.2272506475646
30
0
0
SPLINE
5
587
100
AcDbEntity
8
0
100
AcDbSpline
70
0
71
2
72
6
73
3
74
0
42
0.000000001
43
0.0000000001
44
0.0000000001
40
0
40
0
40
0
40
1
40
1
40
1
10
64.93660440562202
20
-124.2272506475646
30
0
10
66.798813248853222
20
-124.2272506475646
30
0
10
67.815184499005809
20
-125.14812810422964
30
0
0
SPLINE
5
588
100
AcDbEntity
8
0
100
AcDbSpline
70
0
71
2
72
6
73
3
74
0
42
0.000000001
43
0.0000000001
44
0.0000000001
40
0
40
0
40
0
40
1
40
1
40
1
10
67.815184499005809
20
-125.14812810422964
30
0
10
68.831555749158397
20
-126.06899602415152
30
0
10
68.831555749158397
20
-127.35822064878531
30
0
0
SPLINE
5
589
100
AcDbEntity
8
0
100
AcDbSpline
70
0
71
2
72
6
73
3
74
0
42
0.000000001
43
0.0000000001
44
0.0000000001
40
0
40
0
40
0
40
1
40
1
40
1
10
68.831555749158397
20
-127.35822064878531
30
0
10
68.831555749158397
20
-128.64062650205679
30
0
10
67.760615254621044
20
-129.37050206663199
30
0
0
LINE
5
590
100
AcDbEntity
8
0
100
AcDbLine
10
67.760615254621044
20
-129.37050206663199
30
0
11
68.667845631818309
21
-129.37050206663199
31
0
0
SPLINE
5
591
100
AcDbEntity
8
0
100
AcDbSpline
70
0
71
2
72
6
73
3
74
0
42
0.000000001
43
0.0000000001
44
0.0000000001
40
0
40
0
40
0
40
1
40
1
40
1
10
64.991173650006786
20
-129.38413960935659
30
0
10
66.294038201550975
20
-129.38413960935659
30
0
10
66.873848344068065
20
-129.02943952085562
30
0
0
SPLINE
5
592
100
AcDbEntity
8
0
100
AcDbSpline
70
0
71
2
72
6
73
3
74
0
42
0.000000001
43
0.0000000001
44
0.0000000001
40
0
40
0
40
0
40
1
40
1
40
1
10
66.873848344068065
20
-129.02943952085562
30
0
10
67.822005654553905
20
-128.44962460996695
30
0
10
67.822005654553905
20
-127.46054036619253
30
0
0
SPLINE
5
593
100
AcDbEntity
8
0
100
AcDbSpline
70
0
71
2
72
6
73
3
74
0
42
0.000000001
43
0.0000000001
44
0.0000000001
40
0
40
0
40
0
40
1
40
1
40
1
10
67.822005654553905
20
-127.46054036619253
30
0
10
67.822005654553905
20
-126.65562970640249
30
0
10
67.122824097852245
20
-126.06899602415152
30
0
0
SPLINE
5
594
100
AcDbEntity
8
0
100
AcDbSpline
70
0
71
2
72
6
73
3
74
0
42
0.000000001
43
0.0000000001
44
0.0000000001
40
0
40
0
40
0
40
1
40
1
40
1
10
67.122824097852245
20
-126.06899602415152
30
0
10
66.423642541150585
20
-125.4823718786437
30
0
10
65.038924123029247
20
-125.4823718786437
30
0
0
SPLINE
5
595
100
AcDbEntity
8
0
100
AcDbSpline
70
0
71
2
72
6
73
3
74
0
42
0.000000001
43
0.0000000001
44
0.0000000001
40
0
40
0
40
0
40
1
40
1
40
1
10
65.038924123029247
20
-125.4823718786437
30
0
10
63.620095158795849
20
-125.4823718786437
30
0
10
62.944788838605419
20
-126.04512555601187
30
0
0
SPLINE
5
596
100
AcDbEntity
8
0
100
AcDbSpline
70
0
71
2
72
6
73
3
74
0
42
0.000000001
43
0.0000000001
44
0.0000000001
40
0
40
0
40
0
40
1
40
1
40
1
10
62.944788838605419
20
-126.04512555601187
30
0
10
62.269482518414989
20
-126.60787923338003
30
0
10
62.269482518414989
20
-127.40597112180777
30
0
0
SPLINE
5
597
100
AcDbEntity
8
0
100
AcDbSpline
70
0
71
2
72
6
73
3
74
0
42
0.000000001
43
0.0000000001
44
0.0000000001
40
0
40
0
40
0
40
1
40
1
40
1
10
62.269482518414989
20
-127.40597112180777
30
0
10
62.269482518414989
20
-128.21088178159781
30
0
10
62.968664075116649
20
-128.79751546384878
30
0
0
SPLINE
5
598
100
AcDbEntity
8
0
100
AcDbSpline
70
0
71
2
72
6
73
3
74
0
42
0.000000001
43
0.0000000001
44
0.0000000001
40
0
40
0
40
0
40
1
40
1
40
1
10
62.968664075116649
20
-128.79751546384878
30
0
10
63.667845631818309
20
-129.38413960935659
30
0
10
64.991173650006786
20
-129.38413960935659
30
0
0
SPLINE
5
599
100
AcDbEntity
8
0
100
AcDbSpline
70
0
71
2
72
6
73
3
74
0
42
0.000000001
43
0.0000000001
44
0.0000000001
40
0
40
0
40
0
40
1
40
1
40
1
10
65.045745278577343
20
-123.19041593076773
30
0
10
63.033466244916454
20
-123.19041593076773
30
0
10
62.064843083600536
20
-122.0717273473937
30
0
0
SPLINE
5
600
100
AcDbEntity
8
0
100
AcDbSpline
70
0
71
2
72
6
73
3
74
0
42
0.000000001
43
0.0000000001
44
0.0000000001
40
0
40
0
40
0
40
1
40
1
40
1
10
62.064843083600536
20
-122.0717273473937
30
0
10
61.259932423810497
20
-121.13721234800406
30
0
10
61.259932423810497
20
-119.7934184789855
30
0
0
SPLINE
5
601
100
AcDbEntity
8
0
100
AcDbSpline
70
0
71
2
72
6
73
3
74
0
42
0.000000001
43
0.0000000001
44
0.0000000001
40
0
40
0
40
0
40
1
40
1
40
1
10
61.259932423810497
20
-119.7934184789855
30
0
10
61.259932423810497
20
-118.29956395628042
30
0
10
62.238786126355663
20
-117.351401877423
30
0
0
SPLINE
5
602
100
AcDbEntity
8
0
100
AcDbSpline
70
0
71
2
72
6
73
3
74
0
42
0.000000001
43
0.0000000001
44
0.0000000001
40
0
40
0
40
0
40
1
40
1
40
1
10
62.238786126355663
20
-117.351401877423
30
0
10
63.217639828900829
20
-116.40323979856558
30
0
10
64.943425561170116
20
-116.40323979856558
30
0
0
SPLINE
5
603
100
AcDbEntity
8
0
100
AcDbSpline
70
0
71
2
72
6
73
3
74
0
42
0.000000001
43
0.0000000001
44
0.0000000001
40
0
40
0
40
0
40
1
40
1
40
1
10
64.943425561170116
20
-116.40323979856558
30
0
10
66.341788674573436
20
-116.40323979856558
30
0
10
67.143289948682323
20
-116.82275159360952
30
0
0
SPLINE
5
604
100
AcDbEntity
8
0
100
AcDbSpline
70
0
71
2
72
6
73
3
74
0
42
0.000000001
43
0.0000000001
44
0.0000000001
40
0
40
0
40
0
40
1
40
1
40
1
10
67.143289948682323
20
-116.82275159360952
30
0
10
67.944788838605419
20
-117.24226338865347
30
0
10
68.388173485974804
20
-118.04375989439077
30
0
0
SPLINE
5
605
100
AcDbEntity
8
0
100
AcDbSpline
70
0
71
2
72
6
73
3
74
0
42
0.000000001
43
0.0000000001
44
0.0000000001
40
0
40
0
40
0
40
1
40
1
40
1
10
68.388173485974804
20
-118.04375989439077
30
0
10
68.831555749158397
20
-118.84525640012808
30
0
10
68.831555749158397
20
-119.7934184789855
30
0
0
SPLINE
5
606
100
AcDbEntity
8
0
100
AcDbSpline
70
0
71
2
72
6
73
3
74
0
42
0.000000001
43
0.0000000001
44
0.0000000001
40
0
40
0
40
0
40
1
40
1
40
1
10
68.831555749158397
20
-119.7934184789855
30
0
10
68.831555749158397
20
-121.31456716062613
30
0
10
67.856113816480175
20
-122.25249631406851
30
0
0
SPLINE
5
607
100
AcDbEntity
8
0
100
AcDbSpline
70
0
71
2
72
6
73
3
74
0
42
0.000000001
43
0.0000000001
44
0.0000000001
40
0
40
0
40
0
40
1
40
1
40
1
10
67.856113816480175
20
-122.25249631406851
30
0
10
66.880669499616161
20
-123.19041593076773
30
0
10
65.045745278577343
20
-123.19041593076773
30
0
0
SPLINE
5
608
100
AcDbEntity
8
0
100
AcDbSpline
70
0
71
2
72
6
73
3
74
0
42
0.000000001
43
0.0000000001
44
0.0000000001
40
0
40
0
40
0
40
1
40
1
40
1
10
65.045745278577343
20
-121.92848546506949
30
0
10
66.437287236432567
20
-121.92848546506949
30
0
10
67.129645253400341
20
-121.32138593198843
30
0
0
SPLINE
5
609
100
AcDbEntity
8
0
100
AcDbSpline
70
0
71
2
72
6
73
3
74
0
42
0.000000001
43
0.0000000001
44
0.0000000001
40
0
40
0
40
0
40
1
40
1
40
1
10
67.129645253400341
20
-121.32138593198843
30
0
10
67.822005654553905
20
-120.71429593565054
30
0
10
67.822005654553905
20
-119.7934184789855
30
0
0
SPLINE
5
610
100
AcDbEntity
8
0
100
AcDbSpline
70
0
71
2
72
6
73
3
74
0
42
0.000000001
43
0.0000000001
44
0.0000000001
40
0
40
0
40
0
40
1
40
1
40
1
10
67.822005654553905
20
-119.7934184789855
30
0
10
67.822005654553905
20
-118.87936933042593
30
0
10
67.126235867719188
20
-118.27226979734488
30
0
0
SPLINE
5
611
100
AcDbEntity
8
0
100
AcDbSpline
70
0
71
2
72
6
73
3
74
0
42
0.000000001
43
0.0000000001
44
0.0000000001
40
0
40
0
40
0
40
1
40
1
40
1
10
67.126235867719188
20
-118.27226979734488
30
0
10
66.430463696698681
20
-117.66517980100699
30
0
10
65.004815961102977
20
-117.66517980100699
30
0
0
SPLINE
5
612
100
AcDbEntity
8
0
100
AcDbSpline
70
0
71
2
72
6
73
3
74
0
42
0.000000001
43
0.0000000001
44
0.0000000001
40
0
40
0
40
0
40
1
40
1
40
1
10
65.004815961102977
20
-117.66517980100699
30
0
10
63.661024476270214
20
-117.66517980100699
30
0
10
62.968664075116649
20
-118.27568395139761
30
0
0
SPLINE
5
613
100
AcDbEntity
8
0
100
AcDbSpline
70
0
71
2
72
6
73
3
74
0
42
0.000000001
43
0.0000000001
44
0.0000000001
40
0
40
0
40
0
40
1
40
1
40
1
10
62.968664075116649
20
-118.27568395139761
30
0
10
62.276303673963085
20
-118.88618810178824
30
0
10
62.276303673963085
20
-119.7934184789855
30
0
0
SPLINE
5
614
100
AcDbEntity
8
0
100
AcDbSpline
70
0
71
2
72
6
73
3
74
0
42
0.000000001
43
0.0000000001
44
0.0000000001
40
0
40
0
40
0
40
1
40
1
40
1
10
62.276303673963085
20
-119.7934184789855
30
0
10
62.276303673963085
20
-120.71429593565054
30
0
10
62.965254689435497
20
-121.32138593198843
30
0
0
SPLINE
5
615
100
AcDbEntity
8
0
100
AcDbSpline
70
0
71
2
72
6
73
3
74
0
42
0.000000001
43
0.0000000001
44
0.0000000001
40
0
40
0
40
0
40
1
40
1
40
1
10
62.965254689435497
20
-121.32138593198843
30
0
10
63.654203320722118
20
-121.92848546506949
30
0
10
65.045745278577343
20
-121.92848546506949
30
0
0
LINE
5
616
100
AcDbEntity
8
0
100
AcDbLine
10
67.569618130902782
20
-112.28318555357046
30
0
11
68.654203320722118
21
-112.10583074094839
31
0
0
SPLINE
5
617
100
AcDbEntity
8
0
100
AcDbSpline
70
0
71
2
72
6
73
3
74
0
42
0.000000001
43
0.0000000001
44
0.0000000001
40
0
40
0
40
0
40
1
40
1
40
1
10
68.654203320722118
20
-112.10583074094839
30
0
10
68.76334419367744
20
-112.62424809934683
30
0
10
68.76334419367744
20
-113.03352696897574
30
0
0
SPLINE
5
618
100
AcDbEntity
8
0
100
AcDbSpline
70
0
71
2
72
6
73
3
74
0
42
0.000000001
43
0.0000000001
44
0.0000000001
40
0
40
0
40
0
40
1
40
1
40
1
10
68.76334419367744
20
-113.03352696897574
30
0
10
68.76334419367744
20
-113.70201451780386
30
0
10
68.551883603314892
20
-114.07036168577261
30
0
0
SPLINE
5
619
100
AcDbEntity
8
0
100
AcDbSpline
70
0
71
2
72
6
73
3
74
0
42
0.000000001
43
0.0000000001
44
0.0000000001
40
0
40
0
40
0
40
1
40
1
40
1
10
68.551883603314892
20
-114.07036168577261
30
0
10
68.340423012952343
20
-114.43870885374136
30
0
10
67.995948697309032
20
-114.58877904417105
30
0
0
SPLINE
5
620
100
AcDbEntity
8
0
100
AcDbSpline
70
0
71
2
72
6
73
3
74
0
42
0.000000001
43
0.0000000001
44
0.0000000001
40
0
40
0
40
0
40
1
40
1
40
1
10
67.995948697309032
20
-114.58877904417105
30
0
10
67.651474381665722
20
-114.73884923460074
30
0
10
66.546425725202099
20
-114.73884923460074
30
0
0
LINE
5
621
100
AcDbEntity
8
0
100
AcDbLine
10
66.546425725202099
20
-114.73884923460074
30
0
11
62.378623391370311
21
-114.73884923460074
31
0
0
LINE
5
622
100
AcDbEntity
8
0
100
AcDbLine
10
62.378623391370311
20
-114.73884923460074
30
0
11
62.378623391370311
21
-115.6392608404357
31
0
0
LINE
5
623
100
AcDbEntity
8
0
100
AcDbLine
10
62.378623391370311
20
-115.6392608404357
30
0
11
61.423644925336376
21
-115.6392608404357
31
0
0
LINE
5
624
100
AcDbEntity
8
0
100
AcDbLine
10
61.423644925336376
20
-115.6392608404357
30
0
11
61.423644925336376
21
-114.73884923460074
31
0
0
LINE
5
625
100
AcDbEntity
8
0
100
AcDbLine
10
61.423644925336376
20
-114.73884923460074
30
0
11
59.629646445493236
21
-114.73884923460074
31
0
0
LINE
5
626
100
AcDbEntity
8
0
100
AcDbLine
10
59.629646445493243
20
-114.73884923460074
30
0
11
58.892948533277057
21
-113.51784093381949
31
0
0
LINE
5
627
100
AcDbEntity
8
0
100
AcDbLine
10
58.892948533277057
20
-113.51784093381949
30
0
11
61.423644925336383
21
-113.51784093381949
31
0
0
LINE
5
628
100
AcDbEntity
8
0
100
AcDbLine
10
61.423644925336376
20
-113.51784093381949
30
0
11
61.423644925336376
21
-112.28318555357046
31
0
0
LINE
5
629
100
AcDbEntity
8
0
100
AcDbLine
10
61.423644925336376
20
-112.28318555357046
30
0
11
62.378623391370311
21
-112.28318555357046
31
0
0
LINE
5
630
100
AcDbEntity
8
0
100
AcDbLine
10
62.378623391370311
20
-112.28318555357046
30
0
11
62.378623391370311
21
-113.51784093381949
31
0
0
LINE
5
631
100
AcDbEntity
8
0
100
AcDbLine
10
62.378623391370311
20
-113.51784093381949
30
0
11
66.614639664868847
21
-113.51784093381949
31
0
0
SPLINE
5
632
100
AcDbEntity
8
0
100
AcDbSpline
70
0
71
2
72
6
73
3
74
0
42
0.000000001
43
0.0000000001
44
0.0000000001
40
0
40
0
40
0
40
1
40
1
40
1
10
66.614639664868847
20
-113.51784093381949
30
0
10
67.13987817881538
20
-113.51784093381949
30
0
10
67.289945985059276
20
-113.45303876401968
30
0
0
SPLINE
5
633
100
AcDbEntity
8
0
100
AcDbSpline
70
0
71
2
72
6
73
3
74
0
42
0.000000001
43
0.0000000001
44
0.0000000001
40
0
40
0
40
0
40
1
40
1
40
1
10
67.289945985059276
20
-113.45303876401968
30
0
10
67.440013791303173
20
-113.38823659421988
30
0
10
67.528691197614208
20
-113.24158055784292
30
0
0
SPLINE
5
634
100
AcDbEntity
8
0
100
AcDbSpline
70
0
71
2
72
6
73
3
74
0
42
0.000000001
43
0.0000000001
44
0.0000000001
40
0
40
0
40
0
40
1
40
1
40
1
10
67.528691197614208
20
-113.24158055784292
30
0
10
67.617368603925243
20
-113.09492452146597
30
0
10
67.617368603925243
20
-112.82206876279898
30
0
0
SPLINE
5
635
100
AcDbEntity
8
0
100
AcDbSpline
70
0
71
2
72
6
73
3
74
0
42
0.000000001
43
0.0000000001
44
0.0000000001
40
0
40
0
40
0
40
1
40
1
40
1
10
67.617368603925243
20
-112.82206876279898
30
0
10
67.617368603925243
20
-112.61742932798452
30
0
10
67.569618130902782
20
-112.28318555357046
30
0
0
LINE
5
636
100
AcDbEntity
8
0
100
AcDbLine
10
67.569618130902782
20
-108.40187413694449
30
0
11
68.654203320722118
21
-108.22452886106558
31
0
0
SPLINE
5
637
100
AcDbEntity
8
0
100
AcDbSpline
70
0
71
2
72
6
73
3
74
0
42
0.000000001
43
0.0000000001
44
0.0000000001
40
0
40
0
40
0
40
1
40
1
40
1
10
68.654203320722118
20
-108.22452886106558
30
0
10
68.76334419367744
20
-108.74294621946402
30
0
10
68.76334419367744
20
-109.15221555234976
30
0
0
SPLINE
5
638
100
AcDbEntity
8
0
100
AcDbSpline
70
0
71
2
72
6
73
3
74
0
42
0.000000001
43
0.0000000001
44
0.0000000001
40
0
40
0
40
0
40
1
40
1
40
1
10
68.76334419367744
20
-109.15221555234976
30
0
10
68.76334419367744
20
-109.82070310117788
30
0
10
68.551883603314892
20
-110.18905026914663
30
0
0
SPLINE
5
639
100
AcDbEntity
8
0
100
AcDbSpline
70
0
71
2
72
6
73
3
74
0
42
0.000000001
43
0.0000000001
44
0.0000000001
40
0
40
0
40
0
40
1
40
1
40
1
10
68.551883603314892
20
-110.18905026914663
30
0
10
68.340423012952343
20
-110.55740697385855
30
0
10
67.995948697309032
20
-110.70746762754507
30
0
0
SPLINE
5
640
100
AcDbEntity
8
0
100
AcDbSpline
70
0
71
2
72
6
73
3
74
0
42
0.000000001
43
0.0000000001
44
0.0000000001
40
0
40
0
40
0
40
1
40
1
40
1
10
67.995948697309032
20
-110.70746762754507
30
0
10
67.651474381665722
20
-110.85753781797476
30
0
10
66.546425725202099
20
-110.85753781797476
30
0
0
LINE
5
641
100
AcDbEntity
8
0
100
AcDbLine
10
66.546425725202099
20
-110.85753781797476
30
0
11
62.378623391370311
21
-110.85753781797476
31
0
0
LINE
5
642
100
AcDbEntity
8
0
100
AcDbLine
10
62.378623391370311
20
-110.85753781797476
30
0
11
62.378623391370311
21
-111.75794942380972
31
0
0
LINE
5
643
100
AcDbEntity
8
0
100
AcDbLine
10
62.378623391370311
20
-111.75794942380972
30
0
11
61.423644925336376
21
-111.75794942380972
31
0
0
LINE
5
644
100
AcDbEntity
8
0
100
AcDbLine
10
61.423644925336376
20
-111.75794942380972
30
0
11
61.423644925336376
21
-110.85753781797476
31
0
0
LINE
5
645
100
AcDbEntity
8
0
100
AcDbLine
10
61.423644925336376
20
-110.85753781797476
30
0
11
59.629646445493236
21
-110.85753781797476
31
0
0
LINE
5
646
100
AcDbEntity
8
0
100
AcDbLine
10
59.629646445493243
20
-110.85753781797476
30
0
11
58.892948533277057
21
-109.63652951719351
31
0
0
LINE
5
647
100
AcDbEntity
8
0
100
AcDbLine
10
58.892948533277057
20
-109.63652951719351
30
0
11
61.423644925336383
21
-109.63652951719351
31
0
0
LINE
5
648
100
AcDbEntity
8
0
100
AcDbLine
10
61.423644925336376
20
-109.63652951719351
30
0
11
61.423644925336376
21
-108.40187413694449
31
0
0
LINE
5
649
100
AcDbEntity
8
0
100
AcDbLine
10
61.423644925336376
20
-108.40187413694449
30
0
11
62.378623391370311
21
-108.40187413694449
31
0
0
LINE
5
650
100
AcDbEntity
8
0
100
AcDbLine
10
62.378623391370311
20
-108.40187413694449
30
0
11
62.378623391370311
21
-109.63652951719351
31
0
0
LINE
5
651
100
AcDbEntity
8
0
100
AcDbLine
10
62.378623391370311
20
-109.63652951719351
30
0
11
66.614639664868847
21
-109.63652951719351
31
0
0
SPLINE
5
652
100
AcDbEntity
8
0
100
AcDbSpline
70
0
71
2
72
6
73
3
74
0
42
0.000000001
43
0.0000000001
44
0.0000000001
40
0
40
0
40
0
40
1
40
1
40
1
10
66.614639664868847
20
-109.63652951719351
30
0
10
67.13987817881538
20
-109.63652951719351
30
0
10
67.289945985059276
20
-109.5717273473937
30
0
0
SPLINE
5
653
100
AcDbEntity
8
0
100
AcDbSpline
70
0
71
2
72
6
73
3
74
0
42
0.000000001
43
0.0000000001
44
0.0000000001
40
0
40
0
40
0
40
1
40
1
40
1
10
67.289945985059276
20
-109.5717273473937
30
0
10
67.440013791303173
20
-109.5069251775939
30
0
10
67.528691197614208
20
-109.36026914121695
30
0
0
SPLINE
5
654
100
AcDbEntity
8
0
100
AcDbSpline
70
0
71
2
72
6
73
3
74
0
42
0.000000001
43
0.0000000001
44
0.0000000001
40
0
40
0
40
0
40
1
40
1
40
1
10
67.528691197614208
20
-109.36026914121695
30
0
10
67.617368603925243
20
-109.21361310483999
30
0
10
67.617368603925243
20
-108.940757346173
30
0
0
SPLINE
5
655
100
AcDbEntity
8
0
100
AcDbSpline
70
0
71
2
72
6
73
3
74
0
42
0.000000001
43
0.0000000001
44
0.0000000001
40
0
40
0
40
0
40
1
40
1
40
1
10
67.617368603925243
20
-108.940757346173
30
0
10
67.617368603925243
20
-108.73611791135855
30
0
10
67.569618130902782
20
-108.40187413694449
30
0
0
SPLINE
5
656
100
AcDbEntity
8
0
100
AcDbSpline
70
0
71
2
72
6
73
3
74
0
42
0.000000001
43
0.0000000001
44
0.0000000001
40
0
40
0
40
0
40
1
40
1
40
1
10
65.045745278577343
20
-107.65835149290152
30
0
10
63.033466244916454
20
-107.65835149290152
30
0
10
62.064843083600536
20
-106.53966290952749
30
0
0
SPLINE
5
657
100
AcDbEntity
8
0
100
AcDbSpline
70
0
71
2
72
6
73
3
74
0
42
0.000000001
43
0.0000000001
44
0.0000000001
40
0
40
0
40
0
40
1
40
1
40
1
10
62.064843083600536
20
-106.53966290952749
30
0
10
61.259932423810497
20
-105.60514791013784
30
0
10
61.259932423810497
20
-104.26136357786245
30
0
0
SPLINE
5
658
100
AcDbEntity
8
0
100
AcDbSpline
70
0
71
2
72
6
73
3
74
0
42
0.000000001
43
0.0000000001
44
0.0000000001
40
0
40
0
40
0
40
1
40
1
40
1
10
61.259932423810497
20
-104.26136357786245
30
0
10
61.259932423810497
20
-102.76749951841421
30
0
10
62.238786126355663
20
-101.81933743955679
30
0
0
SPLINE
5
659
100
AcDbEntity
8
0
100
AcDbSpline
70
0
71
2
72
6
73
3
74
0
42
0.000000001
43
0.0000000001
44
0.0000000001
40
0
40
0
40
0
40
1
40
1
40
1
10
62.238786126355663
20
-101.81933743955679
30
0
10
63.217639828900829
20
-100.87118489744253
30
0
10
64.943425561170116
20
-100.87118489744253
30
0
0
SPLINE
5
660
100
AcDbEntity
8
0
100
AcDbSpline
70
0
71
2
72
6
73
3
74
0
42
0.000000001
43
0.0000000001
44
0.0000000001
40
0
40
0
40
0
40
1
40
1
40
1
10
64.943425561170116
20
-100.87118489744253
30
0
10
66.341788674573436
20
-100.87118489744253
30
0
10
67.143289948682323
20
-101.29068715574331
30
0
0
SPLINE
5
661
100
AcDbEntity
8
0
100
AcDbSpline
70
0
71
2
72
6
73
3
74
0
42
0.000000001
43
0.0000000001
44
0.0000000001
40
0
40
0
40
0
40
1
40
1
40
1
10
67.143289948682323
20
-101.29068715574331
30
0
10
67.944788838605419
20
-101.71019895078726
30
0
10
68.388173485974804
20
-102.51169545652456
30
0
0
SPLINE
5
662
100
AcDbEntity
8
0
100
AcDbSpline
70
0
71
2
72
6
73
3
74
0
42
0.000000001
43
0.0000000001
44
0.0000000001
40
0
40
0
40
0
40
1
40
1
40
1
10
68.388173485974804
20
-102.51169545652456
30
0
10
68.831555749158397
20
-103.31320149900503
30
0
10
68.831555749158397
20
-104.26136357786245
30
0
0
SPLINE
5
663
100
AcDbEntity
8
0
100
AcDbSpline
70
0
71
2
72
6
73
3
74
0
42
0.000000001
43
0.0000000001
44
0.0000000001
40
0
40
0
40
0
40
1
40
1
40
1
10
68.831555749158397
20
-104.26136357786245
30
0
10
68.831555749158397
20
-105.78250272275992
30
0
10
67.856113816480175
20
-106.7204318762023
30
0
0
SPLINE
5
664
100
AcDbEntity
8
0
100
AcDbSpline
70
0
71
2
72
6
73
3
74
0
42
0.000000001
43
0.0000000001
44
0.0000000001
40
0
40
0
40
0
40
1
40
1
40
1
10
67.856113816480175
20
-106.7204318762023
30
0
10
66.880669499616161
20
-107.65835149290152
30
0
10
65.045745278577343
20
-107.65835149290152
30
0
0
SPLINE
5
665
100
AcDbEntity
8
0
100
AcDbSpline
70
0
71
2
72
6
73
3
74
0
42
0.000000001
43
0.0000000001
44
0.0000000001
40
0
40
0
40
0
40
1
40
1
40
1
10
65.045745278577343
20
-106.39642102720327
30
0
10
66.437287236432567
20
-106.39642102720327
30
0
10
67.129645253400341
20
-105.78932149412222
30
0
0
SPLINE
5
666
100
AcDbEntity
8
0
100
AcDbSpline
70
0
71
2
72
6
73
3
74
0
42
0.000000001
43
0.0000000001
44
0.0000000001
40
0
40
0
40
0
40
1
40
1
40
1
10
67.129645253400341
20
-105.78932149412222
30
0
10
67.822005654553905
20
-105.18223149778433
30
0
10
67.822005654553905
20
-104.26136357786245
30
0
0
SPLINE
5
667
100
AcDbEntity
8
0
100
AcDbSpline
70
0
71
2
72
6
73
3
74
0
42
0.000000001
43
0.0000000001
44
0.0000000001
40
0
40
0
40
0
40
1
40
1
40
1
10
67.822005654553905
20
-104.26136357786245
30
0
10
67.822005654553905
20
-103.34730489255972
30
0
10
67.126235867719188
20
-102.74021489622183
30
0
0
SPLINE
5
668
100
AcDbEntity
8
0
100
AcDbSpline
70
0
71
2
72
6
73
3
74
0
42
0.000000001
43
0.0000000001
44
0.0000000001
40
0
40
0
40
0
40
1
40
1
40
1
10
67.126235867719188
20
-102.74021489622183
30
0
10
66.430463696698681
20
-102.13311536314077
30
0
10
65.004815961102977
20
-102.13311536314077
30
0
0
SPLINE
5
669
100
AcDbEntity
8
0
100
AcDbSpline
70
0
71
2
72
6
73
3
74
0
42
0.000000001
43
0.0000000001
44
0.0000000001
40
0
40
0
40
0
40
1
40
1
40
1
10
65.004815961102977
20
-102.13311536314077
30
0
10
63.661024476270214
20
-102.13311536314077
30
0
10
62.968664075116649
20
-102.7436195135314
30
0
0
SPLINE
5
670
100
AcDbEntity
8
0
100
AcDbSpline
70
0
71
2
72
6
73
3
74
0
42
0.000000001
43
0.0000000001
44
0.0000000001
40
0
40
0
40
0
40
1
40
1
40
1
10
62.968664075116649
20
-102.7436195135314
30
0
10
62.276303673963085
20
-103.35412366392202
30
0
10
62.276303673963085
20
-104.26136357786245
30
0
0
SPLINE
5
671
100
AcDbEntity
8
0
100
AcDbSpline
70
0
71
2
72
6
73
3
74
0
42
0.000000001
43
0.0000000001
44
0.0000000001
40
0
40
0
40
0
40
1
40
1
40
1
10
62.276303673963085
20
-104.26136357786245
30
0
10
62.276303673963085
20
-105.18223149778433
30
0
10
62.965254689435497
20
-105.78932149412222
30
0
0
SPLINE
5
672
100
AcDbEntity
8
0
100
AcDbSpline
70
0
71
2
72
6
73
3
74
0
42
0.000000001
43
0.0000000001
44
0.0000000001
40
0
40
0
40
0
40
1
40
1
40
1
10
62.965254689435497
20
-105.78932149412222
30
0
10
63.654203320722118
20
-106.39642102720327
30
0
10
65.045745278577343
20
-106.39642102720327
30
0
0
LINE
5
673
100
AcDbEntity
8
0
100
AcDbLine
10
68.667845631818309
20
-99.431890082379056
30
0
11
61.423644925336376
21
-99.431890082379056
31
0
0
LINE
5
674
100
AcDbEntity
8
0
100
AcDbLine
10
61.423644925336376
20
-99.431890082379056
30
0
11
61.423644925336376
21
-98.33366734983511
31
0
0
LINE
5
675
100
AcDbEntity
8
0
100
AcDbLine
10
61.423644925336376
20
-98.33366734983511
30
0
11
62.440013791303173
21
-98.33366734983511
31
0
0
SPLINE
5
676
100
AcDbEntity
8
0
100
AcDbSpline
70
0
71
2
72
6
73
3
74
0
42
0.000000001
43
0.0000000001
44
0.0000000001
40
0
40
0
40
0
40
1
40
1
40
1
10
62.440013791303173
20
-98.33366734983511
30
0
10
61.907954121808544
20
-97.992604804058743
30
0
10
61.58394327280952
20
-97.426436972637845
30
0
0
SPLINE
5
677
100
AcDbEntity
8
0
100
AcDbSpline
70
0
71
2
72
6
73
3
74
0
42
0.000000001
43
0.0000000001
44
0.0000000001
40
0
40
0
40
0
40
1
40
1
40
1
10
61.58394327280952
20
-97.426436972637845
30
0
10
61.259932423810497
20
-96.860269141216946
30
0
10
61.259932423810497
20
-96.137212348004056
30
0
0
SPLINE
5
678
100
AcDbEntity
8
0
100
AcDbSpline
70
0
71
2
72
6
73
3
74
0
42
0.000000001
43
0.0000000001
44
0.0000000001
40
0
40
0
40
0
40
1
40
1
40
1
10
61.259932423810497
20
-96.137212348004056
30
0
10
61.259932423810497
20
-95.332301688214017
30
0
10
61.594176198224559
20
-94.817298483868313
30
0
0
SPLINE
5
679
100
AcDbEntity
8
0
100
AcDbSpline
70
0
71
2
72
6
73
3
74
0
42
0.000000001
43
0.0000000001
44
0.0000000001
40
0
40
0
40
0
40
1
40
1
40
1
10
61.594176198224559
20
-94.817298483868313
30
0
10
61.928419972638622
20
-94.302285742779446
30
0
10
62.528691197614208
20
-94.090827536602688
30
0
0
SPLINE
5
680
100
AcDbEntity
8
0
100
AcDbSpline
70
0
71
2
72
6
73
3
74
0
42
0.000000001
43
0.0000000001
44
0.0000000001
40
0
40
0
40
0
40
1
40
1
40
1
10
62.528691197614208
20
-94.090827536602688
30
0
10
61.259932423810497
20
-93.231347632427884
30
0
10
61.259932423810497
20
-91.853450369854642
30
0
0
SPLINE
5
681
100
AcDbEntity
8
0
100
AcDbSpline
70
0
71
2
72
6
73
3
74
0
42
0.000000001
43
0.0000000001
44
0.0000000001
40
0
40
0
40
0
40
1
40
1
40
1
10
61.259932423810497
20
-91.853450369854642
30
0
10
61.259932423810497
20
-90.77568395139761
30
0
10
61.856794263104931
20
-90.195878577252103
30
0
0
SPLINE
5
682
100
AcDbEntity
8
0
100
AcDbSpline
70
0
71
2
72
6
73
3
74
0
42
0.000000001
43
0.0000000001
44
0.0000000001
40
0
40
0
40
0
40
1
40
1
40
1
10
61.856794263104931
20
-90.195878577252103
30
0
10
62.453656102399364
20
-89.616073203106595
30
0
10
63.695130254010692
20
-89.616073203106595
30
0
0
LINE
5
683
100
AcDbEntity
8
0
100
AcDbLine
10
63.695130254010692
20
-89.616073203106595
30
0
11
68.667845631818309
21
-89.616073203106595
31
0
0
LINE
5
684
100
AcDbEntity
8
0
100
AcDbLine
10
68.667845631818309
20
-89.616073203106595
30
0
11
68.667845631818309
21
-90.837081503887845
31
0
0
LINE
5
685
100
AcDbEntity
8
0
100
AcDbLine
10
68.667845631818309
20
-90.837081503887845
30
0
11
64.104406739453808
21
-90.837081503887845
31
0
0
SPLINE
5
686
100
AcDbEntity
8
0
100
AcDbSpline
70
0
71
2
72
6
73
3
74
0
42
0.000000001
43
0.0000000001
44
0.0000000001
40
0
40
0
40
0
40
1
40
1
40
1
10
64.104406739453808
20
-90.837081503887845
30
0
10
63.367710019330517
20
-90.837081503887845
30
0
10
63.043699170331493
20
-90.956443381329251
30
0
0
SPLINE
5
687
100
AcDbEntity
8
0
100
AcDbSpline
70
0
71
2
72
6
73
3
74
0
42
0.000000001
43
0.0000000001
44
0.0000000001
40
0
40
0
40
0
40
1
40
1
40
1
10
63.043699170331493
20
-90.956443381329251
30
0
10
62.71968832133247
20
-91.075824332256985
30
0
10
62.521870042066112
20
-91.38960225584097
30
0
0
SPLINE
5
688
100
AcDbEntity
8
0
100
AcDbSpline
70
0
71
2
72
6
73
3
74
0
42
0.000000001
43
0.0000000001
44
0.0000000001
40
0
40
0
40
0
40
1
40
1
40
1
10
62.521870042066112
20
-91.38960225584097
30
0
10
62.324051762799755
20
-91.703380179424954
30
0
10
62.324051762799755
20
-92.12629659177847
30
0
0
SPLINE
5
689
100
AcDbEntity
8
0
100
AcDbSpline
70
0
71
2
72
6
73
3
74
0
42
0.000000001
43
0.0000000001
44
0.0000000001
40
0
40
0
40
0
40
1
40
1
40
1
10
62.324051762799755
20
-92.12629659177847
30
0
10
62.324051762799755
20
-92.890285086651517
30
0
10
62.832238579968944
20
-93.395055365582181
30
0
0
SPLINE
5
690
100
AcDbEntity
8
0
100
AcDbSpline
70
0
71
2
72
6
73
3
74
0
42
0.000000001
43
0.0000000001
44
0.0000000001
40
0
40
0
40
0
40
1
40
1
40
1
10
62.832238579968944
20
-93.395055365582181
30
0
10
63.340425397138134
20
-93.899835181256009
30
0
10
64.459113980512157
20
-93.899835181256009
30
0
0
LINE
5
691
100
AcDbEntity
8
0
100
AcDbLine
10
64.459113980512157
20
-93.899835181256009
30
0
11
68.667845631818309
21
-93.899835181256009
31
0
0
LINE
5
692
100
AcDbEntity
8
0
100
AcDbLine
10
68.667845631818309
20
-93.899835181256009
30
0
11
68.667845631818309
21
-95.127662253399563
31
0
0
LINE
5
693
100
AcDbEntity
8
0
100
AcDbLine
10
68.667845631818309
20
-95.127662253399563
30
0
11
63.961160088758007
21
-95.127662253399563
31
0
0
SPLINE
5
694
100
AcDbEntity
8
0
100
AcDbSpline
70
0
71
2
72
6
73
3
74
0
42
0.000000001
43
0.0000000001
44
0.0000000001
40
0
40
0
40
0
40
1
40
1
40
1
10
63.961160088758007
20
-95.127662253399563
30
0
10
63.142607117871776
20
-95.127662253399563
30
0
10
62.733330632428661
20
-95.427802634258938
30
0
0
SPLINE
5
695
100
AcDbEntity
8
0
100
AcDbSpline
70
0
71
2
72
6
73
3
74
0
42
0.000000001
43
0.0000000001
44
0.0000000001
40
0
40
0
40
0
40
1
40
1
40
1
10
62.733330632428661
20
-95.427802634258938
30
0
10
62.324051762799755
20
-95.727933478375149
30
0
10
62.324051762799755
20
-96.410068106671048
30
0
0
SPLINE
5
696
100
AcDbEntity
8
0
100
AcDbSpline
70
0
71
2
72
6
73
3
74
0
42
0.000000001
43
0.0000000001
44
0.0000000001
40
0
40
0
40
0
40
1
40
1
40
1
10
62.324051762799755
20
-96.410068106671048
30
0
10
62.324051762799755
20
-96.928485465069485
30
0
10
62.596905137280956
20
-97.368453574200345
30
0
0
SPLINE
5
697
100
AcDbEntity
8
0
100
AcDbSpline
70
0
71
2
72
6
73
3
74
0
42
0.000000001
43
0.0000000001
44
0.0000000001
40
0
40
0
40
0
40
1
40
1
40
1
10
62.596905137280956
20
-97.368453574200345
30
0
10
62.869756127576366
20
-97.808421683331204
30
0
10
63.394994641522899
20
-98.006242346783353
30
0
0
SPLINE
5
698
100
AcDbEntity
8
0
100
AcDbSpline
70
0
71
2
72
6
73
3
74
0
42
0.000000001
43
0.0000000001
44
0.0000000001
40
0
40
0
40
0
40
1
40
1
40
1
10
63.394994641522899
20
-98.006242346783353
30
0
10
63.920233155469433
20
-98.204063010235501
30
0
10
64.909319783429638
20
-98.204063010235501
30
0
0
LINE
5
699
100
AcDbEntity
8
0
100
AcDbLine
10
64.909319783429638
20
-98.204063010235501
30
0
11
68.667845631818309
21
-98.204063010235501
31
0
0
LINE
5
700
100
AcDbEntity
8
0
100
AcDbLine
10
68.667845631818309
20
-98.204063010235501
30
0
11
68.667845631818309
21
-99.431890082379056
31
0
0
ENDSEC
0
SECTION
2
OBJECTS
0
DICTIONARY
5
C
100
AcDbDictionary
3
ACAD_GROUP
350
D
3
ACAD_MLINESTYLE
350
17
0
DICTIONARY
5
D
100
AcDbDictionary
0
DICTIONARY
5
1A
330
C
100
AcDbDictionary
0
DICTIONARY
5
17
100
AcDbDictionary
0
ENDSEC
0
EOF
