ISO-10303-21;
HEADER;
/* Generated by software containing ST-Developer
 * from STEP Tools, Inc. (www.steptools.com) 
 */

FILE_DESCRIPTION(
/* description */ (''),
/* implementation_level */ '2;1');

FILE_NAME(
/* name */ 'EMU_I2C_MUX_Mount.step',
/* time_stamp */ '2026-08-06T17:53:45+08:00',
/* author */ (''),
/* organization */ (''),
/* preprocessor_version */ 'ST-DEVELOPER v20.1',
/* originating_system */ 'Autodesk Translation Framework v15.8.0.0',
/* authorisation */ '');

FILE_SCHEMA (('AUTOMOTIVE_DESIGN { 1 0 10303 214 3 1 1 }'));
ENDSEC;

DATA;
#10=MECHANICAL_DESIGN_GEOMETRIC_PRESENTATION_REPRESENTATION('',(#13),#996);
#11=SHAPE_REPRESENTATION_RELATIONSHIP('SRR','None',#1003,#12);
#12=ADVANCED_BREP_SHAPE_REPRESENTATION('',(#14),#995);
#13=STYLED_ITEM('',(#1012),#14);
#14=MANIFOLD_SOLID_BREP('\X2\5B9E4F53\X0\1',#563);
#15=TOROIDAL_SURFACE('',#629,3.95000000000002,1.);
#16=TOROIDAL_SURFACE('',#633,3.95000000000002,1.);
#17=CONICAL_SURFACE('',#617,1.55000000000001,0.785398163397456);
#18=CONICAL_SURFACE('',#623,1.55000000000001,0.785398163397456);
#19=CONICAL_SURFACE('',#638,3.48900000000004,0.785398163397014);
#20=CONICAL_SURFACE('',#640,3.48900000000004,0.785398163397577);
#21=(
BOUNDED_CURVE()
B_SPLINE_CURVE(2,(#922,#923,#924),.UNSPECIFIED.,.F.,.F.)
B_SPLINE_CURVE_WITH_KNOTS((3,3),(0.502589311763766,0.618222741358492),
 .UNSPECIFIED.)
CURVE()
GEOMETRIC_REPRESENTATION_ITEM()
RATIONAL_B_SPLINE_CURVE((1.2941862275875,1.30051618706546,1.29418622758751))
REPRESENTATION_ITEM('')
);
#22=FACE_BOUND('',#82,.T.);
#23=FACE_BOUND('',#83,.T.);
#24=FACE_BOUND('',#84,.T.);
#25=FACE_BOUND('',#85,.T.);
#26=FACE_BOUND('',#96,.T.);
#27=FACE_BOUND('',#97,.T.);
#28=FACE_BOUND('',#101,.T.);
#29=FACE_BOUND('',#105,.T.);
#30=FACE_BOUND('',#114,.T.);
#31=FACE_BOUND('',#116,.T.);
#32=PLANE('',#580);
#33=PLANE('',#584);
#34=PLANE('',#585);
#35=PLANE('',#597);
#36=PLANE('',#601);
#37=PLANE('',#604);
#38=PLANE('',#605);
#39=PLANE('',#608);
#40=PLANE('',#609);
#41=PLANE('',#621);
#42=PLANE('',#627);
#43=PLANE('',#642);
#44=PLANE('',#644);
#45=FACE_OUTER_BOUND('',#77,.T.);
#46=FACE_OUTER_BOUND('',#78,.T.);
#47=FACE_OUTER_BOUND('',#79,.T.);
#48=FACE_OUTER_BOUND('',#80,.T.);
#49=FACE_OUTER_BOUND('',#81,.T.);
#50=FACE_OUTER_BOUND('',#86,.T.);
#51=FACE_OUTER_BOUND('',#87,.T.);
#52=FACE_OUTER_BOUND('',#88,.T.);
#53=FACE_OUTER_BOUND('',#89,.T.);
#54=FACE_OUTER_BOUND('',#90,.T.);
#55=FACE_OUTER_BOUND('',#91,.T.);
#56=FACE_OUTER_BOUND('',#92,.T.);
#57=FACE_OUTER_BOUND('',#93,.T.);
#58=FACE_OUTER_BOUND('',#94,.T.);
#59=FACE_OUTER_BOUND('',#95,.T.);
#60=FACE_OUTER_BOUND('',#98,.T.);
#61=FACE_OUTER_BOUND('',#99,.T.);
#62=FACE_OUTER_BOUND('',#100,.T.);
#63=FACE_OUTER_BOUND('',#102,.T.);
#64=FACE_OUTER_BOUND('',#103,.T.);
#65=FACE_OUTER_BOUND('',#104,.T.);
#66=FACE_OUTER_BOUND('',#106,.T.);
#67=FACE_OUTER_BOUND('',#107,.T.);
#68=FACE_OUTER_BOUND('',#108,.T.);
#69=FACE_OUTER_BOUND('',#109,.T.);
#70=FACE_OUTER_BOUND('',#110,.T.);
#71=FACE_OUTER_BOUND('',#111,.T.);
#72=FACE_OUTER_BOUND('',#112,.T.);
#73=FACE_OUTER_BOUND('',#113,.T.);
#74=FACE_OUTER_BOUND('',#115,.T.);
#75=FACE_OUTER_BOUND('',#117,.T.);
#76=FACE_OUTER_BOUND('',#118,.T.);
#77=EDGE_LOOP('',(#362,#363,#364,#365));
#78=EDGE_LOOP('',(#366,#367,#368,#369));
#79=EDGE_LOOP('',(#370,#371,#372,#373));
#80=EDGE_LOOP('',(#374,#375,#376,#377));
#81=EDGE_LOOP('',(#378,#379,#380,#381,#382,#383,#384,#385,#386,#387,#388,
#389,#390,#391));
#82=EDGE_LOOP('',(#392));
#83=EDGE_LOOP('',(#393));
#84=EDGE_LOOP('',(#394));
#85=EDGE_LOOP('',(#395));
#86=EDGE_LOOP('',(#396,#397,#398,#399));
#87=EDGE_LOOP('',(#400,#401,#402,#403,#404));
#88=EDGE_LOOP('',(#405,#406,#407,#408));
#89=EDGE_LOOP('',(#409,#410,#411,#412));
#90=EDGE_LOOP('',(#413,#414,#415,#416));
#91=EDGE_LOOP('',(#417,#418,#419,#420));
#92=EDGE_LOOP('',(#421,#422,#423,#424));
#93=EDGE_LOOP('',(#425,#426,#427,#428));
#94=EDGE_LOOP('',(#429,#430,#431,#432,#433));
#95=EDGE_LOOP('',(#434,#435,#436,#437,#438,#439,#440,#441,#442,#443,#444,
#445,#446,#447,#448,#449));
#96=EDGE_LOOP('',(#450));
#97=EDGE_LOOP('',(#451));
#98=EDGE_LOOP('',(#452,#453,#454,#455));
#99=EDGE_LOOP('',(#456,#457,#458,#459));
#100=EDGE_LOOP('',(#460));
#101=EDGE_LOOP('',(#461));
#102=EDGE_LOOP('',(#462,#463,#464,#465));
#103=EDGE_LOOP('',(#466,#467,#468,#469));
#104=EDGE_LOOP('',(#470));
#105=EDGE_LOOP('',(#471));
#106=EDGE_LOOP('',(#472,#473,#474,#475));
#107=EDGE_LOOP('',(#476,#477,#478,#479));
#108=EDGE_LOOP('',(#480,#481,#482,#483));
#109=EDGE_LOOP('',(#484,#485,#486,#487));
#110=EDGE_LOOP('',(#488,#489,#490,#491));
#111=EDGE_LOOP('',(#492,#493,#494,#495,#496,#497,#498));
#112=EDGE_LOOP('',(#499,#500,#501,#502,#503,#504,#505));
#113=EDGE_LOOP('',(#506));
#114=EDGE_LOOP('',(#507));
#115=EDGE_LOOP('',(#508));
#116=EDGE_LOOP('',(#509));
#117=EDGE_LOOP('',(#510,#511,#512,#513));
#118=EDGE_LOOP('',(#514,#515,#516,#517));
#119=LINE('',#836,#157);
#120=LINE('',#839,#158);
#121=LINE('',#842,#159);
#122=LINE('',#844,#160);
#123=LINE('',#845,#161);
#124=LINE('',#851,#162);
#125=LINE('',#854,#163);
#126=LINE('',#856,#164);
#127=LINE('',#857,#165);
#128=LINE('',#860,#166);
#129=LINE('',#864,#167);
#130=LINE('',#868,#168);
#131=LINE('',#872,#169);
#132=LINE('',#876,#170);
#133=LINE('',#889,#171);
#134=LINE('',#892,#172);
#135=LINE('',#895,#173);
#136=LINE('',#898,#174);
#137=LINE('',#901,#175);
#138=LINE('',#904,#176);
#139=LINE('',#905,#177);
#140=LINE('',#910,#178);
#141=LINE('',#911,#179);
#142=LINE('',#914,#180);
#143=LINE('',#915,#181);
#144=LINE('',#917,#182);
#145=LINE('',#926,#183);
#146=LINE('',#927,#184);
#147=LINE('',#944,#185);
#148=LINE('',#947,#186);
#149=LINE('',#955,#187);
#150=LINE('',#958,#188);
#151=LINE('',#967,#189);
#152=LINE('',#973,#190);
#153=LINE('',#977,#191);
#154=LINE('',#981,#192);
#155=LINE('',#990,#193);
#156=LINE('',#992,#194);
#157=VECTOR('',#654,10.);
#158=VECTOR('',#657,10.);
#159=VECTOR('',#660,10.);
#160=VECTOR('',#661,10.);
#161=VECTOR('',#662,10.);
#162=VECTOR('',#669,10.);
#163=VECTOR('',#672,10.);
#164=VECTOR('',#673,10.);
#165=VECTOR('',#674,10.);
#166=VECTOR('',#677,10.);
#167=VECTOR('',#680,10.);
#168=VECTOR('',#683,10.);
#169=VECTOR('',#686,10.);
#170=VECTOR('',#689,10.);
#171=VECTOR('',#704,10.);
#172=VECTOR('',#707,10.);
#173=VECTOR('',#710,10.);
#174=VECTOR('',#713,10.);
#175=VECTOR('',#716,10.);
#176=VECTOR('',#719,10.);
#177=VECTOR('',#720,10.);
#178=VECTOR('',#725,10.);
#179=VECTOR('',#726,10.);
#180=VECTOR('',#729,10.);
#181=VECTOR('',#730,10.);
#182=VECTOR('',#733,10.);
#183=VECTOR('',#740,10.);
#184=VECTOR('',#741,10.);
#185=VECTOR('',#762,1.55000000000002);
#186=VECTOR('',#767,1.35000000000002);
#187=VECTOR('',#776,1.55000000000002);
#188=VECTOR('',#781,1.35000000000002);
#189=VECTOR('',#794,2.95000000000002);
#190=VECTOR('',#803,2.95000000000002);
#191=VECTOR('',#808,3.48900000000019);
#192=VECTOR('',#813,3.48900000000019);
#193=VECTOR('',#826,1.70000000000002);
#194=VECTOR('',#829,1.70000000000002);
#195=CIRCLE('',#578,4.08900000000006);
#196=CIRCLE('',#579,4.08900000000006);
#197=CIRCLE('',#582,10.);
#198=CIRCLE('',#583,10.);
#199=CIRCLE('',#586,4.);
#200=CIRCLE('',#587,5.);
#201=CIRCLE('',#588,5.);
#202=CIRCLE('',#589,4.08899999999981);
#203=CIRCLE('',#590,10.);
#204=CIRCLE('',#591,1.35000000000002);
#205=CIRCLE('',#592,1.35000000000002);
#206=CIRCLE('',#593,1.70000000000002);
#207=CIRCLE('',#594,1.70000000000002);
#208=CIRCLE('',#596,10.);
#209=CIRCLE('',#598,4.08900000000006);
#210=CIRCLE('',#600,5.);
#211=CIRCLE('',#603,5.);
#212=CIRCLE('',#607,4.08900000000006);
#213=CIRCLE('',#610,4.08900000000006);
#214=CIRCLE('',#611,4.08900000000006);
#215=CIRCLE('',#612,4.);
#216=CIRCLE('',#613,4.08900000000006);
#217=CIRCLE('',#614,4.08900000000006);
#218=CIRCLE('',#615,3.95000000000002);
#219=CIRCLE('',#616,3.95000000000002);
#220=CIRCLE('',#618,1.75000000000001);
#221=CIRCLE('',#619,1.35000000000002);
#222=CIRCLE('',#622,2.95000000000002);
#223=CIRCLE('',#624,1.75000000000001);
#224=CIRCLE('',#625,1.35000000000002);
#225=CIRCLE('',#628,2.95000000000002);
#226=CIRCLE('',#630,2.95000000000002);
#227=CIRCLE('',#631,1.);
#228=CIRCLE('',#634,2.95000000000002);
#229=CIRCLE('',#635,1.);
#230=CIRCLE('',#639,2.88900000000002);
#231=CIRCLE('',#641,2.88900000000002);
#232=CIRCLE('',#643,1.70000000000002);
#233=CIRCLE('',#645,1.70000000000002);
#234=VERTEX_POINT('',#832);
#235=VERTEX_POINT('',#833);
#236=VERTEX_POINT('',#835);
#237=VERTEX_POINT('',#837);
#238=VERTEX_POINT('',#841);
#239=VERTEX_POINT('',#843);
#240=VERTEX_POINT('',#847);
#241=VERTEX_POINT('',#849);
#242=VERTEX_POINT('',#853);
#243=VERTEX_POINT('',#855);
#244=VERTEX_POINT('',#859);
#245=VERTEX_POINT('',#861);
#246=VERTEX_POINT('',#863);
#247=VERTEX_POINT('',#865);
#248=VERTEX_POINT('',#867);
#249=VERTEX_POINT('',#869);
#250=VERTEX_POINT('',#871);
#251=VERTEX_POINT('',#873);
#252=VERTEX_POINT('',#875);
#253=VERTEX_POINT('',#878);
#254=VERTEX_POINT('',#880);
#255=VERTEX_POINT('',#882);
#256=VERTEX_POINT('',#884);
#257=VERTEX_POINT('',#887);
#258=VERTEX_POINT('',#891);
#259=VERTEX_POINT('',#893);
#260=VERTEX_POINT('',#897);
#261=VERTEX_POINT('',#899);
#262=VERTEX_POINT('',#903);
#263=VERTEX_POINT('',#907);
#264=VERTEX_POINT('',#908);
#265=VERTEX_POINT('',#913);
#266=VERTEX_POINT('',#921);
#267=VERTEX_POINT('',#925);
#268=VERTEX_POINT('',#929);
#269=VERTEX_POINT('',#933);
#270=VERTEX_POINT('',#936);
#271=VERTEX_POINT('',#938);
#272=VERTEX_POINT('',#941);
#273=VERTEX_POINT('',#943);
#274=VERTEX_POINT('',#949);
#275=VERTEX_POINT('',#952);
#276=VERTEX_POINT('',#954);
#277=VERTEX_POINT('',#960);
#278=VERTEX_POINT('',#963);
#279=VERTEX_POINT('',#969);
#280=VERTEX_POINT('',#976);
#281=VERTEX_POINT('',#980);
#282=VERTEX_POINT('',#984);
#283=VERTEX_POINT('',#987);
#284=EDGE_CURVE('',#234,#235,#195,.T.);
#285=EDGE_CURVE('',#234,#236,#119,.T.);
#286=EDGE_CURVE('',#237,#236,#196,.T.);
#287=EDGE_CURVE('',#235,#237,#120,.T.);
#288=EDGE_CURVE('',#238,#234,#121,.T.);
#289=EDGE_CURVE('',#239,#238,#122,.T.);
#290=EDGE_CURVE('',#236,#239,#123,.T.);
#291=EDGE_CURVE('',#240,#239,#197,.T.);
#292=EDGE_CURVE('',#238,#241,#198,.T.);
#293=EDGE_CURVE('',#241,#240,#124,.T.);
#294=EDGE_CURVE('',#242,#241,#125,.T.);
#295=EDGE_CURVE('',#243,#242,#126,.T.);
#296=EDGE_CURVE('',#240,#243,#127,.T.);
#297=EDGE_CURVE('',#244,#235,#128,.T.);
#298=EDGE_CURVE('',#245,#244,#199,.T.);
#299=EDGE_CURVE('',#245,#246,#129,.T.);
#300=EDGE_CURVE('',#247,#246,#200,.T.);
#301=EDGE_CURVE('',#247,#248,#130,.T.);
#302=EDGE_CURVE('',#249,#248,#201,.T.);
#303=EDGE_CURVE('',#249,#250,#131,.T.);
#304=EDGE_CURVE('',#250,#251,#202,.T.);
#305=EDGE_CURVE('',#251,#252,#132,.T.);
#306=EDGE_CURVE('',#242,#252,#203,.T.);
#307=EDGE_CURVE('',#253,#253,#204,.T.);
#308=EDGE_CURVE('',#254,#254,#205,.T.);
#309=EDGE_CURVE('',#255,#255,#206,.T.);
#310=EDGE_CURVE('',#256,#256,#207,.T.);
#311=EDGE_CURVE('',#257,#243,#208,.T.);
#312=EDGE_CURVE('',#252,#257,#133,.T.);
#313=EDGE_CURVE('',#251,#258,#134,.T.);
#314=EDGE_CURVE('',#259,#258,#209,.T.);
#315=EDGE_CURVE('',#257,#259,#135,.T.);
#316=EDGE_CURVE('',#246,#260,#136,.T.);
#317=EDGE_CURVE('',#260,#261,#210,.T.);
#318=EDGE_CURVE('',#261,#247,#137,.T.);
#319=EDGE_CURVE('',#262,#245,#138,.T.);
#320=EDGE_CURVE('',#260,#262,#139,.T.);
#321=EDGE_CURVE('',#263,#264,#211,.T.);
#322=EDGE_CURVE('',#264,#249,#140,.T.);
#323=EDGE_CURVE('',#248,#263,#141,.T.);
#324=EDGE_CURVE('',#265,#264,#142,.T.);
#325=EDGE_CURVE('',#250,#265,#143,.T.);
#326=EDGE_CURVE('',#263,#261,#144,.T.);
#327=EDGE_CURVE('',#258,#265,#212,.T.);
#328=EDGE_CURVE('',#237,#266,#21,.F.);
#329=EDGE_CURVE('',#266,#267,#145,.T.);
#330=EDGE_CURVE('',#244,#267,#146,.T.);
#331=EDGE_CURVE('',#268,#259,#213,.T.);
#332=EDGE_CURVE('',#265,#268,#214,.T.);
#333=EDGE_CURVE('',#267,#262,#215,.T.);
#334=EDGE_CURVE('',#269,#266,#216,.T.);
#335=EDGE_CURVE('',#236,#269,#217,.T.);
#336=EDGE_CURVE('',#270,#270,#218,.T.);
#337=EDGE_CURVE('',#271,#271,#219,.T.);
#338=EDGE_CURVE('',#272,#272,#220,.T.);
#339=EDGE_CURVE('',#272,#273,#147,.T.);
#340=EDGE_CURVE('',#273,#273,#221,.T.);
#341=EDGE_CURVE('',#273,#254,#148,.T.);
#342=EDGE_CURVE('',#274,#274,#222,.T.);
#343=EDGE_CURVE('',#275,#275,#223,.T.);
#344=EDGE_CURVE('',#275,#276,#149,.T.);
#345=EDGE_CURVE('',#276,#276,#224,.T.);
#346=EDGE_CURVE('',#276,#253,#150,.T.);
#347=EDGE_CURVE('',#277,#277,#225,.T.);
#348=EDGE_CURVE('',#278,#278,#226,.T.);
#349=EDGE_CURVE('',#278,#270,#227,.T.);
#350=EDGE_CURVE('',#274,#278,#151,.T.);
#351=EDGE_CURVE('',#279,#279,#228,.T.);
#352=EDGE_CURVE('',#279,#271,#229,.T.);
#353=EDGE_CURVE('',#277,#279,#152,.T.);
#354=EDGE_CURVE('',#269,#280,#153,.T.);
#355=EDGE_CURVE('',#280,#280,#230,.T.);
#356=EDGE_CURVE('',#268,#281,#154,.T.);
#357=EDGE_CURVE('',#281,#281,#231,.T.);
#358=EDGE_CURVE('',#282,#282,#232,.T.);
#359=EDGE_CURVE('',#283,#283,#233,.T.);
#360=EDGE_CURVE('',#283,#255,#155,.T.);
#361=EDGE_CURVE('',#282,#256,#156,.T.);
#362=ORIENTED_EDGE('',*,*,#284,.F.);
#363=ORIENTED_EDGE('',*,*,#285,.T.);
#364=ORIENTED_EDGE('',*,*,#286,.F.);
#365=ORIENTED_EDGE('',*,*,#287,.F.);
#366=ORIENTED_EDGE('',*,*,#285,.F.);
#367=ORIENTED_EDGE('',*,*,#288,.F.);
#368=ORIENTED_EDGE('',*,*,#289,.F.);
#369=ORIENTED_EDGE('',*,*,#290,.F.);
#370=ORIENTED_EDGE('',*,*,#291,.T.);
#371=ORIENTED_EDGE('',*,*,#289,.T.);
#372=ORIENTED_EDGE('',*,*,#292,.T.);
#373=ORIENTED_EDGE('',*,*,#293,.T.);
#374=ORIENTED_EDGE('',*,*,#293,.F.);
#375=ORIENTED_EDGE('',*,*,#294,.F.);
#376=ORIENTED_EDGE('',*,*,#295,.F.);
#377=ORIENTED_EDGE('',*,*,#296,.F.);
#378=ORIENTED_EDGE('',*,*,#284,.T.);
#379=ORIENTED_EDGE('',*,*,#297,.F.);
#380=ORIENTED_EDGE('',*,*,#298,.F.);
#381=ORIENTED_EDGE('',*,*,#299,.T.);
#382=ORIENTED_EDGE('',*,*,#300,.F.);
#383=ORIENTED_EDGE('',*,*,#301,.T.);
#384=ORIENTED_EDGE('',*,*,#302,.F.);
#385=ORIENTED_EDGE('',*,*,#303,.T.);
#386=ORIENTED_EDGE('',*,*,#304,.T.);
#387=ORIENTED_EDGE('',*,*,#305,.T.);
#388=ORIENTED_EDGE('',*,*,#306,.F.);
#389=ORIENTED_EDGE('',*,*,#294,.T.);
#390=ORIENTED_EDGE('',*,*,#292,.F.);
#391=ORIENTED_EDGE('',*,*,#288,.T.);
#392=ORIENTED_EDGE('',*,*,#307,.T.);
#393=ORIENTED_EDGE('',*,*,#308,.T.);
#394=ORIENTED_EDGE('',*,*,#309,.T.);
#395=ORIENTED_EDGE('',*,*,#310,.T.);
#396=ORIENTED_EDGE('',*,*,#311,.T.);
#397=ORIENTED_EDGE('',*,*,#295,.T.);
#398=ORIENTED_EDGE('',*,*,#306,.T.);
#399=ORIENTED_EDGE('',*,*,#312,.T.);
#400=ORIENTED_EDGE('',*,*,#312,.F.);
#401=ORIENTED_EDGE('',*,*,#305,.F.);
#402=ORIENTED_EDGE('',*,*,#313,.T.);
#403=ORIENTED_EDGE('',*,*,#314,.F.);
#404=ORIENTED_EDGE('',*,*,#315,.F.);
#405=ORIENTED_EDGE('',*,*,#300,.T.);
#406=ORIENTED_EDGE('',*,*,#316,.T.);
#407=ORIENTED_EDGE('',*,*,#317,.T.);
#408=ORIENTED_EDGE('',*,*,#318,.T.);
#409=ORIENTED_EDGE('',*,*,#316,.F.);
#410=ORIENTED_EDGE('',*,*,#299,.F.);
#411=ORIENTED_EDGE('',*,*,#319,.F.);
#412=ORIENTED_EDGE('',*,*,#320,.F.);
#413=ORIENTED_EDGE('',*,*,#321,.T.);
#414=ORIENTED_EDGE('',*,*,#322,.T.);
#415=ORIENTED_EDGE('',*,*,#302,.T.);
#416=ORIENTED_EDGE('',*,*,#323,.T.);
#417=ORIENTED_EDGE('',*,*,#322,.F.);
#418=ORIENTED_EDGE('',*,*,#324,.F.);
#419=ORIENTED_EDGE('',*,*,#325,.F.);
#420=ORIENTED_EDGE('',*,*,#303,.F.);
#421=ORIENTED_EDGE('',*,*,#318,.F.);
#422=ORIENTED_EDGE('',*,*,#326,.F.);
#423=ORIENTED_EDGE('',*,*,#323,.F.);
#424=ORIENTED_EDGE('',*,*,#301,.F.);
#425=ORIENTED_EDGE('',*,*,#327,.F.);
#426=ORIENTED_EDGE('',*,*,#313,.F.);
#427=ORIENTED_EDGE('',*,*,#304,.F.);
#428=ORIENTED_EDGE('',*,*,#325,.T.);
#429=ORIENTED_EDGE('',*,*,#287,.T.);
#430=ORIENTED_EDGE('',*,*,#328,.T.);
#431=ORIENTED_EDGE('',*,*,#329,.T.);
#432=ORIENTED_EDGE('',*,*,#330,.F.);
#433=ORIENTED_EDGE('',*,*,#297,.T.);
#434=ORIENTED_EDGE('',*,*,#291,.F.);
#435=ORIENTED_EDGE('',*,*,#296,.T.);
#436=ORIENTED_EDGE('',*,*,#311,.F.);
#437=ORIENTED_EDGE('',*,*,#315,.T.);
#438=ORIENTED_EDGE('',*,*,#331,.F.);
#439=ORIENTED_EDGE('',*,*,#332,.F.);
#440=ORIENTED_EDGE('',*,*,#324,.T.);
#441=ORIENTED_EDGE('',*,*,#321,.F.);
#442=ORIENTED_EDGE('',*,*,#326,.T.);
#443=ORIENTED_EDGE('',*,*,#317,.F.);
#444=ORIENTED_EDGE('',*,*,#320,.T.);
#445=ORIENTED_EDGE('',*,*,#333,.F.);
#446=ORIENTED_EDGE('',*,*,#329,.F.);
#447=ORIENTED_EDGE('',*,*,#334,.F.);
#448=ORIENTED_EDGE('',*,*,#335,.F.);
#449=ORIENTED_EDGE('',*,*,#290,.T.);
#450=ORIENTED_EDGE('',*,*,#336,.F.);
#451=ORIENTED_EDGE('',*,*,#337,.F.);
#452=ORIENTED_EDGE('',*,*,#338,.T.);
#453=ORIENTED_EDGE('',*,*,#339,.T.);
#454=ORIENTED_EDGE('',*,*,#340,.T.);
#455=ORIENTED_EDGE('',*,*,#339,.F.);
#456=ORIENTED_EDGE('',*,*,#340,.F.);
#457=ORIENTED_EDGE('',*,*,#341,.T.);
#458=ORIENTED_EDGE('',*,*,#308,.F.);
#459=ORIENTED_EDGE('',*,*,#341,.F.);
#460=ORIENTED_EDGE('',*,*,#342,.T.);
#461=ORIENTED_EDGE('',*,*,#338,.F.);
#462=ORIENTED_EDGE('',*,*,#343,.T.);
#463=ORIENTED_EDGE('',*,*,#344,.T.);
#464=ORIENTED_EDGE('',*,*,#345,.T.);
#465=ORIENTED_EDGE('',*,*,#344,.F.);
#466=ORIENTED_EDGE('',*,*,#345,.F.);
#467=ORIENTED_EDGE('',*,*,#346,.T.);
#468=ORIENTED_EDGE('',*,*,#307,.F.);
#469=ORIENTED_EDGE('',*,*,#346,.F.);
#470=ORIENTED_EDGE('',*,*,#347,.T.);
#471=ORIENTED_EDGE('',*,*,#343,.F.);
#472=ORIENTED_EDGE('',*,*,#348,.T.);
#473=ORIENTED_EDGE('',*,*,#349,.T.);
#474=ORIENTED_EDGE('',*,*,#336,.T.);
#475=ORIENTED_EDGE('',*,*,#349,.F.);
#476=ORIENTED_EDGE('',*,*,#342,.F.);
#477=ORIENTED_EDGE('',*,*,#350,.T.);
#478=ORIENTED_EDGE('',*,*,#348,.F.);
#479=ORIENTED_EDGE('',*,*,#350,.F.);
#480=ORIENTED_EDGE('',*,*,#351,.T.);
#481=ORIENTED_EDGE('',*,*,#352,.T.);
#482=ORIENTED_EDGE('',*,*,#337,.T.);
#483=ORIENTED_EDGE('',*,*,#352,.F.);
#484=ORIENTED_EDGE('',*,*,#347,.F.);
#485=ORIENTED_EDGE('',*,*,#353,.T.);
#486=ORIENTED_EDGE('',*,*,#351,.F.);
#487=ORIENTED_EDGE('',*,*,#353,.F.);
#488=ORIENTED_EDGE('',*,*,#298,.T.);
#489=ORIENTED_EDGE('',*,*,#330,.T.);
#490=ORIENTED_EDGE('',*,*,#333,.T.);
#491=ORIENTED_EDGE('',*,*,#319,.T.);
#492=ORIENTED_EDGE('',*,*,#328,.F.);
#493=ORIENTED_EDGE('',*,*,#286,.T.);
#494=ORIENTED_EDGE('',*,*,#335,.T.);
#495=ORIENTED_EDGE('',*,*,#354,.T.);
#496=ORIENTED_EDGE('',*,*,#355,.F.);
#497=ORIENTED_EDGE('',*,*,#354,.F.);
#498=ORIENTED_EDGE('',*,*,#334,.T.);
#499=ORIENTED_EDGE('',*,*,#332,.T.);
#500=ORIENTED_EDGE('',*,*,#356,.T.);
#501=ORIENTED_EDGE('',*,*,#357,.F.);
#502=ORIENTED_EDGE('',*,*,#356,.F.);
#503=ORIENTED_EDGE('',*,*,#331,.T.);
#504=ORIENTED_EDGE('',*,*,#314,.T.);
#505=ORIENTED_EDGE('',*,*,#327,.T.);
#506=ORIENTED_EDGE('',*,*,#355,.T.);
#507=ORIENTED_EDGE('',*,*,#358,.T.);
#508=ORIENTED_EDGE('',*,*,#357,.T.);
#509=ORIENTED_EDGE('',*,*,#359,.T.);
#510=ORIENTED_EDGE('',*,*,#359,.F.);
#511=ORIENTED_EDGE('',*,*,#360,.T.);
#512=ORIENTED_EDGE('',*,*,#309,.F.);
#513=ORIENTED_EDGE('',*,*,#360,.F.);
#514=ORIENTED_EDGE('',*,*,#358,.F.);
#515=ORIENTED_EDGE('',*,*,#361,.T.);
#516=ORIENTED_EDGE('',*,*,#310,.F.);
#517=ORIENTED_EDGE('',*,*,#361,.F.);
#518=CYLINDRICAL_SURFACE('',#577,4.08900000000006);
#519=CYLINDRICAL_SURFACE('',#581,10.);
#520=CYLINDRICAL_SURFACE('',#595,10.);
#521=CYLINDRICAL_SURFACE('',#599,5.);
#522=CYLINDRICAL_SURFACE('',#602,5.);
#523=CYLINDRICAL_SURFACE('',#606,4.08899999999981);
#524=CYLINDRICAL_SURFACE('',#620,1.35000000000002);
#525=CYLINDRICAL_SURFACE('',#626,1.35000000000002);
#526=CYLINDRICAL_SURFACE('',#632,2.95000000000002);
#527=CYLINDRICAL_SURFACE('',#636,2.95000000000002);
#528=CYLINDRICAL_SURFACE('',#637,4.);
#529=CYLINDRICAL_SURFACE('',#646,1.70000000000002);
#530=CYLINDRICAL_SURFACE('',#647,1.70000000000002);
#531=ADVANCED_FACE('',(#45),#518,.T.);
#532=ADVANCED_FACE('',(#46),#32,.F.);
#533=ADVANCED_FACE('',(#47),#519,.T.);
#534=ADVANCED_FACE('',(#48),#33,.F.);
#535=ADVANCED_FACE('',(#49,#22,#23,#24,#25),#34,.F.);
#536=ADVANCED_FACE('',(#50),#520,.T.);
#537=ADVANCED_FACE('',(#51),#35,.F.);
#538=ADVANCED_FACE('',(#52),#521,.T.);
#539=ADVANCED_FACE('',(#53),#36,.F.);
#540=ADVANCED_FACE('',(#54),#522,.T.);
#541=ADVANCED_FACE('',(#55),#37,.F.);
#542=ADVANCED_FACE('',(#56),#38,.F.);
#543=ADVANCED_FACE('',(#57),#523,.T.);
#544=ADVANCED_FACE('',(#58),#39,.T.);
#545=ADVANCED_FACE('',(#59,#26,#27),#40,.T.);
#546=ADVANCED_FACE('',(#60),#17,.F.);
#547=ADVANCED_FACE('',(#61),#524,.F.);
#548=ADVANCED_FACE('',(#62,#28),#41,.T.);
#549=ADVANCED_FACE('',(#63),#18,.F.);
#550=ADVANCED_FACE('',(#64),#525,.F.);
#551=ADVANCED_FACE('',(#65,#29),#42,.T.);
#552=ADVANCED_FACE('',(#66),#15,.F.);
#553=ADVANCED_FACE('',(#67),#526,.T.);
#554=ADVANCED_FACE('',(#68),#16,.F.);
#555=ADVANCED_FACE('',(#69),#527,.T.);
#556=ADVANCED_FACE('',(#70),#528,.T.);
#557=ADVANCED_FACE('',(#71),#19,.T.);
#558=ADVANCED_FACE('',(#72),#20,.T.);
#559=ADVANCED_FACE('',(#73,#30),#43,.T.);
#560=ADVANCED_FACE('',(#74,#31),#44,.T.);
#561=ADVANCED_FACE('',(#75),#529,.F.);
#562=ADVANCED_FACE('',(#76),#530,.F.);
#563=CLOSED_SHELL('',(#531,#532,#533,#534,#535,#536,#537,#538,#539,#540,
#541,#542,#543,#544,#545,#546,#547,#548,#549,#550,#551,#552,#553,#554,#555,
#556,#557,#558,#559,#560,#561,#562));
#564=DERIVED_UNIT_ELEMENT(#566,1.);
#565=DERIVED_UNIT_ELEMENT(#998,-3.);
#566=(
MASS_UNIT()
NAMED_UNIT(*)
SI_UNIT(.KILO.,.GRAM.)
);
#567=DERIVED_UNIT((#564,#565));
#568=MEASURE_REPRESENTATION_ITEM('density measure',
POSITIVE_RATIO_MEASURE(7850.),#567);
#569=PROPERTY_DEFINITION_REPRESENTATION(#574,#571);
#570=PROPERTY_DEFINITION_REPRESENTATION(#575,#572);
#571=REPRESENTATION('material name',(#573),#995);
#572=REPRESENTATION('density',(#568),#995);
#573=DESCRIPTIVE_REPRESENTATION_ITEM('\X2\94A2\X0\','\X2\94A2\X0\');
#574=PROPERTY_DEFINITION('material property','material name',#1005);
#575=PROPERTY_DEFINITION('material property','density of part',#1005);
#576=AXIS2_PLACEMENT_3D('',#830,#648,#649);
#577=AXIS2_PLACEMENT_3D('',#831,#650,#651);
#578=AXIS2_PLACEMENT_3D('',#834,#652,#653);
#579=AXIS2_PLACEMENT_3D('',#838,#655,#656);
#580=AXIS2_PLACEMENT_3D('',#840,#658,#659);
#581=AXIS2_PLACEMENT_3D('',#846,#663,#664);
#582=AXIS2_PLACEMENT_3D('',#848,#665,#666);
#583=AXIS2_PLACEMENT_3D('',#850,#667,#668);
#584=AXIS2_PLACEMENT_3D('',#852,#670,#671);
#585=AXIS2_PLACEMENT_3D('',#858,#675,#676);
#586=AXIS2_PLACEMENT_3D('',#862,#678,#679);
#587=AXIS2_PLACEMENT_3D('',#866,#681,#682);
#588=AXIS2_PLACEMENT_3D('',#870,#684,#685);
#589=AXIS2_PLACEMENT_3D('',#874,#687,#688);
#590=AXIS2_PLACEMENT_3D('',#877,#690,#691);
#591=AXIS2_PLACEMENT_3D('',#879,#692,#693);
#592=AXIS2_PLACEMENT_3D('',#881,#694,#695);
#593=AXIS2_PLACEMENT_3D('',#883,#696,#697);
#594=AXIS2_PLACEMENT_3D('',#885,#698,#699);
#595=AXIS2_PLACEMENT_3D('',#886,#700,#701);
#596=AXIS2_PLACEMENT_3D('',#888,#702,#703);
#597=AXIS2_PLACEMENT_3D('',#890,#705,#706);
#598=AXIS2_PLACEMENT_3D('',#894,#708,#709);
#599=AXIS2_PLACEMENT_3D('',#896,#711,#712);
#600=AXIS2_PLACEMENT_3D('',#900,#714,#715);
#601=AXIS2_PLACEMENT_3D('',#902,#717,#718);
#602=AXIS2_PLACEMENT_3D('',#906,#721,#722);
#603=AXIS2_PLACEMENT_3D('',#909,#723,#724);
#604=AXIS2_PLACEMENT_3D('',#912,#727,#728);
#605=AXIS2_PLACEMENT_3D('',#916,#731,#732);
#606=AXIS2_PLACEMENT_3D('',#918,#734,#735);
#607=AXIS2_PLACEMENT_3D('',#919,#736,#737);
#608=AXIS2_PLACEMENT_3D('',#920,#738,#739);
#609=AXIS2_PLACEMENT_3D('',#928,#742,#743);
#610=AXIS2_PLACEMENT_3D('',#930,#744,#745);
#611=AXIS2_PLACEMENT_3D('',#931,#746,#747);
#612=AXIS2_PLACEMENT_3D('',#932,#748,#749);
#613=AXIS2_PLACEMENT_3D('',#934,#750,#751);
#614=AXIS2_PLACEMENT_3D('',#935,#752,#753);
#615=AXIS2_PLACEMENT_3D('',#937,#754,#755);
#616=AXIS2_PLACEMENT_3D('',#939,#756,#757);
#617=AXIS2_PLACEMENT_3D('',#940,#758,#759);
#618=AXIS2_PLACEMENT_3D('',#942,#760,#761);
#619=AXIS2_PLACEMENT_3D('',#945,#763,#764);
#620=AXIS2_PLACEMENT_3D('',#946,#765,#766);
#621=AXIS2_PLACEMENT_3D('',#948,#768,#769);
#622=AXIS2_PLACEMENT_3D('',#950,#770,#771);
#623=AXIS2_PLACEMENT_3D('',#951,#772,#773);
#624=AXIS2_PLACEMENT_3D('',#953,#774,#775);
#625=AXIS2_PLACEMENT_3D('',#956,#777,#778);
#626=AXIS2_PLACEMENT_3D('',#957,#779,#780);
#627=AXIS2_PLACEMENT_3D('',#959,#782,#783);
#628=AXIS2_PLACEMENT_3D('',#961,#784,#785);
#629=AXIS2_PLACEMENT_3D('',#962,#786,#787);
#630=AXIS2_PLACEMENT_3D('',#964,#788,#789);
#631=AXIS2_PLACEMENT_3D('',#965,#790,#791);
#632=AXIS2_PLACEMENT_3D('',#966,#792,#793);
#633=AXIS2_PLACEMENT_3D('',#968,#795,#796);
#634=AXIS2_PLACEMENT_3D('',#970,#797,#798);
#635=AXIS2_PLACEMENT_3D('',#971,#799,#800);
#636=AXIS2_PLACEMENT_3D('',#972,#801,#802);
#637=AXIS2_PLACEMENT_3D('',#974,#804,#805);
#638=AXIS2_PLACEMENT_3D('',#975,#806,#807);
#639=AXIS2_PLACEMENT_3D('',#978,#809,#810);
#640=AXIS2_PLACEMENT_3D('',#979,#811,#812);
#641=AXIS2_PLACEMENT_3D('',#982,#814,#815);
#642=AXIS2_PLACEMENT_3D('',#983,#816,#817);
#643=AXIS2_PLACEMENT_3D('',#985,#818,#819);
#644=AXIS2_PLACEMENT_3D('',#986,#820,#821);
#645=AXIS2_PLACEMENT_3D('',#988,#822,#823);
#646=AXIS2_PLACEMENT_3D('',#989,#824,#825);
#647=AXIS2_PLACEMENT_3D('',#991,#827,#828);
#648=DIRECTION('axis',(0.,0.,1.));
#649=DIRECTION('refdir',(1.,0.,0.));
#650=DIRECTION('center_axis',(0.,0.,-1.));
#651=DIRECTION('ref_axis',(-1.,1.77434368986345E-28,0.));
#652=DIRECTION('center_axis',(0.,0.,-1.));
#653=DIRECTION('ref_axis',(-1.,1.77434368986345E-28,0.));
#654=DIRECTION('',(0.,0.,1.));
#655=DIRECTION('center_axis',(0.,0.,1.));
#656=DIRECTION('ref_axis',(-1.,1.77434368986345E-28,0.));
#657=DIRECTION('',(0.,0.,1.));
#658=DIRECTION('center_axis',(-0.937584959857135,0.347756298360927,1.430675655714E-14));
#659=DIRECTION('ref_axis',(0.347756298360927,0.937584959857135,-1.38834948999461E-14));
#660=DIRECTION('',(-0.347756298360927,-0.937584959857135,0.));
#661=DIRECTION('',(-1.82710989195454E-14,-8.12048840868686E-15,-1.));
#662=DIRECTION('',(0.347756298360927,0.937584959857135,0.));
#663=DIRECTION('center_axis',(1.82710989195454E-14,8.12048840868686E-15,
1.));
#664=DIRECTION('ref_axis',(0.984272563840202,-0.176656503054475,-1.71450374563545E-14));
#665=DIRECTION('center_axis',(0.,0.,-1.));
#666=DIRECTION('ref_axis',(0.984272563840202,-0.176656503054475,-1.71450374563545E-14));
#667=DIRECTION('center_axis',(0.,0.,1.));
#668=DIRECTION('ref_axis',(0.984272563840202,-0.176656503054475,-1.71450374563545E-14));
#669=DIRECTION('',(1.82710989195454E-14,8.12048840868686E-15,1.));
#670=DIRECTION('center_axis',(-1.,1.62092561595273E-14,1.82710989195453E-14));
#671=DIRECTION('ref_axis',(1.62092561595272E-14,1.,-8.11846714138151E-15));
#672=DIRECTION('',(-1.62092561595273E-14,-1.,0.));
#673=DIRECTION('',(-1.82710989195454E-14,-8.12048840868686E-15,-1.));
#674=DIRECTION('',(1.62092561595273E-14,1.,0.));
#675=DIRECTION('center_axis',(0.,0.,1.));
#676=DIRECTION('ref_axis',(1.,0.,0.));
#677=DIRECTION('',(1.,3.57907721428798E-16,0.));
#678=DIRECTION('center_axis',(0.,0.,1.));
#679=DIRECTION('ref_axis',(-0.23102707205407,-0.972947322303794,6.84655581555832E-15));
#680=DIRECTION('',(-0.893252983956249,0.449554342269383,0.));
#681=DIRECTION('center_axis',(0.,0.,1.));
#682=DIRECTION('ref_axis',(-0.851338458625414,-0.524616840051198,1.87789138298951E-14));
#683=DIRECTION('',(1.62092561595335E-14,1.,0.));
#684=DIRECTION('center_axis',(0.,0.,1.));
#685=DIRECTION('ref_axis',(-0.828379309638457,0.560167581499424,1.07218807781155E-14));
#686=DIRECTION('',(0.928062468888668,0.372424561274186,0.));
#687=DIRECTION('center_axis',(0.,0.,-1.));
#688=DIRECTION('ref_axis',(-1.,-1.55431223447519E-15,1.82710989195454E-14));
#689=DIRECTION('',(0.34774229409433,-0.937590154010809,0.));
#690=DIRECTION('center_axis',(0.,0.,1.));
#691=DIRECTION('ref_axis',(0.984273883126748,0.176649152261176,-1.98521220245429E-14));
#692=DIRECTION('center_axis',(0.,0.,1.));
#693=DIRECTION('ref_axis',(-1.,-1.55431223447519E-15,0.));
#694=DIRECTION('center_axis',(0.,0.,1.));
#695=DIRECTION('ref_axis',(-1.,-1.55431223447519E-15,0.));
#696=DIRECTION('center_axis',(9.46633086265214E-30,1.57772181044202E-30,
1.));
#697=DIRECTION('ref_axis',(-1.,-2.73158945673002E-30,1.77635683940025E-14));
#698=DIRECTION('center_axis',(9.46633086265214E-30,1.57772181044202E-30,
1.));
#699=DIRECTION('ref_axis',(-1.,-3.88056343541666E-30,1.77635683940025E-14));
#700=DIRECTION('center_axis',(1.82710989195454E-14,8.12048840868686E-15,
1.));
#701=DIRECTION('ref_axis',(0.984273883126748,0.176649152261176,-1.98521220245429E-14));
#702=DIRECTION('center_axis',(0.,0.,-1.));
#703=DIRECTION('ref_axis',(0.984273883126748,0.176649152261176,-1.98521220245429E-14));
#704=DIRECTION('',(1.82710989195454E-14,8.12048840868686E-15,1.));
#705=DIRECTION('center_axis',(-0.937590154010809,-0.34774229409433,1.99546397183265E-14));
#706=DIRECTION('ref_axis',(-0.34774229409433,0.937590154010809,-1.34030521155799E-15));
#707=DIRECTION('',(1.8947806286936E-14,8.2896652505345E-15,1.));
#708=DIRECTION('center_axis',(0.,0.,1.));
#709=DIRECTION('ref_axis',(-1.,6.14812588990333E-30,0.));
#710=DIRECTION('',(-0.34774229409433,0.937590154010809,0.));
#711=DIRECTION('center_axis',(-1.82710989195454E-14,-8.62635538154791E-15,
-1.));
#712=DIRECTION('ref_axis',(-0.851338458625414,-0.524616840051198,1.87789138298951E-14));
#713=DIRECTION('',(1.82710989195454E-14,8.62635538154791E-15,1.));
#714=DIRECTION('center_axis',(0.,0.,-1.));
#715=DIRECTION('ref_axis',(-0.851338458625414,-0.524616840051198,1.87789138298951E-14));
#716=DIRECTION('',(-1.82710989195454E-14,-8.62635538154791E-15,-1.));
#717=DIRECTION('center_axis',(0.449554342269383,0.893252983956249,-1.59193695425498E-14));
#718=DIRECTION('ref_axis',(0.893252983956249,-0.449554342269383,-1.2460015909893E-14));
#719=DIRECTION('',(-3.54114465054161E-14,0.,-1.));
#720=DIRECTION('',(0.893252983956249,-0.449554342269383,0.));
#721=DIRECTION('center_axis',(1.82710989195454E-14,8.12048840868686E-15,
1.));
#722=DIRECTION('ref_axis',(-0.828379309638457,0.560167581499424,1.07218807781155E-14));
#723=DIRECTION('center_axis',(0.,0.,-1.));
#724=DIRECTION('ref_axis',(-0.828379309638457,0.560167581499424,1.07218807781155E-14));
#725=DIRECTION('',(-1.82710989195454E-14,-8.12048840868686E-15,-1.));
#726=DIRECTION('',(1.82710989195454E-14,8.12048840868686E-15,1.));
#727=DIRECTION('center_axis',(0.372424561274186,-0.928062468888668,7.31714522038778E-16));
#728=DIRECTION('ref_axis',(-0.928062468888668,-0.372424561274186,1.97610094228414E-14));
#729=DIRECTION('',(-0.928062468888668,-0.372424561274186,0.));
#730=DIRECTION('',(1.8947806286936E-14,8.2896652505345E-15,1.));
#731=DIRECTION('center_axis',(1.,-1.62092561595335E-14,-1.82710989195453E-14));
#732=DIRECTION('ref_axis',(-1.62092561595334E-14,-1.,7.56335562906876E-15));
#733=DIRECTION('',(-1.62092561595335E-14,-1.,0.));
#734=DIRECTION('center_axis',(-1.82710989195454E-14,-8.12048840868686E-15,
-1.));
#735=DIRECTION('ref_axis',(-1.,-1.55431223447519E-15,1.82710989195454E-14));
#736=DIRECTION('center_axis',(0.,0.,1.));
#737=DIRECTION('ref_axis',(-1.,6.14812588990333E-30,0.));
#738=DIRECTION('center_axis',(0.,-1.,0.));
#739=DIRECTION('ref_axis',(0.,0.,-1.));
#740=DIRECTION('',(-1.,-3.57907721428798E-16,0.));
#741=DIRECTION('',(3.54114465054161E-14,0.,1.));
#742=DIRECTION('center_axis',(0.,0.,1.));
#743=DIRECTION('ref_axis',(1.,0.,0.));
#744=DIRECTION('center_axis',(0.,0.,1.));
#745=DIRECTION('ref_axis',(-1.,6.14812588990333E-30,0.));
#746=DIRECTION('center_axis',(0.,0.,1.));
#747=DIRECTION('ref_axis',(-1.,6.14812588990333E-30,0.));
#748=DIRECTION('center_axis',(0.,0.,-1.));
#749=DIRECTION('ref_axis',(-0.23102707205407,-0.972947322303794,6.84655581555832E-15));
#750=DIRECTION('center_axis',(0.,0.,1.));
#751=DIRECTION('ref_axis',(-1.,1.77434368986345E-28,0.));
#752=DIRECTION('center_axis',(0.,0.,1.));
#753=DIRECTION('ref_axis',(-1.,1.77434368986345E-28,0.));
#754=DIRECTION('center_axis',(0.,0.,1.));
#755=DIRECTION('ref_axis',(-1.,-1.20430972162727E-14,0.));
#756=DIRECTION('center_axis',(0.,0.,1.));
#757=DIRECTION('ref_axis',(-1.,0.,0.));
#758=DIRECTION('center_axis',(0.,0.,1.));
#759=DIRECTION('ref_axis',(-1.,-1.55431223447519E-15,1.7916726712079E-14));
#760=DIRECTION('center_axis',(1.80348774145951E-14,8.11846714138122E-15,
1.));
#761=DIRECTION('ref_axis',(-1.,-1.55431223447519E-15,1.80348774145951E-14));
#762=DIRECTION('',(-0.707106781186552,-1.18566032670218E-15,-0.707106781186543));
#763=DIRECTION('center_axis',(-1.80348774145951E-14,-8.11846714138122E-15,
-1.));
#764=DIRECTION('ref_axis',(-1.,-1.55431223447519E-15,1.77635683940025E-14));
#765=DIRECTION('center_axis',(1.77635683940025E-14,8.88178419700124E-15,
1.));
#766=DIRECTION('ref_axis',(-1.,-1.55431223447519E-15,1.77635683940025E-14));
#767=DIRECTION('',(-1.77635683940025E-14,-8.88178419700125E-15,-1.));
#768=DIRECTION('center_axis',(1.80348774145951E-14,8.11846714138122E-15,
1.));
#769=DIRECTION('ref_axis',(-1.,-1.55431223447519E-15,1.80348774145951E-14));
#770=DIRECTION('center_axis',(1.80348774145951E-14,8.11846714138122E-15,
1.));
#771=DIRECTION('ref_axis',(-1.,-1.55431223447519E-15,1.80348774145951E-14));
#772=DIRECTION('center_axis',(0.,0.,1.));
#773=DIRECTION('ref_axis',(-1.,-1.55431223447519E-15,1.7916726712079E-14));
#774=DIRECTION('center_axis',(1.80348774145951E-14,8.11846714138122E-15,
1.));
#775=DIRECTION('ref_axis',(-1.,-1.55431223447519E-15,1.80348774145951E-14));
#776=DIRECTION('',(-0.707106781186552,-1.18566032670218E-15,-0.707106781186543));
#777=DIRECTION('center_axis',(-1.80348774145951E-14,-8.11846714138122E-15,
-1.));
#778=DIRECTION('ref_axis',(-1.,-1.55431223447519E-15,1.77635683940025E-14));
#779=DIRECTION('center_axis',(1.77635683940025E-14,8.88178419700124E-15,
1.));
#780=DIRECTION('ref_axis',(-1.,-1.55431223447519E-15,1.77635683940025E-14));
#781=DIRECTION('',(-1.77635683940025E-14,-8.88178419700125E-15,-1.));
#782=DIRECTION('center_axis',(1.80348774145951E-14,8.11846714138122E-15,
1.));
#783=DIRECTION('ref_axis',(-1.,-1.55431223447519E-15,1.80348774145951E-14));
#784=DIRECTION('center_axis',(1.80348774145951E-14,8.11846714138122E-15,
1.));
#785=DIRECTION('ref_axis',(-1.,-1.55431223447519E-15,1.80348774145951E-14));
#786=DIRECTION('center_axis',(0.,0.,-1.));
#787=DIRECTION('ref_axis',(-1.,0.,0.));
#788=DIRECTION('center_axis',(0.,0.,-1.));
#789=DIRECTION('ref_axis',(-1.,-1.20430972162727E-14,0.));
#790=DIRECTION('center_axis',(0.,-1.,0.));
#791=DIRECTION('ref_axis',(1.,0.,0.));
#792=DIRECTION('center_axis',(1.77635683940025E-14,8.88178419700124E-15,
1.));
#793=DIRECTION('ref_axis',(-1.,-1.55431223447519E-15,1.77635683940025E-14));
#794=DIRECTION('',(-1.77635683940025E-14,-8.88178419700124E-15,-1.));
#795=DIRECTION('center_axis',(0.,0.,-1.));
#796=DIRECTION('ref_axis',(-1.,0.,0.));
#797=DIRECTION('center_axis',(0.,0.,-1.));
#798=DIRECTION('ref_axis',(-1.,0.,0.));
#799=DIRECTION('center_axis',(0.,-1.,0.));
#800=DIRECTION('ref_axis',(1.,0.,0.));
#801=DIRECTION('center_axis',(1.77635683940025E-14,8.88178419700124E-15,
1.));
#802=DIRECTION('ref_axis',(-1.,-1.55431223447519E-15,1.77635683940025E-14));
#803=DIRECTION('',(-1.77635683940025E-14,-8.88178419700124E-15,-1.));
#804=DIRECTION('center_axis',(-3.54114465054161E-14,0.,-1.));
#805=DIRECTION('ref_axis',(-0.23102707205407,-0.972947322303794,6.84655581555832E-15));
#806=DIRECTION('center_axis',(0.,0.,-1.));
#807=DIRECTION('ref_axis',(-1.,1.77434368986345E-28,1.22573204094471E-14));
#808=DIRECTION('',(-0.707106781186211,8.65956056236336E-17,0.707106781186884));
#809=DIRECTION('center_axis',(1.80348774145951E-14,8.11846714138112E-15,
1.));
#810=DIRECTION('ref_axis',(-1.,6.14812588990333E-30,1.80348774145951E-14));
#811=DIRECTION('center_axis',(0.,0.,-1.));
#812=DIRECTION('ref_axis',(-1.,6.14812588990333E-30,1.22573204094471E-14));
#813=DIRECTION('',(-0.707106781186608,8.65956056235611E-17,0.707106781186487));
#814=DIRECTION('center_axis',(1.80348774145951E-14,8.11846714138112E-15,
1.));
#815=DIRECTION('ref_axis',(-1.,6.14812588990333E-30,1.80348774145951E-14));
#816=DIRECTION('center_axis',(1.80348774145951E-14,8.11846714138112E-15,
1.));
#817=DIRECTION('ref_axis',(-1.,6.14812588990333E-30,1.80348774145951E-14));
#818=DIRECTION('center_axis',(-1.80348774145951E-14,-8.11846714138112E-15,
-1.));
#819=DIRECTION('ref_axis',(-1.,6.14812588990333E-30,1.80348774145951E-14));
#820=DIRECTION('center_axis',(1.80348774145951E-14,8.11846714138112E-15,
1.));
#821=DIRECTION('ref_axis',(-1.,6.14812588990333E-30,1.80348774145951E-14));
#822=DIRECTION('center_axis',(-1.80348774145951E-14,-8.11846714138112E-15,
-1.));
#823=DIRECTION('ref_axis',(-1.,6.14812588990333E-30,1.80348774145951E-14));
#824=DIRECTION('center_axis',(-1.77635683940025E-14,-5.9211894646675E-15,
-1.));
#825=DIRECTION('ref_axis',(-1.,-2.73158945673002E-30,1.77635683940025E-14));
#826=DIRECTION('',(-1.77635683940025E-14,-5.9211894646675E-15,-1.));
#827=DIRECTION('center_axis',(-1.77635683940025E-14,-8.88178419700126E-15,
-1.));
#828=DIRECTION('ref_axis',(-1.,-3.88056343541666E-30,1.77635683940025E-14));
#829=DIRECTION('',(-1.77635683940025E-14,-8.88178419700126E-15,-1.));
#830=CARTESIAN_POINT('',(0.,0.,0.));
#831=CARTESIAN_POINT('Origin',(239.817846157065,100.192795992766,64.400050800102));
#832=CARTESIAN_POINT('',(243.651631057908,98.770820488773,62.600050800102));
#833=CARTESIAN_POINT('',(240.220790990295,96.123698247396,62.600050800102));
#834=CARTESIAN_POINT('Origin',(239.817846157065,100.192795992766,62.600050800102));
#835=CARTESIAN_POINT('',(243.651631057908,98.770820488773,64.400050800102));
#836=CARTESIAN_POINT('',(243.651631057908,98.770820488773,64.400050800102));
#837=CARTESIAN_POINT('',(240.220790990295,96.123698247396,64.400050800102));
#838=CARTESIAN_POINT('Origin',(239.817846157065,100.192795992766,64.400050800102));
#839=CARTESIAN_POINT('',(240.220790990295,96.123698247396,64.400050800102));
#840=CARTESIAN_POINT('Origin',(242.669796374774,96.1236982473897,64.4000508001012));
#841=CARTESIAN_POINT('',(245.839426428622,104.669330579014,62.600050800102));
#842=CARTESIAN_POINT('',(250.2680929324,116.609448200853,62.600050800102));
#843=CARTESIAN_POINT('',(245.839426428622,104.669330579014,64.400050800102));
#844=CARTESIAN_POINT('',(245.839426428622,104.669330579014,64.4000508001011));
#845=CARTESIAN_POINT('',(250.2680929324,116.609448200853,64.400050800102));
#846=CARTESIAN_POINT('Origin',(236.463576830051,108.146893562623,64.4000508001013));
#847=CARTESIAN_POINT('',(246.463576830051,108.146893562623,64.400050800102));
#848=CARTESIAN_POINT('Origin',(236.463576830051,108.146893562623,64.4000508001023));
#849=CARTESIAN_POINT('',(246.463576830051,108.146893562623,62.600050800102));
#850=CARTESIAN_POINT('Origin',(236.463576830051,108.146893562623,62.6000508001023));
#851=CARTESIAN_POINT('',(246.463576830051,108.146893562623,64.4000508001011));
#852=CARTESIAN_POINT('Origin',(246.463576830051,106.352101047375,64.4000508001011));
#853=CARTESIAN_POINT('',(246.463576830052,167.238427022283,62.600050800102));
#854=CARTESIAN_POINT('',(246.463576830051,125.996091163769,62.600050800102));
#855=CARTESIAN_POINT('',(246.463576830052,167.238427022283,64.400050800102));
#856=CARTESIAN_POINT('',(246.463576830052,167.238427022283,64.4000508001006));
#857=CARTESIAN_POINT('',(246.463576830051,125.996091163769,64.400050800102));
#858=CARTESIAN_POINT('Origin',(234.8285496571,145.640081280163,62.600050800102));
#859=CARTESIAN_POINT('',(235.308317403475,96.123698247396,62.600050800102));
#860=CARTESIAN_POINT('',(259.644399288799,96.123698247396,62.600050800102));
#861=CARTESIAN_POINT('',(233.510100034397,96.550686311571,62.600050800102));
#862=CARTESIAN_POINT('Origin',(235.308317403475,100.123698247396,62.600050800102));
#863=CARTESIAN_POINT('',(216.241139129372,105.24176991361,62.600050800102));
#864=CARTESIAN_POINT('',(212.431086053419,107.159284811781,62.600050800102));
#865=CARTESIAN_POINT('',(213.488910840719,109.708034833391,62.600050800102));
#866=CARTESIAN_POINT('Origin',(218.488910840719,109.708034833391,62.6000508001026));
#867=CARTESIAN_POINT('',(213.48891084072,165.652036867861,62.600050800102));
#868=CARTESIAN_POINT('',(213.488910840719,157.33661186481,62.600050800102));
#869=CARTESIAN_POINT('',(216.626788034349,170.292349212304,62.600050800102));
#870=CARTESIAN_POINT('Origin',(218.488910840719,165.652036867861,62.6000508001021));
#871=CARTESIAN_POINT('',(238.295001637672,178.987642056628,62.600050800102));
#872=CARTESIAN_POINT('',(231.039161149948,176.075927273514,62.600050800102));
#873=CARTESIAN_POINT('',(243.651632185846,176.614767281425,62.600050800102));
#874=CARTESIAN_POINT('Origin',(239.817846157046,175.192794817303,62.6000508001017));
#875=CARTESIAN_POINT('',(245.83947837016,170.715849963227,62.600050800102));
#876=CARTESIAN_POINT('',(249.573629647086,160.647752034698,62.600050800102));
#877=CARTESIAN_POINT('Origin',(236.463576830052,167.238427022283,62.6000508001018));
#878=CARTESIAN_POINT('',(229.812240787379,160.874201631576,62.600050800102));
#879=CARTESIAN_POINT('Origin',(228.462240787379,160.874201631576,62.600050800102));
#880=CARTESIAN_POINT('',(229.812240787379,114.138108159389,62.600050800102));
#881=CARTESIAN_POINT('Origin',(228.462240787379,114.138108159389,62.600050800102));
#882=CARTESIAN_POINT('',(241.51784615707,175.192794817314,62.6000508001017));
#883=CARTESIAN_POINT('Origin',(239.81784615707,175.192794817314,62.6000508001018));
#884=CARTESIAN_POINT('',(241.517846157068,100.192795992766,62.6000508001023));
#885=CARTESIAN_POINT('Origin',(239.817846157068,100.192795992766,62.6000508001023));
#886=CARTESIAN_POINT('Origin',(236.463576830052,167.238427022283,64.4000508001008));
#887=CARTESIAN_POINT('',(245.83947837016,170.715849963227,64.400050800102));
#888=CARTESIAN_POINT('Origin',(236.463576830052,167.238427022283,64.4000508001018));
#889=CARTESIAN_POINT('',(245.83947837016,170.715849963227,64.4000508001006));
#890=CARTESIAN_POINT('Origin',(246.463576830052,169.033142449458,64.4000508001006));
#891=CARTESIAN_POINT('',(243.651632185846,176.614767281425,64.400050800102));
#892=CARTESIAN_POINT('',(243.651632185846,176.614767281425,64.4000508001006));
#893=CARTESIAN_POINT('',(243.651652296794,176.614713057858,64.400050800102));
#894=CARTESIAN_POINT('Origin',(239.817846157065,175.192794817314,64.400050800102));
#895=CARTESIAN_POINT('',(249.573629647086,160.647752034698,64.400050800102));
#896=CARTESIAN_POINT('Origin',(218.488910840719,109.708034833391,64.4000508000994));
#897=CARTESIAN_POINT('',(216.241139129372,105.24176991361,64.400050800102));
#898=CARTESIAN_POINT('',(216.241139129372,105.24176991361,64.4000508000995));
#899=CARTESIAN_POINT('',(213.488910840719,109.708034833391,64.400050800102));
#900=CARTESIAN_POINT('Origin',(218.488910840719,109.708034833391,64.4000508001026));
#901=CARTESIAN_POINT('',(213.488910840719,109.708034833391,64.4000508000995));
#902=CARTESIAN_POINT('Origin',(210.012700025397,108.376404664396,64.4000508000973));
#903=CARTESIAN_POINT('',(233.510100034397,96.550686311571,64.400050800102));
#904=CARTESIAN_POINT('',(233.510100034397,96.550686311571,63.5000508000988));
#905=CARTESIAN_POINT('',(212.431086053419,107.159284811781,64.400050800102));
#906=CARTESIAN_POINT('Origin',(218.48891084072,165.652036867861,64.4000508001011));
#907=CARTESIAN_POINT('',(213.48891084072,165.652036867861,64.400050800102));
#908=CARTESIAN_POINT('',(216.626788034349,170.292349212304,64.400050800102));
#909=CARTESIAN_POINT('Origin',(218.48891084072,165.652036867861,64.4000508001021));
#910=CARTESIAN_POINT('',(216.626788034349,170.292349212304,64.4000508001011));
#911=CARTESIAN_POINT('',(213.488910840719,165.652036867861,64.4000508001012));
#912=CARTESIAN_POINT('Origin',(238.295001637672,178.987642056628,64.4000508001006));
#913=CARTESIAN_POINT('',(238.295001637672,178.987642056628,64.400050800102));
#914=CARTESIAN_POINT('',(231.039161149948,176.075927273514,64.400050800102));
#915=CARTESIAN_POINT('',(238.295001637672,178.987642056628,64.4000508001006));
#916=CARTESIAN_POINT('Origin',(213.48891084072,169.033142449457,64.4000508001012));
#917=CARTESIAN_POINT('',(213.488910840719,157.33661186481,64.400050800102));
#918=CARTESIAN_POINT('Origin',(239.817846157046,175.192794817303,64.4000508001006));
#919=CARTESIAN_POINT('Origin',(239.817846157065,175.192794817314,64.400050800102));
#920=CARTESIAN_POINT('Origin',(210.0127000254,96.123698247396,62.600050800102));
#921=CARTESIAN_POINT('',(239.414901323836,96.123698247396,64.400050800102));
#922=CARTESIAN_POINT('Ctrl Pts',(239.414901323838,96.123698247396,64.4000508001023));
#923=CARTESIAN_POINT('Ctrl Pts',(239.817846157065,96.123698247396,64.4397584397757));
#924=CARTESIAN_POINT('Ctrl Pts',(240.220790990292,96.123698247396,64.4000508001023));
#925=CARTESIAN_POINT('',(235.308317403475,96.123698247396,64.400050800102));
#926=CARTESIAN_POINT('',(259.644399288799,96.123698247396,64.400050800102));
#927=CARTESIAN_POINT('',(235.308317403475,96.123698247396,63.5000508000988));
#928=CARTESIAN_POINT('Origin',(234.8285496571,145.640081280163,64.400050800102));
#929=CARTESIAN_POINT('',(243.906846157065,175.192794817314,64.4000508001019));
#930=CARTESIAN_POINT('Origin',(239.817846157065,175.192794817314,64.400050800102));
#931=CARTESIAN_POINT('Origin',(239.817846157065,175.192794817314,64.400050800102));
#932=CARTESIAN_POINT('Origin',(235.308317403475,100.123698247396,64.400050800102));
#933=CARTESIAN_POINT('',(243.906846157065,100.192795992766,64.4000508001019));
#934=CARTESIAN_POINT('Origin',(239.817846157065,100.192795992766,64.400050800102));
#935=CARTESIAN_POINT('Origin',(239.817846157065,100.192795992766,64.400050800102));
#936=CARTESIAN_POINT('',(232.412240787379,114.138108159389,64.400050800102));
#937=CARTESIAN_POINT('Origin',(228.462240787379,114.138108159389,64.400050800102));
#938=CARTESIAN_POINT('',(232.41224078738,160.874201631576,64.400050800102));
#939=CARTESIAN_POINT('Origin',(228.462240787379,160.874201631576,64.400050800102));
#940=CARTESIAN_POINT('Origin',(228.462240787379,114.138108159389,68.2000508001014));
#941=CARTESIAN_POINT('',(230.212240787379,114.138108159389,68.4000508001013));
#942=CARTESIAN_POINT('Origin',(228.462240787379,114.138108159389,68.4000508001014));
#943=CARTESIAN_POINT('',(229.812240787379,114.138108159389,68.0000508001013));
#944=CARTESIAN_POINT('',(230.012240787379,114.138108159389,68.2000508001013));
#945=CARTESIAN_POINT('Origin',(228.462240787379,114.138108159389,68.0000508001013));
#946=CARTESIAN_POINT('Origin',(228.462240787379,114.138108159389,64.4000508001014));
#947=CARTESIAN_POINT('',(229.812240787379,114.138108159389,64.4000508001013));
#948=CARTESIAN_POINT('Origin',(228.462240787379,114.138108159389,68.4000508001014));
#949=CARTESIAN_POINT('',(231.412240787379,114.138108159389,68.4000508001013));
#950=CARTESIAN_POINT('Origin',(228.462240787379,114.138108159389,68.4000508001014));
#951=CARTESIAN_POINT('Origin',(228.46224078738,160.874201631576,68.200050800101));
#952=CARTESIAN_POINT('',(230.21224078738,160.874201631576,68.4000508001009));
#953=CARTESIAN_POINT('Origin',(228.46224078738,160.874201631576,68.400050800101));
#954=CARTESIAN_POINT('',(229.81224078738,160.874201631576,68.0000508001009));
#955=CARTESIAN_POINT('',(230.01224078738,160.874201631576,68.2000508001009));
#956=CARTESIAN_POINT('Origin',(228.46224078738,160.874201631576,68.000050800101));
#957=CARTESIAN_POINT('Origin',(228.462240787379,160.874201631576,64.400050800101));
#958=CARTESIAN_POINT('',(229.812240787379,160.874201631576,64.4000508001009));
#959=CARTESIAN_POINT('Origin',(228.46224078738,160.874201631576,68.400050800101));
#960=CARTESIAN_POINT('',(231.41224078738,160.874201631576,68.4000508001009));
#961=CARTESIAN_POINT('Origin',(228.46224078738,160.874201631576,68.400050800101));
#962=CARTESIAN_POINT('Origin',(228.462240787379,114.138108159389,65.4000508001024));
#963=CARTESIAN_POINT('',(231.412240787379,114.138108159389,65.4000508001024));
#964=CARTESIAN_POINT('Origin',(228.462240787379,114.138108159389,65.4000508001024));
#965=CARTESIAN_POINT('Origin',(232.412240787379,114.138108159389,65.4000508001024));
#966=CARTESIAN_POINT('Origin',(228.462240787379,114.138108159389,64.4000508001014));
#967=CARTESIAN_POINT('',(231.412240787379,114.138108159389,64.4000508001013));
#968=CARTESIAN_POINT('Origin',(228.462240787379,160.874201631576,65.400050800102));
#969=CARTESIAN_POINT('',(231.41224078738,160.874201631576,65.400050800102));
#970=CARTESIAN_POINT('Origin',(228.462240787379,160.874201631576,65.400050800102));
#971=CARTESIAN_POINT('Origin',(232.41224078738,160.874201631576,65.400050800102));
#972=CARTESIAN_POINT('Origin',(228.462240787379,160.874201631576,64.400050800101));
#973=CARTESIAN_POINT('',(231.412240787379,160.874201631576,64.4000508001009));
#974=CARTESIAN_POINT('Origin',(235.308317403475,100.123698247396,63.5000508000988));
#975=CARTESIAN_POINT('Origin',(239.817846157065,100.192795992766,65.0000508001026));
#976=CARTESIAN_POINT('',(242.706846157065,100.192795992766,65.6000508000968));
#977=CARTESIAN_POINT('',(243.306846157065,100.192795992766,65.0000508001026));
#978=CARTESIAN_POINT('Origin',(239.817846157065,100.192795992766,65.6000508000969));
#979=CARTESIAN_POINT('Origin',(239.817846157065,175.192794817314,65.0000508001019));
#980=CARTESIAN_POINT('',(242.706846157065,175.192794817314,65.6000508000962));
#981=CARTESIAN_POINT('',(243.306846157065,175.192794817314,65.0000508001019));
#982=CARTESIAN_POINT('Origin',(239.817846157065,175.192794817314,65.6000508000963));
#983=CARTESIAN_POINT('Origin',(239.817846157065,100.192795992766,65.6000508000969));
#984=CARTESIAN_POINT('',(241.517846157065,100.192795992766,65.6000508000968));
#985=CARTESIAN_POINT('Origin',(239.817846157065,100.192795992766,65.6000508000969));
#986=CARTESIAN_POINT('Origin',(239.817846157065,175.192794817314,65.6000508000963));
#987=CARTESIAN_POINT('',(241.517846157065,175.192794817314,65.6000508000962));
#988=CARTESIAN_POINT('Origin',(239.817846157065,175.192794817314,65.6000508000963));
#989=CARTESIAN_POINT('Origin',(239.817846157071,175.192794817314,64.4000508001017));
#990=CARTESIAN_POINT('',(241.51784615707,175.192794817314,64.4000508001017));
#991=CARTESIAN_POINT('Origin',(239.817846157068,100.192795992766,64.4000508001023));
#992=CARTESIAN_POINT('',(241.517846157068,100.192795992766,64.4000508001023));
#993=UNCERTAINTY_MEASURE_WITH_UNIT(LENGTH_MEASURE(0.01),#997,
'DISTANCE_ACCURACY_VALUE',
'Maximum model space distance between geometric entities at asserted c
onnectivities');
#994=UNCERTAINTY_MEASURE_WITH_UNIT(LENGTH_MEASURE(0.01),#997,
'DISTANCE_ACCURACY_VALUE',
'Maximum model space distance between geometric entities at asserted c
onnectivities');
#995=(
GEOMETRIC_REPRESENTATION_CONTEXT(3)
GLOBAL_UNCERTAINTY_ASSIGNED_CONTEXT((#993))
GLOBAL_UNIT_ASSIGNED_CONTEXT((#997,#999,#1000))
REPRESENTATION_CONTEXT('','3D')
);
#996=(
GEOMETRIC_REPRESENTATION_CONTEXT(3)
GLOBAL_UNCERTAINTY_ASSIGNED_CONTEXT((#994))
GLOBAL_UNIT_ASSIGNED_CONTEXT((#997,#999,#1000))
REPRESENTATION_CONTEXT('','3D')
);
#997=(
LENGTH_UNIT()
NAMED_UNIT(*)
SI_UNIT(.MILLI.,.METRE.)
);
#998=(
LENGTH_UNIT()
NAMED_UNIT(*)
SI_UNIT($,.METRE.)
);
#999=(
NAMED_UNIT(*)
PLANE_ANGLE_UNIT()
SI_UNIT($,.RADIAN.)
);
#1000=(
NAMED_UNIT(*)
SI_UNIT($,.STERADIAN.)
SOLID_ANGLE_UNIT()
);
#1001=SHAPE_DEFINITION_REPRESENTATION(#1002,#1003);
#1002=PRODUCT_DEFINITION_SHAPE('',$,#1005);
#1003=SHAPE_REPRESENTATION('',(#576),#995);
#1004=PRODUCT_DEFINITION_CONTEXT('part definition',#1009,'design');
#1005=PRODUCT_DEFINITION('EMU_I2C_MUX_Mount','EMU_I2C_MUX_Mount',#1006,
#1004);
#1006=PRODUCT_DEFINITION_FORMATION('',$,#1011);
#1007=PRODUCT_RELATED_PRODUCT_CATEGORY('EMU_I2C_MUX_Mount',
'EMU_I2C_MUX_Mount',(#1011));
#1008=APPLICATION_PROTOCOL_DEFINITION('international standard',
'automotive_design',2009,#1009);
#1009=APPLICATION_CONTEXT(
'Core Data for Automotive Mechanical Design Process');
#1010=PRODUCT_CONTEXT('part definition',#1009,'mechanical');
#1011=PRODUCT('EMU_I2C_MUX_Mount','EMU_I2C_MUX_Mount',$,(#1010));
#1012=PRESENTATION_STYLE_ASSIGNMENT((#1013));
#1013=SURFACE_STYLE_USAGE(.BOTH.,#1014);
#1014=SURFACE_SIDE_STYLE('',(#1015));
#1015=SURFACE_STYLE_FILL_AREA(#1016);
#1016=FILL_AREA_STYLE('\X2\94A2\X0\ - \X2\7F0E5149\X0\',(#1017));
#1017=FILL_AREA_STYLE_COLOUR('\X2\94A2\X0\ - \X2\7F0E5149\X0\',#1018);
#1018=COLOUR_RGB('\X2\94A2\X0\ - \X2\7F0E5149\X0\',0.627450980392157,0.627450980392157,
0.627450980392157);
ENDSEC;
END-ISO-10303-21;
